<svg xmlns:xlink="http://www.w3.org/1999/xlink" xmlns="http://www.w3.org/2000/svg" id="Laag_1" data-name="Laag 1" viewBox="0 0 278.2 187.85" width="278.2" height="187.85"><defs><style>.cls-1{fill:#1d1d1b;}.cls-2{fill:#bbdc00;}</style></defs><title>Logo_CityHub_GC_FC</title><path class="cls-1" d="M0,120c0-12.09,10-21.69,22.41-21.69a22.42,22.42,0,0,1,13.87,4.8,2,2,0,0,1,.27,2.93,2.19,2.19,0,0,1-2.93.36,17.87,17.87,0,0,0-11.2-3.91c-10.14,0-18.14,7.91-18.14,17.52,0,9.78,8,17.6,18.14,17.6a18.34,18.34,0,0,0,11.2-3.82,2.19,2.19,0,0,1,2.93.36,2.11,2.11,0,0,1-.44,3.11,22.48,22.48,0,0,1-13.69,4.62C10,141.86,0,132.26,0,120Z"></path><path class="cls-1" d="M49.35,100.43a2.11,2.11,0,0,1,2.13-2.13,2.13,2.13,0,0,1,2.22,2.13v39.3a2.18,2.18,0,0,1-4.36,0Z"></path><path class="cls-1" d="M86.36,100.43a2.3,2.3,0,0,1-2.13,2.13h-5.6V134.3a3.41,3.41,0,0,0,3.2,3.2,2.47,2.47,0,0,1,2.22,2.22,2.38,2.38,0,0,1-2.22,2.13,7.41,7.41,0,0,1-7.65-7.56V102.56H68.76c-2.13,0-2.13-1.07-2.13-2.13s0-2.13,2.13-2.13h5.42V82.11A2.29,2.29,0,0,1,76.32,80a2.4,2.4,0,0,1,2.31,2.13V98.29h5.6A2.29,2.29,0,0,1,86.36,100.43Z"></path><path class="cls-1" d="M103.14,124.62c0,7.65,6.22,12.8,13.87,12.8s13.78-5.16,13.78-12.8V100.08c0-.18.09-.27.09-.36s.09-.27.18-.36a2,2,0,0,1,1.33-1.07.31.31,0,0,1,.18-.09H133a2.43,2.43,0,0,1,1.69.71,2.66,2.66,0,0,1,.36.71,2,2,0,0,1,.09.71v58a2.18,2.18,0,0,1-4.36,0V135.38a18,18,0,0,1-13.78,6.4c-10,0-18.23-7.11-18.23-17.16V100.35a2.18,2.18,0,0,1,4.36,0Z"></path><path class="cls-2" d="M152.92,137.06a4.9,4.9,0,0,1-5,4.89,5,5,0,0,1-4.71-3.65,5.26,5.26,0,0,1-.18-1.24V84.6a4.93,4.93,0,0,1,9.87,0v15.47a20.27,20.27,0,0,1,9.51-2.58A19.45,19.45,0,0,1,181.82,117v20.09a4.89,4.89,0,1,1-9.78,0V117a9.56,9.56,0,1,0-19.12,0Z"></path><path class="cls-2" d="M208.46,142A18.59,18.59,0,0,1,190,123.46V102.21a4.8,4.8,0,0,1,4.71-4.71,4.74,4.74,0,0,1,4.71,4.71v21.25a9,9,0,0,0,9.07,9.07,9.22,9.22,0,0,0,9.34-9.07V102.21a4.67,4.67,0,0,1,4.62-4.71,4.94,4.94,0,0,1,4.8,4.71v21.25A18.77,18.77,0,0,1,208.46,142Z"></path><path class="cls-2" d="M235,119.81V84.51a4.85,4.85,0,0,1,9.69,0v16.72A21,21,0,0,1,256.6,97.5c12,0,21.61,10.14,21.61,22.32,0,12-9.6,22.14-21.61,22.14a21.7,21.7,0,0,1-12.09-3.82,4.79,4.79,0,0,1-4.71,3.82,4.84,4.84,0,0,1-4.8-4.8Zm9.69,0a12.51,12.51,0,0,0,3.56,8.8,11.37,11.37,0,0,0,8.36,3.65,11.51,11.51,0,0,0,8.36-3.65,12.89,12.89,0,0,0,0-17.78,11.51,11.51,0,0,0-8.36-3.65,11.37,11.37,0,0,0-8.36,3.65A12.63,12.63,0,0,0,244.68,119.81Z"></path><path class="cls-2" d="M135.16,9l-22.58,8.54,22.58,8.54V70l-34-15.7V13.24L135.16,0Z"></path><path class="cls-1" d="M143.11,26.08l22.58-8.54L143.11,9V0l34,13.24v41.1l-34,15.7Z"></path><circle class="cls-1" cx="51.53" cy="88.91" r="3.1"></circle><path class="cls-1" d="M24.22,176.58v6.81a4.25,4.25,0,0,1-6.16,3.85.94.94,0,0,1-.47-1.28,1,1,0,0,1,1.28-.4,2.41,2.41,0,0,0,1,.25,2.38,2.38,0,0,0,2.25-1.64,3.5,3.5,0,0,1-1.71.43,3.79,3.79,0,0,1-3.76-3.78v-4.25a1,1,0,0,1,.94-1,.93.93,0,0,1,1,1v4.25a1.86,1.86,0,0,0,3.73,0v-4.25a.92.92,0,0,1,.94-1A1,1,0,0,1,24.22,176.58Z"></path><path class="cls-1" d="M30.55,183.31a4.49,4.49,0,0,1-1.24-3.17A4.65,4.65,0,0,1,30.55,177a4.21,4.21,0,0,1,3.1-1.37,4,4,0,0,1,3,1.37,4.5,4.5,0,0,1,1.26,3.15,4.36,4.36,0,0,1-1.26,3.17,4,4,0,0,1-3,1.37A4.2,4.2,0,0,1,30.55,183.31Zm.72-3.17a2.91,2.91,0,0,0,.65,1.91,2.44,2.44,0,0,0,1.73.67,2.36,2.36,0,0,0,1.66-.67,2.76,2.76,0,0,0,.7-1.91,2.7,2.7,0,0,0-.7-1.87,2.54,2.54,0,0,0-1.66-.68,2.62,2.62,0,0,0-1.73.68A2.84,2.84,0,0,0,31.27,180.14Z"></path><path class="cls-1" d="M46.5,184.62a3.77,3.77,0,0,1-3.75-3.75v-4.3a1,1,0,0,1,1-1,1,1,0,0,1,1,1v4.3a1.82,1.82,0,0,0,1.84,1.84,1.87,1.87,0,0,0,1.89-1.84v-4.3a1,1,0,0,1,.94-1,1,1,0,0,1,1,1v4.3A3.8,3.8,0,0,1,46.5,184.62Z"></path><path class="cls-1" d="M61.77,176.58a1,1,0,0,1-1,1,1.72,1.72,0,0,0-1.08.34,2.71,2.71,0,0,0-.83.86,5.52,5.52,0,0,0-.74,1.51v3.42a1,1,0,0,1-1,1,1,1,0,0,1-1-1v-7.09a1,1,0,0,1,1-.94,1,1,0,0,1,1,.94v.13a2.32,2.32,0,0,1,.38-.36,3.94,3.94,0,0,1,2.27-.7A.93.93,0,0,1,61.77,176.58Z"></path><path class="cls-1" d="M82.07,180.18v3.35a4.33,4.33,0,0,1-4.32,4.32,4.18,4.18,0,0,1-1.89-.45,1,1,0,0,1-.43-1.3,1,1,0,0,1,1.3-.45,2.16,2.16,0,0,0,1,.25A2.41,2.41,0,0,0,80.11,184a4.15,4.15,0,0,1-5.42-.65,4.5,4.5,0,0,1-1.26-3.17A4.73,4.73,0,0,1,74.69,177a4.26,4.26,0,0,1,3.06-1.33,4.09,4.09,0,0,1,2.41.76,1,1,0,0,1,1-.76,1,1,0,0,1,1,1v3.6Zm-1.93,0a2.8,2.8,0,0,0-.68-1.84,2.25,2.25,0,0,0-1.71-.77,2.16,2.16,0,0,0-1.66.77,2.65,2.65,0,0,0-.72,1.84,2.6,2.6,0,0,0,.72,1.85,2.19,2.19,0,0,0,1.66.74,2.28,2.28,0,0,0,1.71-.74A2.74,2.74,0,0,0,80.14,180.16Z"></path><path class="cls-1" d="M93.7,176.58a1,1,0,0,1-1,1,1.72,1.72,0,0,0-1.08.34,2.71,2.71,0,0,0-.83.86,5.52,5.52,0,0,0-.74,1.51v3.42a1,1,0,0,1-1,1,1,1,0,0,1-1-1v-7.09a1,1,0,0,1,1-.94,1,1,0,0,1,1,.94v.13a2.32,2.32,0,0,1,.38-.36,3.94,3.94,0,0,1,2.27-.7A.93.93,0,0,1,93.7,176.58Z"></path><path class="cls-1" d="M96.77,180.12a4.46,4.46,0,0,1,4.39-4.5,4.31,4.31,0,0,1,4.34,4.18v.09a.5.5,0,0,1,0,.16.87.87,0,0,1-.94.72H98.83a2.36,2.36,0,0,0,.61,1.19,2.78,2.78,0,0,0,1.73.81,3,3,0,0,0,1.87-.45,1,1,0,0,1,1.35-.05.82.82,0,0,1,0,1.17,4.55,4.55,0,0,1-3.22,1.19A4.47,4.47,0,0,1,96.77,180.12Zm2-.88h5.1a2.94,2.94,0,0,0-2.67-1.91A2.52,2.52,0,0,0,98.74,179.24Z"></path><path class="cls-1" d="M110,180.12a4.46,4.46,0,0,1,4.39-4.5,4.31,4.31,0,0,1,4.34,4.18v.09a.5.5,0,0,1,0,.16.87.87,0,0,1-.94.72H112a2.36,2.36,0,0,0,.61,1.19,2.78,2.78,0,0,0,1.73.81,3,3,0,0,0,1.87-.45,1,1,0,0,1,1.35-.05.82.82,0,0,1,0,1.17,4.55,4.55,0,0,1-3.22,1.19A4.47,4.47,0,0,1,110,180.12Zm2-.88H117a2.94,2.94,0,0,0-2.67-1.91A2.52,2.52,0,0,0,111.95,179.24Z"></path><path class="cls-1" d="M131.34,179.37v4.3a.94.94,0,0,1-.94,1,1,1,0,0,1-1-1v-4.3a1.85,1.85,0,0,0-1.87-1.82,1.8,1.8,0,0,0-1.8,1.82v4.3a.35.35,0,0,1,0,.18,1,1,0,0,1-1,.77,1,1,0,0,1-1-1v-7.09a1,1,0,0,1,1-1,1,1,0,0,1,.88.56,3.59,3.59,0,0,1,1.91-.56A3.77,3.77,0,0,1,131.34,179.37Z"></path><path class="cls-1" d="M144.13,180.14a4.58,4.58,0,0,1,4.57-4.52,4.74,4.74,0,0,1,2.86,1,1,1,0,0,1,.2,1.33,1,1,0,0,1-1.35.18,2.87,2.87,0,0,0-1.71-.58,2.59,2.59,0,1,0,0,5.17,2.91,2.91,0,0,0,1.71-.58,1,1,0,0,1,1.35.2,1,1,0,0,1-.2,1.33,5,5,0,0,1-2.86,1A4.56,4.56,0,0,1,144.13,180.14Z"></path><path class="cls-1" d="M157.85,183.31a4.49,4.49,0,0,1-1.24-3.17,4.65,4.65,0,0,1,1.24-3.15,4.21,4.21,0,0,1,3.1-1.37,4,4,0,0,1,3,1.37,4.5,4.5,0,0,1,1.26,3.15,4.36,4.36,0,0,1-1.26,3.17,4,4,0,0,1-3,1.37A4.2,4.2,0,0,1,157.85,183.31Zm.72-3.17a2.91,2.91,0,0,0,.65,1.91,2.43,2.43,0,0,0,1.73.67,2.36,2.36,0,0,0,1.66-.67,2.76,2.76,0,0,0,.7-1.91,2.7,2.7,0,0,0-.7-1.87,2.54,2.54,0,0,0-1.66-.68,2.62,2.62,0,0,0-1.73.68A2.84,2.84,0,0,0,158.57,180.14Z"></path><path class="cls-1" d="M178,179.37v4.3a.94.94,0,0,1-.94,1,1,1,0,0,1-1-1v-4.3a1.85,1.85,0,0,0-1.87-1.82,1.8,1.8,0,0,0-1.8,1.82v4.3a.35.35,0,0,1,0,.18,1,1,0,0,1-1,.77,1,1,0,0,1-1-1v-7.09a1,1,0,0,1,1-1,1,1,0,0,1,.88.56,3.59,3.59,0,0,1,1.91-.56A3.77,3.77,0,0,1,178,179.37Z"></path><path class="cls-1" d="M191.31,179.37v4.3a.94.94,0,0,1-.94,1,1,1,0,0,1-1-1v-4.3a1.85,1.85,0,0,0-1.87-1.82,1.8,1.8,0,0,0-1.8,1.82v4.3a.35.35,0,0,1,0,.18,1,1,0,0,1-1,.77,1,1,0,0,1-1-1v-7.09a1,1,0,0,1,1-1,1,1,0,0,1,.88.56,3.59,3.59,0,0,1,1.91-.56A3.77,3.77,0,0,1,191.31,179.37Z"></path><path class="cls-1" d="M196.46,180.12a4.46,4.46,0,0,1,4.39-4.5,4.31,4.31,0,0,1,4.34,4.18v.09a.48.48,0,0,1,0,.16.87.87,0,0,1-.94.72h-5.73a2.36,2.36,0,0,0,.61,1.19,2.78,2.78,0,0,0,1.73.81,3,3,0,0,0,1.87-.45,1,1,0,0,1,1.35-.05.82.82,0,0,1,0,1.17,4.55,4.55,0,0,1-3.22,1.19A4.47,4.47,0,0,1,196.46,180.12Zm2-.88h5.1a2.94,2.94,0,0,0-2.67-1.91A2.52,2.52,0,0,0,198.42,179.24Z"></path><path class="cls-1" d="M209.67,180.14a4.58,4.58,0,0,1,4.57-4.52,4.75,4.75,0,0,1,2.86,1,1,1,0,0,1,.2,1.33,1,1,0,0,1-1.35.18,2.87,2.87,0,0,0-1.71-.58,2.59,2.59,0,1,0,0,5.17,2.92,2.92,0,0,0,1.71-.58,1,1,0,0,1,1.35.2,1,1,0,0,1-.2,1.33,5,5,0,0,1-2.86,1A4.56,4.56,0,0,1,209.67,180.14Z"></path><path class="cls-1" d="M226.88,176.61a1,1,0,0,1-1,1h-.45v5a1,1,0,0,1,1,1,1,1,0,0,1-1,1,2,2,0,0,1-2-2v-5h-.52a1,1,0,0,1-1-1,1,1,0,0,1,1-1h.52V173a1,1,0,0,1,1-1,1,1,0,0,1,1,1v2.61h.45A1,1,0,0,1,226.88,176.61Z"></path><path class="cls-1" d="M234.24,173.37a1,1,0,0,1-1,1,1,1,0,0,1-1-1V173a1,1,0,0,1,1-1,1,1,0,0,1,1,1Zm0,3.26v7a1,1,0,0,1-1,1,1,1,0,0,1-1-1v-7a1,1,0,0,1,1-1A1,1,0,0,1,234.24,176.63Z"></path><path class="cls-1" d="M240.41,183.31a4.49,4.49,0,0,1-1.24-3.17,4.65,4.65,0,0,1,1.24-3.15,4.21,4.21,0,0,1,3.1-1.37,4,4,0,0,1,3,1.37,4.5,4.5,0,0,1,1.26,3.15,4.36,4.36,0,0,1-1.26,3.17,4,4,0,0,1-3,1.37A4.2,4.2,0,0,1,240.41,183.31Zm.72-3.17a2.91,2.91,0,0,0,.65,1.91,2.43,2.43,0,0,0,1.73.67,2.36,2.36,0,0,0,1.66-.67,2.76,2.76,0,0,0,.7-1.91,2.7,2.7,0,0,0-.7-1.87,2.54,2.54,0,0,0-1.66-.68,2.62,2.62,0,0,0-1.73.68A2.84,2.84,0,0,0,241.13,180.14Z"></path><path class="cls-1" d="M260.59,179.37v4.3a.94.94,0,0,1-.94,1,1,1,0,0,1-1-1v-4.3a1.85,1.85,0,0,0-1.87-1.82,1.8,1.8,0,0,0-1.8,1.82v4.3a.35.35,0,0,1,0,.18,1,1,0,0,1-1,.77,1,1,0,0,1-1-1v-7.09a1,1,0,0,1,1-1,1,1,0,0,1,.88.56,3.59,3.59,0,0,1,1.91-.56A3.77,3.77,0,0,1,260.59,179.37Z"></path></svg>