<svg width="390" height="481" viewBox="0 0 390 481" fill="none" xmlns="http://www.w3.org/2000/svg">
<path d="M-109.537 922.372L-210.221 997.109C-211.187 997.827 -211.829 998.899 -212.005 1000.09C-212.181 1001.28 -211.876 1002.49 -211.159 1003.46L-198.691 1020.22C-197.972 1021.18 -196.898 1021.82 -195.705 1022C-194.513 1022.18 -193.299 1021.87 -192.33 1021.16L171.096 751.475L184.225 742.169L184.011 741.882L422.72 564.753C423.687 564.034 424.33 562.96 424.506 561.768C424.682 560.576 424.378 559.362 423.661 558.394L411.193 541.636C410.474 540.669 409.4 540.027 408.207 539.85C407.015 539.674 405.801 539.977 404.832 540.695L290.064 625.862C289.567 626.232 289.001 626.496 288.399 626.639C287.796 626.782 287.171 626.801 286.561 626.694C285.952 626.588 285.37 626.358 284.852 626.019C284.334 625.68 283.891 625.239 283.55 624.722L111.513 363.799C111.033 363.071 110.773 362.22 110.764 361.348C110.755 360.476 110.997 359.621 111.462 358.883C111.926 358.145 112.594 357.557 113.384 357.189C114.174 356.82 115.054 356.687 115.918 356.805L440.009 401.457C441.203 401.62 442.413 401.303 443.373 400.575C444.333 399.847 444.965 398.768 445.131 397.575L448.589 372.418L445.087 371.928C444.362 371.82 443.672 371.544 443.074 371.122L208.428 204.172C207.749 203.685 207.216 203.021 206.889 202.252C206.562 201.482 206.454 200.638 206.575 199.811C206.697 198.984 207.043 198.207 207.578 197.564C208.112 196.922 208.813 196.439 209.604 196.168L683.326 35.6207C683.892 35.4315 684.415 35.1324 684.864 34.7405C685.314 34.3487 685.682 33.8719 685.947 33.3374C686.211 32.803 686.368 32.2215 686.407 31.6263C686.447 31.0312 686.368 30.4341 686.175 29.8695L679.468 10.1025C679.081 8.96334 678.257 8.02439 677.178 7.49221C676.098 6.96002 674.852 6.87809 673.712 7.2644L173.325 176.869C172.645 177.101 171.919 177.167 171.208 177.063C170.496 176.959 169.82 176.687 169.235 176.269L-227.154 -105.766C-228.136 -106.465 -229.355 -106.745 -230.544 -106.546C-231.733 -106.347 -232.794 -105.685 -233.495 -104.704L-245.583 -87.709C-246.281 -86.7271 -246.562 -85.5081 -246.362 -84.3196C-246.163 -83.1312 -245.5 -82.0703 -244.52 -81.3696L-66.0808 45.5876C-65.489 46.0078 -65.0067 46.5638 -64.6742 47.2088C-64.3417 47.8538 -64.1687 48.5691 -64.1697 49.2947C-64.1708 50.0203 -64.3457 50.7349 -64.6801 51.3789C-65.0145 52.0228 -65.4984 52.5773 -66.0914 52.9956L-358.156 260.002C-359.095 260.674 -360.255 260.961 -361.399 260.804L-379.556 258.361C-380.748 258.195 -381.957 258.51 -382.917 259.236C-383.877 259.962 -384.51 261.04 -384.675 262.232L-388.049 286.757L-388.405 287.049L-388.141 287.374L-388.04 287.401L-136.975 592.338C-135.473 594.161 -134.564 596.399 -134.369 598.752L-107.718 918.342C-107.654 919.113 -107.787 919.888 -108.105 920.593C-108.423 921.298 -108.916 921.91 -109.537 922.372ZM-114.67 372.53L140.034 731.648C140.718 732.618 140.996 733.816 140.808 734.987C140.621 736.159 139.984 737.211 139.032 737.919L-72.6354 895C-73.2864 895.481 -74.0537 895.779 -74.8586 895.865C-75.6634 895.95 -76.4764 895.819 -77.214 895.486C-77.9515 895.153 -78.5868 894.629 -79.0544 893.968C-79.522 893.308 -79.805 892.534 -79.8742 891.728L-122.902 375.543C-122.99 374.548 -122.748 373.553 -122.213 372.71C-121.677 371.868 -120.879 371.225 -119.941 370.882C-119.004 370.538 -117.979 370.514 -117.026 370.812C-116.073 371.11 -115.245 371.713 -114.67 372.53ZM258.669 649.139L170.388 714.655C169.901 715.014 169.348 715.272 168.761 715.415C168.173 715.557 167.564 715.581 166.967 715.486C166.37 715.39 165.798 715.176 165.285 714.857C164.771 714.538 164.327 714.12 163.977 713.628L-105.244 334.054C-105.756 333.33 -106.045 332.472 -106.076 331.586C-106.107 330.7 -105.878 329.824 -105.418 329.066C-104.957 328.308 -104.285 327.701 -103.485 327.32C-102.684 326.939 -101.789 326.8 -100.91 326.92L64.4987 349.712C65.1409 349.81 65.7548 350.044 66.2991 350.398C66.8434 350.753 67.3054 351.22 67.6541 351.768L259.734 642.995C260.372 643.962 260.618 645.136 260.42 646.278C260.222 647.42 259.596 648.443 258.669 649.139ZM-110.34 288.248L28.9721 133.043C29.5464 132.407 30.289 131.947 31.1142 131.715C31.9393 131.484 32.8132 131.491 33.6347 131.735C34.4563 131.979 35.1918 132.451 35.7565 133.095C36.3212 133.74 36.6918 134.531 36.8255 135.378L64.4336 313.61C64.5428 314.309 64.4867 315.024 64.2699 315.698C64.053 316.372 63.6814 316.986 63.1848 317.491C62.6882 317.996 62.0804 318.377 61.4099 318.605C60.7394 318.833 60.0249 318.901 59.3234 318.803L-107.603 295.799C-108.422 295.686 -109.195 295.351 -109.838 294.832C-110.481 294.312 -110.969 293.626 -111.251 292.849C-111.533 292.072 -111.597 291.233 -111.436 290.422C-111.276 289.611 -110.897 288.859 -110.34 288.248ZM95.8402 320.487C95.8402 320.487 69.7682 152.462 69.6339 151.579C69.4995 150.697 69.6277 149.794 70.0024 148.984C70.3772 148.174 70.982 147.493 71.7415 147.024C72.5011 146.555 73.3819 146.32 74.2742 146.347C75.1665 146.375 76.031 146.665 76.7601 147.18L364.953 352.248C365.784 352.836 366.393 353.686 366.682 354.661C366.972 355.636 366.926 356.68 366.551 357.625C366.176 358.571 365.494 359.363 364.615 359.875C363.736 360.386 362.71 360.588 361.702 360.447L99.7458 324.355C98.7671 324.227 97.8563 323.785 97.1499 323.096C96.4436 322.407 95.9798 321.507 95.8281 320.532L95.8402 320.487ZM-32.3752 69.5616L11.1155 100.505C11.6368 100.876 12.0739 101.353 12.3981 101.905C12.7224 102.457 12.9266 103.071 12.9974 103.707C13.0681 104.343 13.0039 104.987 12.8088 105.597C12.6137 106.206 12.2922 106.768 11.8653 107.244L-150.262 287.88C-150.761 288.437 -151.389 288.862 -152.091 289.117C-152.794 289.372 -153.548 289.451 -154.288 289.344L-304.883 268.585C-305.784 268.458 -306.626 268.065 -307.301 267.455C-307.976 266.845 -308.452 266.048 -308.669 265.164C-308.886 264.281 -308.834 263.353 -308.518 262.501C-308.203 261.648 -307.639 260.909 -306.899 260.38L-37.6312 69.5579C-36.8637 69.0117 -35.9448 68.7186 -35.0027 68.7193C-34.0606 68.7199 -33.1421 69.0144 -32.3752 69.5616ZM-332.763 294.972L-161.269 318.606C-160.245 318.746 -159.3 319.231 -158.589 319.981C-157.878 320.73 -157.444 321.7 -157.359 322.73L-140.231 528.184C-140.149 529.148 -140.378 530.114 -140.885 530.939C-141.391 531.765 -142.149 532.406 -143.046 532.771C-143.943 533.135 -144.933 533.203 -145.872 532.964C-146.811 532.725 -147.649 532.193 -148.263 531.444L-336.888 302.367C-337.468 301.66 -337.822 300.796 -337.903 299.886C-337.985 298.976 -337.79 298.062 -337.345 297.264C-336.9 296.466 -336.225 295.821 -335.407 295.412C-334.59 295.003 -333.669 294.85 -332.763 294.972Z" fill="#A0E7FF"/>
</svg>
