<svg width="192" height="49" viewBox="0 0 192 49" fill="none" xmlns="http://www.w3.org/2000/svg">
<g clip-path="url(#clip0_58_108)">
<path d="M79.5488 40.5992L69.8122 27.4739L65.805 31.1495V40.5992H60.3653V5.90601H65.805V24.4836L77.8681 13.4645H85.1374L73.8277 23.7568L86.0896 40.5992H79.5488Z" fill="white"/>
<path d="M110.539 28.0188H89.5586C89.9477 33.2558 93.1685 36.5352 97.9622 36.5352C101.622 36.5352 104.139 34.8253 104.933 31.8351H110.464C109.33 38.1542 104.089 41.0372 97.8132 41.0372C89.1115 41.0372 84.268 34.2801 84.268 27.0358C84.268 19.7916 88.8135 13.0349 97.5649 13.0349C106.316 13.0349 110.663 19.4448 110.663 25.5657C110.688 26.6974 110.539 28.0188 110.539 28.0188ZM104.909 24.0044C104.809 20.0312 102.085 17.0493 97.5896 17.0493C93.5824 17.0493 90.7177 19.643 89.8318 24.0044H104.909Z" fill="white"/>
<path d="M136.197 23.6575V40.5992H130.856V36.469C129.424 39.261 125.963 41.0287 121.956 41.0287C116.665 41.0287 112.956 37.7246 112.956 33.388C112.956 27.804 117.212 25.3097 125.665 24.3763L130.856 23.8394V22.8315C130.856 19.4035 128.232 17.107 124.481 17.107C120.871 17.107 118.296 19.5025 118.098 22.7323H113.014C113.453 16.7105 118.595 13.043 124.481 13.043C131.304 13.0347 136.197 16.8015 136.197 23.6575ZM130.856 28.2088V27.7877L125.616 28.3245C120.772 28.8614 118.164 29.9765 118.164 32.975C118.164 35.1804 120.093 36.6013 123.206 36.6013C127.942 36.5848 130.807 33.0575 130.856 28.2088Z" fill="white"/>
<path d="M165.406 22.6826V40.5991H159.934V23.9547C159.934 20.2789 157.45 17.8833 153.658 17.8833C149.212 17.8833 145.85 22.6827 145.85 28.944V40.5991H140.411V13.4725H145.859V18.3214C146.797 16.7407 148.128 15.4281 149.724 14.5107C151.319 13.5933 153.125 13.1022 154.966 13.0845C161.449 13.0845 165.406 16.9004 165.406 22.6826Z" fill="white"/>
<path d="M192 23.6575V40.5992H186.66V36.469C185.227 39.261 181.767 41.0287 177.759 41.0287C172.469 41.0287 168.768 37.7246 168.768 33.388C168.768 27.804 173.015 25.3097 181.469 24.3763L186.66 23.8394V22.8315C186.66 19.4035 184.043 17.107 180.285 17.107C176.675 17.107 174.1 19.5025 173.909 22.7323H168.818C169.256 16.7105 174.398 13.043 180.285 13.043C187.107 13.0347 192 16.8015 192 23.6575ZM186.66 28.2088V27.7877L181.419 28.3245C176.575 28.8614 173.967 29.9765 173.967 32.975C173.967 35.1804 175.897 36.6013 179.018 36.6013C183.745 36.5848 186.61 33.0575 186.66 28.2088Z" fill="white"/>
<path d="M26.7922 0.0992766C21.7651 -0.360267 16.7183 0.737264 12.3387 3.24206C7.95918 5.74685 4.45972 9.53719 2.31691 14.0974C0.174089 18.6576 -0.50802 23.7659 0.363478 28.7267C1.23498 33.6876 3.61777 38.2601 7.18734 41.8214C10.7569 45.3827 15.3398 47.7598 20.3121 48.6292C25.2845 49.4987 30.4046 48.8182 34.9754 46.6803C39.5462 44.5425 43.3455 41.0511 45.8561 36.6817C48.3667 32.3123 49.4666 27.2771 49.0059 22.2617C48.4776 16.5618 45.9676 11.2258 41.9106 7.17819C37.8536 3.13059 32.5052 0.62636 26.7922 0.0992766ZM44.179 24.5002C44.1818 28.4769 42.9656 32.3596 40.6934 35.627C40.6532 35.68 40.6013 35.7228 40.5417 35.7524C40.482 35.782 40.4163 35.7976 40.3497 35.7976C40.2831 35.7976 40.2175 35.782 40.1579 35.7524C40.0983 35.7228 40.0463 35.68 40.0062 35.627L30.2034 23.4265C30.1079 23.31 30.0556 23.164 30.0556 23.0135C30.0556 22.8629 30.1079 22.717 30.2034 22.6005L39.2528 12.407C39.2978 12.3546 39.3537 12.3128 39.4166 12.284C39.4795 12.2552 39.5479 12.24 39.6171 12.24C39.6863 12.24 39.7546 12.2552 39.8175 12.284C39.8804 12.3128 39.9363 12.3546 39.9813 12.407C42.6953 15.8496 44.1681 20.1038 44.1625 24.4836L44.179 24.5002ZM35.6346 9.06983L18.993 27.7878C18.9227 27.8656 18.8287 27.9183 18.7255 27.9378C18.6223 27.9573 18.5154 27.9423 18.4215 27.8955C18.3275 27.8486 18.2516 27.7725 18.2053 27.6785C18.159 27.5844 18.1448 27.4776 18.1651 27.3747L22.3048 5.43539C22.3267 5.32412 22.3833 5.22255 22.4666 5.14539C22.5499 5.06823 22.6555 5.01941 22.7684 5.00584C23.3645 4.95627 23.9606 4.92315 24.565 4.92315C28.4796 4.92084 32.3044 6.09239 35.5436 8.28535C35.6047 8.32864 35.6558 8.38433 35.6934 8.4491C35.7309 8.51387 35.7539 8.58597 35.761 8.66045C35.7681 8.73493 35.759 8.81002 35.7343 8.88067C35.7096 8.95132 35.67 9.01585 35.6181 9.06983H35.6346ZM5.00075 24.5002C5.0029 20.7246 6.0979 17.0302 8.15415 13.8606C10.2104 10.6911 13.1404 8.18137 16.5919 6.63329C16.6419 6.61095 16.6972 6.60258 16.7515 6.60949C16.8059 6.61641 16.8572 6.63827 16.9 6.67241C16.9428 6.70656 16.9753 6.75172 16.994 6.80309C17.0127 6.85447 17.0168 6.91005 17.0059 6.96362L11.1441 38.072C11.1329 38.1256 11.1075 38.1751 11.0705 38.2156C11.0336 38.256 10.9864 38.2858 10.9339 38.3019C10.8814 38.3179 10.8257 38.3195 10.7724 38.3067C10.7191 38.2939 10.6702 38.267 10.6308 38.2289C6.98971 34.5764 4.94491 29.635 4.94284 24.4836L5.00075 24.5002ZM15.5736 41.3676L15.8965 39.6494C16.0335 38.9313 16.3625 38.2636 16.8487 37.7166L26.0637 27.3417C26.1243 27.2689 26.2002 27.2105 26.286 27.1703C26.3719 27.1301 26.4656 27.109 26.5604 27.109C26.6553 27.109 26.749 27.1301 26.8348 27.1703C26.9207 27.2105 26.9966 27.2689 27.0572 27.3417L36.6861 39.3276C36.7225 39.3711 36.7496 39.4214 36.766 39.4756C36.7824 39.5298 36.7876 39.5867 36.7815 39.643C36.7753 39.6992 36.7578 39.7537 36.73 39.8031C36.7023 39.8525 36.6649 39.8959 36.6199 39.9305C33.7149 42.1845 30.2308 43.5739 26.5689 43.9393C22.907 44.3046 19.2163 43.6311 15.9214 41.9956C15.7929 41.9517 15.6829 41.8655 15.6093 41.7516C15.5357 41.6377 15.5027 41.5025 15.5156 41.3676H15.5736Z" fill="#CCD912"/>
</g>
<defs>
<clipPath id="clip0_58_108">
<rect width="192" height="49" fill="white"/>
</clipPath>
</defs>
</svg>
