<svg width="1172" height="1076" viewBox="0 0 1172 1076" fill="none" xmlns="http://www.w3.org/2000/svg">
<mask id="mask0_13_124" style="mask-type:alpha" maskUnits="userSpaceOnUse" x="-556" y="0" width="1728" height="1076">
<rect x="-556" width="1728" height="1076" fill="#003B49"/>
</mask>
<g mask="url(#mask0_13_124)">
<g clip-path="url(#clip0_13_124)">
<path d="M-883.222 628.126L-1082.74 505.408C-1084.66 504.23 -1086.96 503.862 -1089.15 504.383C-1091.33 504.905 -1093.22 506.274 -1094.4 508.189L-1114.81 541.446C-1115.98 543.365 -1116.35 545.674 -1115.83 547.865C-1115.31 550.055 -1113.94 551.95 -1112.02 553.132L-391.998 996.15L-366.745 1012.46L-366.395 1011.89L106.529 1302.88C108.447 1304.06 110.755 1304.42 112.945 1303.9C115.136 1303.38 117.029 1302.01 118.21 1300.09L138.615 1266.84C139.793 1264.92 140.161 1262.61 139.64 1260.42C139.118 1258.23 137.748 1256.33 135.831 1255.15L-91.5551 1115.25C-92.5406 1114.65 -93.3923 1113.85 -94.0584 1112.9C-94.7247 1111.96 -95.1916 1110.89 -95.4299 1109.76C-95.6681 1108.62 -95.673 1107.46 -95.4445 1106.32C-95.216 1105.19 -94.759 1104.11 -94.101 1103.16L238.951 623.646C239.881 622.308 241.176 621.267 242.681 620.646C244.187 620.025 245.839 619.851 247.441 620.145C249.043 620.438 250.526 621.187 251.714 622.302C252.902 623.417 253.743 624.85 254.138 626.43L401.725 1219.48C402.271 1221.66 403.662 1223.54 405.591 1224.7C407.52 1225.86 409.83 1226.21 412.015 1225.67L458.043 1214.2L456.461 1207.78C456.144 1206.45 456.144 1205.07 456.461 1203.73L583.071 680.888C583.444 679.371 584.226 677.986 585.333 676.885C586.44 675.784 587.829 675.009 589.347 674.646C590.865 674.283 592.454 674.344 593.94 674.825C595.425 675.305 596.75 676.185 597.768 677.369L1205.11 1387.44C1205.83 1388.29 1206.71 1388.99 1207.7 1389.5C1208.7 1390 1209.78 1390.31 1210.89 1390.4C1212 1390.49 1213.12 1390.36 1214.18 1390.01C1215.24 1389.67 1216.22 1389.11 1217.06 1388.39L1246.69 1363.03C1248.39 1361.57 1249.45 1359.49 1249.62 1357.25C1249.8 1355.01 1249.07 1352.79 1247.61 1351.08L606.048 601.054C605.174 600.035 604.554 598.822 604.241 597.516C603.928 596.21 603.93 594.848 604.248 593.543L818.14 -289.709C818.67 -291.897 818.31 -294.206 817.139 -296.13C815.968 -298.053 814.083 -299.433 811.896 -299.968L774.03 -309.131C771.842 -309.661 769.533 -309.301 767.61 -308.13C765.688 -306.959 764.308 -305.073 763.774 -302.886L667.495 94.7173C667.177 96.0353 666.548 97.2579 665.66 98.2824C664.772 99.3069 663.652 100.104 662.393 100.606C661.134 101.108 659.773 101.3 658.424 101.167C657.075 101.035 655.778 100.58 654.64 99.8425L92.8572 -262.935C91.0401 -264.097 89.7365 -265.91 89.2145 -268.003L80.8451 -301.187C80.3038 -303.369 78.9181 -305.248 76.9924 -306.409C75.0667 -307.569 72.7589 -307.918 70.5767 -307.377L25.7023 -296.199L24.9482 -296.615L24.568 -295.931L24.5913 -295.736L-329.919 351.392C-332.037 355.262 -335.287 358.392 -339.233 360.364L-874.971 628.482C-876.263 629.129 -877.699 629.436 -879.143 629.373C-880.586 629.311 -881.99 628.882 -883.222 628.126ZM66.7665 237.456L-379.181 928.515C-380.388 930.374 -382.273 931.688 -384.434 932.176C-386.596 932.665 -388.863 932.29 -390.751 931.132L-810.132 673.116C-811.417 672.321 -812.468 671.197 -813.174 669.861C-813.881 668.525 -814.219 667.024 -814.153 665.513C-814.087 664.003 -813.62 662.537 -812.799 661.268C-811.978 659.998 -810.834 658.971 -809.484 658.291L55.8249 225.272C57.4883 224.429 59.3832 224.158 61.2161 224.501C63.049 224.844 64.7178 225.782 65.9639 227.17C67.2102 228.557 67.9639 230.317 68.109 232.177C68.254 234.037 67.7823 235.892 66.7665 237.456ZM-153.721 1076.97L-328.636 969.356C-329.596 968.761 -330.428 967.982 -331.083 967.062C-331.738 966.143 -332.203 965.102 -332.451 964C-332.7 962.899 -332.726 961.759 -332.529 960.647C-332.333 959.535 -331.917 958.474 -331.306 957.525L140.036 227.087C140.937 225.697 142.224 224.6 143.739 223.931C145.255 223.262 146.933 223.051 148.566 223.324C150.2 223.596 151.719 224.34 152.936 225.464C154.153 226.588 155.015 228.043 155.416 229.651L230.738 532.332C231.015 533.514 231.035 534.741 230.797 535.931C230.56 537.122 230.071 538.247 229.363 539.232L-142.325 1074.55C-143.559 1076.33 -145.426 1077.57 -147.543 1078.02C-149.661 1078.47 -151.871 1078.09 -153.721 1076.97ZM215.935 186.446L581.824 320.283C583.326 320.838 584.64 321.806 585.614 323.076C586.589 324.346 587.184 325.866 587.331 327.461C587.478 329.055 587.17 330.658 586.445 332.085C585.719 333.512 584.604 334.704 583.229 335.524L293.303 507.153C292.165 507.828 290.886 508.227 289.566 508.319C288.247 508.411 286.924 508.193 285.704 507.682C284.484 507.171 283.4 506.382 282.54 505.378C281.679 504.373 281.065 503.181 280.747 501.897L204.741 196.435C204.368 194.936 204.412 193.364 204.868 191.888C205.323 190.413 206.172 189.089 207.324 188.061C208.476 187.033 209.888 186.339 211.405 186.055C212.923 185.77 214.489 185.905 215.935 186.446ZM303.182 566.394L577.911 403.67C579.348 402.824 581.002 402.42 582.667 402.508C584.332 402.595 585.934 403.171 587.275 404.162C588.615 405.154 589.635 406.518 590.206 408.085C590.777 409.652 590.876 411.352 590.488 412.974L434.952 1055.15C434.509 1057 433.459 1058.64 431.969 1059.82C430.479 1061 428.636 1061.65 426.736 1061.65C424.836 1061.66 422.989 1061.03 421.491 1059.86C419.993 1058.69 418.931 1057.05 418.476 1055.21L299.186 575.853C298.728 574.067 298.862 572.181 299.567 570.477C300.272 568.773 301.509 567.345 303.095 566.405L303.182 566.394ZM649.321 169.816L625.856 266.723C625.573 267.885 625.049 268.975 624.317 269.92C623.585 270.866 622.662 271.646 621.608 272.211C620.554 272.775 619.393 273.111 618.201 273.196C617.008 273.281 615.811 273.113 614.688 272.703L188.855 116.957C187.544 116.479 186.371 115.684 185.44 114.643C184.509 113.602 183.85 112.348 183.52 110.991L114.961 -164.588C114.555 -166.238 114.653 -167.972 115.241 -169.566C115.83 -171.159 116.883 -172.54 118.264 -173.53C119.645 -174.519 121.29 -175.072 122.988 -175.117C124.686 -175.162 126.359 -174.697 127.791 -173.782L645.678 160.699C647.158 161.65 648.305 163.04 648.958 164.675C649.611 166.309 649.738 168.106 649.321 169.816ZM49.8428 -194.617L127.927 119.202C128.395 121.075 128.211 123.051 127.404 124.804C126.597 126.558 125.217 127.983 123.491 128.846L-220.921 301.202C-222.538 302.013 -224.371 302.286 -226.154 301.981C-227.937 301.675 -229.576 300.808 -230.83 299.504C-232.085 298.201 -232.89 296.531 -233.128 294.737C-233.366 292.944 -233.024 291.121 -232.153 289.536L34.1535 -196.637C34.976 -198.133 36.2297 -199.347 37.7515 -200.12C39.2733 -200.893 40.9927 -201.19 42.6857 -200.972C44.3786 -200.754 45.9666 -200.031 47.2431 -198.898C48.5198 -197.764 49.4256 -196.273 49.8428 -194.617Z" fill="#5CAC72"/>
<circle cx="158" cy="172" r="90" fill="white"/>
<path d="M104.823 176L107.183 176L107.183 164.02L111.483 164.02L111.483 162L100.523 162L100.523 164.02L104.823 164.02L104.823 176ZM111.991 176L114.291 176L114.291 171.86C114.291 168.5 115.691 166.92 117.431 166.92C117.991 166.92 118.451 167.02 118.891 167.18L118.891 164.98C118.531 164.84 118.051 164.76 117.571 164.76C116.211 164.76 114.851 165.56 114.291 166.68L114.291 164.92L111.991 164.92L111.991 176ZM123.379 176.16C124.979 176.16 126.379 175.44 126.879 174.36L126.879 176L129.159 176L129.159 169.02C129.159 166.32 127.179 164.76 124.399 164.76C121.779 164.76 119.859 166.46 119.559 168.74L121.799 168.74C121.959 167.4 122.939 166.6 124.399 166.6C125.859 166.6 126.879 167.4 126.879 168.76L126.879 169.06L124.219 169.36C120.979 169.72 119.539 170.98 119.539 173C119.539 174.94 121.019 176.16 123.379 176.16ZM121.839 172.92C121.839 171.94 122.619 171.28 124.259 171.1L126.879 170.8L126.879 170.88C126.879 173.08 125.559 174.34 123.679 174.34C122.599 174.34 121.839 173.76 121.839 172.92ZM131.62 176L133.92 176L133.92 171.02C133.92 168.24 135.24 166.8 137.1 166.8C138.54 166.8 139.46 167.76 139.46 169.24L139.46 176L141.76 176L141.76 168.68C141.76 166.32 139.98 164.76 137.62 164.76C136.02 164.76 134.58 165.56 133.92 166.6L133.92 164.92L131.62 164.92L131.62 176ZM148.097 176.16C150.557 176.16 152.277 174.8 152.277 172.72C152.277 168.36 146.057 169.92 146.057 167.78C146.057 167.04 146.737 166.58 147.737 166.58C148.917 166.58 149.657 167.14 149.817 168.14L152.037 168.14C151.837 166.02 150.257 164.76 147.717 164.76C145.417 164.76 143.857 166.1 143.857 167.86C143.857 171.92 150.037 170.4 150.037 172.78C150.037 173.7 149.297 174.28 148.097 174.28C146.757 174.28 145.897 173.58 145.797 172.4L143.557 172.4C143.697 174.68 145.477 176.16 148.097 176.16ZM154.238 179.64L156.538 179.64L156.538 174.42C157.238 175.44 158.658 176.16 160.218 176.16C163.378 176.16 165.558 173.92 165.558 170.46C165.558 167 163.378 164.76 160.238 164.76C158.678 164.76 157.238 165.48 156.538 166.52L156.538 164.92L154.238 164.92L154.238 179.64ZM156.538 170.46C156.538 168.24 157.918 166.72 159.878 166.72C161.858 166.72 163.238 168.24 163.238 170.46C163.238 172.68 161.858 174.18 159.878 174.18C157.918 174.18 156.538 172.68 156.538 170.46ZM172.637 176.16C175.937 176.16 178.317 173.8 178.317 170.46C178.317 167.12 175.937 164.76 172.637 164.76C169.337 164.76 166.957 167.12 166.957 170.46C166.957 173.8 169.337 176.16 172.637 176.16ZM169.277 170.46C169.277 168.26 170.657 166.72 172.637 166.72C174.597 166.72 175.997 168.26 175.997 170.46C175.997 172.66 174.597 174.2 172.637 174.2C170.657 174.2 169.277 172.66 169.277 170.46ZM186.072 166.94L186.072 164.8C185.912 164.76 185.792 164.76 185.612 164.76C184.452 164.76 183.212 165.5 182.592 166.68L182.592 164.92L180.292 164.92L180.292 176L182.592 176L182.592 171.86C182.592 168.38 184.152 166.92 185.632 166.92C185.792 166.92 185.932 166.92 186.072 166.94ZM191.853 176.14C192.413 176.14 192.873 176.04 193.293 175.88L193.293 173.94C192.953 174.08 192.513 174.16 192.153 174.16C191.273 174.16 190.673 173.56 190.673 172.44L190.673 166.78L193.133 166.78L193.133 164.92L190.673 164.92L190.673 162.62L188.393 162.62L188.393 164.92L186.753 164.92L186.753 166.78L188.393 166.78L188.393 172.64C188.393 174.92 189.873 176.14 191.853 176.14ZM199.685 176.16C202.545 176.16 204.325 174.5 204.785 172.4L202.425 172.4C202.165 173.52 201.145 174.22 199.685 174.22C197.885 174.22 196.585 173 196.445 170.88L204.825 170.88C205.265 167.44 203.105 164.76 199.625 164.76C196.465 164.76 194.165 167.12 194.165 170.46C194.165 173.8 196.305 176.16 199.685 176.16ZM196.545 169.14C196.905 167.5 198.005 166.6 199.625 166.6C201.285 166.6 202.425 167.58 202.465 169.14L196.545 169.14ZM206.874 176L209.174 176L209.174 171.86C209.174 168.5 210.574 166.92 212.314 166.92C212.874 166.92 213.334 167.02 213.774 167.18L213.774 164.98C213.414 164.84 212.934 164.76 212.454 164.76C211.094 164.76 209.734 165.56 209.174 166.68L209.174 164.92L206.874 164.92L206.874 176ZM218.937 176.16C221.397 176.16 223.117 174.8 223.117 172.72C223.117 168.36 216.897 169.92 216.897 167.78C216.897 167.04 217.577 166.58 218.577 166.58C219.757 166.58 220.497 167.14 220.657 168.14L222.877 168.14C222.677 166.02 221.097 164.76 218.557 164.76C216.257 164.76 214.697 166.1 214.697 167.86C214.697 171.92 220.877 170.4 220.877 172.78C220.877 173.7 220.137 174.28 218.937 174.28C217.597 174.28 216.737 173.58 216.637 172.4L214.397 172.4C214.537 174.68 216.317 176.16 218.937 176.16Z" fill="#003B49"/>
<circle cx="619" cy="332" r="90" fill="white"/>
<path d="M567.258 331L571.798 331C575.638 331 578.858 328.54 578.858 324C578.858 319.44 575.638 317 571.798 317L567.258 317L567.258 331ZM569.618 328.98L569.618 319.02L571.538 319.02C574.278 319.02 576.498 320.68 576.498 324C576.498 327.32 574.278 328.98 571.538 328.98L569.618 328.98ZM580.849 331L583.149 331L583.149 319.92L580.849 319.92L580.849 331ZM580.609 317.16C580.609 317.94 581.209 318.5 582.009 318.5C582.809 318.5 583.409 317.94 583.409 317.16C583.409 316.38 582.809 315.8 582.009 315.8C581.209 315.8 580.609 316.38 580.609 317.16ZM589.591 331.16C592.051 331.16 593.771 329.8 593.771 327.72C593.771 323.36 587.551 324.92 587.551 322.78C587.551 322.04 588.231 321.58 589.231 321.58C590.411 321.58 591.151 322.14 591.311 323.14L593.531 323.14C593.331 321.02 591.751 319.76 589.211 319.76C586.911 319.76 585.351 321.1 585.351 322.86C585.351 326.92 591.531 325.4 591.531 327.78C591.531 328.7 590.791 329.28 589.591 329.28C588.251 329.28 587.391 328.58 587.291 327.4L585.051 327.4C585.191 329.68 586.971 331.16 589.591 331.16ZM599.714 331.14C600.274 331.14 600.734 331.04 601.154 330.88L601.154 328.94C600.814 329.08 600.374 329.16 600.014 329.16C599.134 329.16 598.534 328.56 598.534 327.44L598.534 321.78L600.994 321.78L600.994 319.92L598.534 319.92L598.534 317.62L596.254 317.62L596.254 319.92L594.614 319.92L594.614 321.78L596.254 321.78L596.254 327.64C596.254 329.92 597.734 331.14 599.714 331.14ZM602.822 331L605.122 331L605.122 326.86C605.122 323.5 606.522 321.92 608.262 321.92C608.822 321.92 609.282 322.02 609.722 322.18L609.722 319.98C609.362 319.84 608.882 319.76 608.402 319.76C607.042 319.76 605.682 320.56 605.122 321.68L605.122 319.92L602.822 319.92L602.822 331ZM611.142 331L613.442 331L613.442 319.92L611.142 319.92L611.142 331ZM610.902 317.16C610.902 317.94 611.502 318.5 612.302 318.5C613.102 318.5 613.702 317.94 613.702 317.16C613.702 316.38 613.102 315.8 612.302 315.8C611.502 315.8 610.902 316.38 610.902 317.16ZM622.024 331.16C625.184 331.16 627.364 328.92 627.364 325.46C627.364 322 625.184 319.76 622.044 319.76C620.484 319.76 619.044 320.48 618.344 321.52L618.344 316.84L616.044 316.84L616.044 331L618.344 331L618.344 329.42C619.044 330.44 620.464 331.16 622.024 331.16ZM618.344 325.46C618.344 323.24 619.724 321.72 621.684 321.72C623.664 321.72 625.044 323.24 625.044 325.46C625.044 327.68 623.664 329.18 621.684 329.18C619.724 329.18 618.344 327.68 618.344 325.46ZM633.385 331.16C635.125 331.16 636.485 330.28 637.105 329.18L637.105 331L639.405 331L639.405 319.92L637.105 319.92L637.105 324.7C637.105 327.42 635.905 329.12 633.945 329.12C632.525 329.12 631.545 328.16 631.545 326.56L631.545 319.92L629.245 319.92L629.245 326.96C629.245 329.6 631.025 331.16 633.385 331.16ZM646.081 331.14C646.641 331.14 647.101 331.04 647.521 330.88L647.521 328.94C647.181 329.08 646.741 329.16 646.381 329.16C645.501 329.16 644.901 328.56 644.901 327.44L644.901 321.78L647.361 321.78L647.361 319.92L644.901 319.92L644.901 317.62L642.621 317.62L642.621 319.92L640.981 319.92L640.981 321.78L642.621 321.78L642.621 327.64C642.621 329.92 644.101 331.14 646.081 331.14ZM649.189 331L651.489 331L651.489 319.92L649.189 319.92L649.189 331ZM648.949 317.16C648.949 317.94 649.549 318.5 650.349 318.5C651.149 318.5 651.749 317.94 651.749 317.16C651.749 316.38 651.149 315.8 650.349 315.8C649.549 315.8 648.949 316.38 648.949 317.16ZM659.151 331.16C662.451 331.16 664.831 328.8 664.831 325.46C664.831 322.12 662.451 319.76 659.151 319.76C655.851 319.76 653.471 322.12 653.471 325.46C653.471 328.8 655.851 331.16 659.151 331.16ZM655.791 325.46C655.791 323.26 657.171 321.72 659.151 321.72C661.111 321.72 662.511 323.26 662.511 325.46C662.511 327.66 661.111 329.2 659.151 329.2C657.171 329.2 655.791 327.66 655.791 325.46ZM666.806 331L669.106 331L669.106 326.02C669.106 323.24 670.426 321.8 672.286 321.8C673.726 321.8 674.646 322.76 674.646 324.24L674.646 331L676.946 331L676.946 323.68C676.946 321.32 675.166 319.76 672.806 319.76C671.206 319.76 669.766 320.56 669.106 321.6L669.106 319.92L666.806 319.92L666.806 331ZM599.023 359L601.323 359L601.323 354.04C601.323 351.24 602.643 349.8 604.503 349.8C605.943 349.8 606.863 350.76 606.863 352.24L606.863 359L609.163 359L609.163 351.68C609.163 349.32 607.383 347.76 605.023 347.76C603.423 347.76 602.003 348.56 601.323 349.6L601.323 344.84L599.023 344.84L599.023 359ZM615.66 359.16C617.4 359.16 618.76 358.28 619.38 357.18L619.38 359L621.68 359L621.68 347.92L619.38 347.92L619.38 352.7C619.38 355.42 618.18 357.12 616.22 357.12C614.8 357.12 613.82 356.16 613.82 354.56L613.82 347.92L611.52 347.92L611.52 354.96C611.52 357.6 613.3 359.16 615.66 359.16ZM630.257 359.16C633.417 359.16 635.597 356.92 635.597 353.46C635.597 350 633.417 347.76 630.277 347.76C628.717 347.76 627.277 348.48 626.577 349.52L626.577 344.84L624.277 344.84L624.277 359L626.577 359L626.577 357.42C627.277 358.44 628.697 359.16 630.257 359.16ZM626.577 353.46C626.577 351.24 627.957 349.72 629.917 349.72C631.897 349.72 633.277 351.24 633.277 353.46C633.277 355.68 631.897 357.18 629.917 357.18C627.957 357.18 626.577 355.68 626.577 353.46ZM641.437 359.16C643.897 359.16 645.617 357.8 645.617 355.72C645.617 351.36 639.397 352.92 639.397 350.78C639.397 350.04 640.077 349.58 641.077 349.58C642.257 349.58 642.997 350.14 643.157 351.14L645.377 351.14C645.177 349.02 643.597 347.76 641.057 347.76C638.757 347.76 637.197 349.1 637.197 350.86C637.197 354.92 643.377 353.4 643.377 355.78C643.377 356.7 642.637 357.28 641.437 357.28C640.097 357.28 639.237 356.58 639.137 355.4L636.897 355.4C637.037 357.68 638.817 359.16 641.437 359.16Z" fill="#003B49"/>
<circle cx="583" cy="637" r="90" fill="white"/>
<path d="M536.922 630L542.282 630C543.135 630 543.888 630.167 544.542 630.5C545.195 630.833 545.702 631.307 546.062 631.92C546.435 632.533 546.622 633.233 546.622 634.02C546.622 634.847 546.402 635.587 545.962 636.24C545.522 636.893 544.915 637.373 544.142 637.68L548.002 644L545.262 644L541.762 638.04L539.282 638.04L539.282 644L536.922 644L536.922 630ZM541.882 636.02C542.602 636.02 543.182 635.84 543.622 635.48C544.062 635.107 544.282 634.62 544.282 634.02C544.282 633.42 544.062 632.94 543.622 632.58C543.195 632.207 542.615 632.02 541.882 632.02L539.282 632.02L539.282 636.02L541.882 636.02ZM553.753 644.16C552.647 644.16 551.673 643.92 550.833 643.44C550.007 642.96 549.367 642.287 548.913 641.42C548.46 640.553 548.233 639.567 548.233 638.46C548.233 637.367 548.467 636.387 548.933 635.52C549.4 634.653 550.047 633.98 550.873 633.5C551.713 633.007 552.653 632.76 553.693 632.76C554.733 632.76 555.653 632.987 556.453 633.44C557.253 633.893 557.867 634.52 558.293 635.32C558.733 636.107 558.953 637 558.953 638C558.953 638.28 558.933 638.573 558.893 638.88L550.513 638.88C550.58 639.92 550.907 640.74 551.493 641.34C552.08 641.927 552.833 642.22 553.753 642.22C554.473 642.22 555.073 642.06 555.553 641.74C556.047 641.407 556.36 640.96 556.493 640.4L558.853 640.4C558.613 641.507 558.047 642.413 557.153 643.12C556.26 643.813 555.127 644.16 553.753 644.16ZM556.533 637.14C556.52 636.367 556.253 635.753 555.733 635.3C555.213 634.833 554.533 634.6 553.693 634.6C552.88 634.6 552.207 634.82 551.673 635.26C551.14 635.7 550.787 636.327 550.613 637.14L556.533 637.14ZM565.863 644.16C564.809 644.16 563.863 643.92 563.023 643.44C562.183 642.947 561.523 642.267 561.043 641.4C560.563 640.533 560.323 639.553 560.323 638.46C560.323 637.367 560.563 636.387 561.043 635.52C561.523 634.653 562.183 633.98 563.023 633.5C563.863 633.007 564.809 632.76 565.863 632.76C567.263 632.76 568.416 633.127 569.323 633.86C570.243 634.58 570.783 635.56 570.943 636.8L568.623 636.8C568.489 636.173 568.169 635.673 567.663 635.3C567.169 634.913 566.569 634.72 565.863 634.72C565.249 634.72 564.696 634.88 564.203 635.2C563.723 635.507 563.343 635.947 563.063 636.52C562.783 637.08 562.643 637.727 562.643 638.46C562.643 639.18 562.783 639.827 563.063 640.4C563.343 640.973 563.729 641.42 564.223 641.74C564.716 642.047 565.263 642.2 565.863 642.2C566.609 642.2 567.243 642.007 567.763 641.62C568.296 641.22 568.609 640.713 568.703 640.1L571.043 640.1C570.949 640.873 570.676 641.567 570.223 642.18C569.783 642.793 569.183 643.28 568.423 643.64C567.676 643.987 566.823 644.16 565.863 644.16ZM572.837 632.92L575.137 632.92L575.137 644L572.837 644L572.837 632.92ZM573.997 631.5C573.597 631.5 573.264 631.373 572.997 631.12C572.73 630.867 572.597 630.547 572.597 630.16C572.597 629.773 572.73 629.453 572.997 629.2C573.264 628.933 573.597 628.8 573.997 628.8C574.397 628.8 574.73 628.933 574.997 629.2C575.264 629.453 575.397 629.773 575.397 630.16C575.397 630.547 575.264 630.867 574.997 631.12C574.73 631.373 574.397 631.5 573.997 631.5ZM577.739 632.92L580.039 632.92L580.039 634.52C580.399 634 580.913 633.58 581.579 633.26C582.246 632.927 582.966 632.76 583.739 632.76C584.779 632.76 585.699 632.993 586.499 633.46C587.313 633.927 587.939 634.593 588.379 635.46C588.833 636.327 589.059 637.327 589.059 638.46C589.059 639.593 588.833 640.593 588.379 641.46C587.939 642.327 587.313 642.993 586.499 643.46C585.686 643.927 584.759 644.16 583.719 644.16C582.946 644.16 582.226 644 581.559 643.68C580.906 643.36 580.399 642.94 580.039 642.42L580.039 647.64L577.739 647.64L577.739 632.92ZM580.039 638.46C580.039 639.193 580.179 639.84 580.459 640.4C580.739 640.96 581.133 641.4 581.639 641.72C582.146 642.027 582.726 642.18 583.379 642.18C584.033 642.18 584.613 642.027 585.119 641.72C585.626 641.4 586.019 640.96 586.299 640.4C586.593 639.84 586.739 639.193 586.739 638.46C586.739 637.727 586.593 637.08 586.299 636.52C586.019 635.947 585.626 635.507 585.119 635.2C584.613 634.88 584.033 634.72 583.379 634.72C582.726 634.72 582.146 634.88 581.639 635.2C581.146 635.507 580.753 635.947 580.459 636.52C580.179 637.08 580.039 637.727 580.039 638.46ZM591.079 632.92L593.379 632.92L593.379 644L591.079 644L591.079 632.92ZM592.239 631.5C591.839 631.5 591.506 631.373 591.239 631.12C590.973 630.867 590.839 630.547 590.839 630.16C590.839 629.773 590.973 629.453 591.239 629.2C591.506 628.933 591.839 628.8 592.239 628.8C592.639 628.8 592.973 628.933 593.239 629.2C593.506 629.453 593.639 629.773 593.639 630.16C593.639 630.547 593.506 630.867 593.239 631.12C592.973 631.373 592.639 631.5 592.239 631.5ZM600.902 644.16C599.795 644.16 598.822 643.92 597.982 643.44C597.155 642.96 596.515 642.287 596.062 641.42C595.608 640.553 595.382 639.567 595.382 638.46C595.382 637.367 595.615 636.387 596.082 635.52C596.548 634.653 597.195 633.98 598.022 633.5C598.862 633.007 599.802 632.76 600.842 632.76C601.882 632.76 602.802 632.987 603.602 633.44C604.402 633.893 605.015 634.52 605.442 635.32C605.882 636.107 606.102 637 606.102 638C606.102 638.28 606.082 638.573 606.042 638.88L597.662 638.88C597.728 639.92 598.055 640.74 598.642 641.34C599.228 641.927 599.982 642.22 600.902 642.22C601.622 642.22 602.222 642.06 602.702 641.74C603.195 641.407 603.508 640.96 603.642 640.4L606.002 640.4C605.762 641.507 605.195 642.413 604.302 643.12C603.408 643.813 602.275 644.16 600.902 644.16ZM603.682 637.14C603.668 636.367 603.402 635.753 602.882 635.3C602.362 634.833 601.682 634.6 600.842 634.6C600.028 634.6 599.355 634.82 598.822 635.26C598.288 635.7 597.935 636.327 597.762 637.14L603.682 637.14ZM608.091 632.92L610.391 632.92L610.391 634.6C610.724 634.067 611.224 633.627 611.891 633.28C612.571 632.933 613.304 632.76 614.091 632.76C614.878 632.76 615.584 632.927 616.211 633.26C616.838 633.58 617.331 634.04 617.691 634.64C618.051 635.227 618.231 635.907 618.231 636.68L618.231 644L615.931 644L615.931 637.24C615.931 636.493 615.718 635.9 615.291 635.46C614.864 635.02 614.291 634.8 613.571 634.8C612.611 634.8 611.838 635.167 611.251 635.9C610.678 636.633 610.391 637.673 610.391 639.02L610.391 644L608.091 644L608.091 632.92ZM624.691 644.14C623.664 644.14 622.831 643.833 622.191 643.22C621.551 642.607 621.231 641.747 621.231 640.64L621.231 634.78L619.591 634.78L619.591 632.92L621.231 632.92L621.231 630.62L623.511 630.62L623.511 632.92L625.971 632.92L625.971 634.78L623.511 634.78L623.511 640.44C623.511 640.987 623.644 641.413 623.911 641.72C624.177 642.013 624.537 642.16 624.991 642.16C625.391 642.16 625.771 642.087 626.131 641.94L626.131 643.88C625.677 644.053 625.197 644.14 624.691 644.14ZM631.638 644.16C630.331 644.16 629.265 643.82 628.438 643.14C627.611 642.46 627.165 641.547 627.098 640.4L629.338 640.4C629.391 640.987 629.618 641.447 630.018 641.78C630.431 642.113 630.971 642.28 631.638 642.28C632.238 642.28 632.711 642.147 633.058 641.88C633.405 641.613 633.578 641.247 633.578 640.78C633.578 640.313 633.371 639.973 632.958 639.76C632.558 639.533 631.938 639.32 631.098 639.12C630.298 638.907 629.651 638.7 629.158 638.5C628.678 638.3 628.265 637.987 627.918 637.56C627.571 637.133 627.398 636.567 627.398 635.86C627.398 635.273 627.558 634.747 627.878 634.28C628.211 633.813 628.671 633.447 629.258 633.18C629.845 632.9 630.511 632.76 631.258 632.76C632.525 632.76 633.531 633.06 634.278 633.66C635.038 634.247 635.471 635.073 635.578 636.14L633.358 636.14C633.278 635.633 633.058 635.247 632.698 634.98C632.338 634.713 631.865 634.58 631.278 634.58C630.771 634.58 630.365 634.687 630.058 634.9C629.751 635.113 629.598 635.407 629.598 635.78C629.598 636.18 629.778 636.473 630.138 636.66C630.511 636.847 631.098 637.033 631.898 637.22C632.711 637.407 633.378 637.607 633.898 637.82C634.418 638.033 634.865 638.373 635.238 638.84C635.625 639.307 635.818 639.933 635.818 640.72C635.818 641.4 635.638 642 635.278 642.52C634.931 643.04 634.438 643.447 633.798 643.74C633.171 644.02 632.451 644.16 631.638 644.16Z" fill="#003B49"/>
<ellipse cx="248.002" cy="561.956" rx="90.002" ry="90.9558" fill="white"/>
<path d="M205.243 544.622L206.142 542.183L205.162 542.182L203.743 544.682C203.543 545.042 203.383 545.422 203.383 545.842C203.384 546.602 203.944 547.182 204.764 547.182C205.584 547.183 206.124 546.623 206.123 545.823C206.123 545.183 205.783 544.743 205.243 544.622ZM208.431 556.704L217.571 556.708L217.57 554.688L210.79 554.685L210.784 542.705L208.424 542.704L208.431 556.704ZM222.375 556.871C223.975 556.871 225.374 556.152 225.874 555.072L225.875 556.712L228.155 556.713L228.151 549.733C228.15 547.033 226.169 545.473 223.389 545.471C220.769 545.47 218.85 547.169 218.551 549.449L220.791 549.45C220.951 548.11 221.93 547.31 223.39 547.311C224.85 547.312 225.871 548.112 225.871 549.472L225.871 549.772L223.211 550.071C219.972 550.43 218.532 551.689 218.533 553.709C218.534 555.649 220.015 556.87 222.375 556.871ZM220.833 553.63C220.833 552.65 221.612 551.99 223.252 551.811L225.872 551.512L225.872 551.592C225.873 553.792 224.554 555.052 222.674 555.051C221.594 555.05 220.834 554.47 220.833 553.63ZM234.456 556.876C236.916 556.878 238.636 555.519 238.635 553.439C238.633 549.079 232.413 550.636 232.412 548.496C232.412 547.756 233.092 547.296 234.092 547.296C235.272 547.297 236.012 547.857 236.172 548.857L238.392 548.858C238.191 546.738 236.611 545.478 234.071 545.476C231.771 545.475 230.211 546.814 230.212 548.574C230.214 552.634 236.394 551.117 236.395 553.497C236.395 554.417 235.655 554.997 234.455 554.996C233.115 554.996 232.255 554.295 232.154 553.115L229.914 553.114C230.056 555.394 231.836 556.875 234.456 556.876ZM244.579 556.861C245.139 556.862 245.599 556.762 246.019 556.602L246.018 554.662C245.678 554.802 245.238 554.882 244.878 554.882C243.998 554.881 243.398 554.281 243.397 553.161L243.395 547.501L245.855 547.502L245.854 545.642L243.394 545.641L243.393 543.341L241.113 543.34L241.114 545.64L239.474 545.639L239.475 547.499L241.115 547.5L241.117 553.36C241.118 555.64 242.599 556.86 244.579 556.861ZM265.078 545.491C263.578 545.491 262.078 546.25 261.199 547.749C260.658 546.289 259.378 545.488 257.738 545.488C256.158 545.487 254.838 546.326 254.279 547.306L254.278 545.646L251.978 545.645L251.983 556.725L254.283 556.726L254.281 551.906C254.28 549.146 255.379 547.527 257.139 547.527C258.479 547.528 259.299 548.488 259.3 549.948L259.303 556.728L261.603 556.73L261.601 551.91C261.6 549.17 262.699 547.53 264.459 547.531C265.799 547.532 266.639 548.492 266.64 549.952L266.643 556.732L268.943 556.733L268.94 549.413C268.939 547.053 267.318 545.492 265.078 545.491ZM271.417 556.734L273.717 556.735L273.712 545.655L271.412 545.654L271.417 556.734ZM271.17 542.894C271.171 543.674 271.771 544.234 272.571 544.235C273.371 544.235 273.971 543.676 273.97 542.896C273.97 542.116 273.37 541.535 272.57 541.535C271.77 541.534 271.17 542.114 271.17 542.894ZM276.319 556.737L278.619 556.738L278.613 542.578L276.313 542.577L276.319 556.737ZM286.142 556.901C289.002 556.903 290.781 555.244 291.24 553.144L288.88 553.143C288.62 554.263 287.601 554.962 286.141 554.961C284.341 554.96 283.04 553.74 282.899 551.62L291.279 551.624C291.718 548.184 289.556 545.503 286.076 545.501C282.916 545.5 280.617 547.859 280.619 551.199C280.621 554.539 282.762 556.9 286.142 556.901ZM282.998 549.88C283.358 548.24 284.457 547.341 286.077 547.341C287.737 547.342 288.878 548.323 288.918 549.883L282.998 549.88ZM293.336 544.725L292.437 547.164L293.417 547.165L294.836 544.666C295.036 544.306 295.196 543.926 295.195 543.506C295.195 542.746 294.635 542.165 293.815 542.165C292.995 542.165 292.455 542.724 292.455 543.524C292.456 544.164 292.796 544.605 293.336 544.725ZM214.886 584.867C217.826 584.868 219.805 583.129 220.064 580.81L217.724 580.808C217.544 582.008 216.405 582.908 214.885 582.907C213.065 582.906 211.664 581.386 211.663 579.166C211.662 576.946 213.041 575.426 214.881 575.427C216.301 575.428 217.381 576.268 217.642 577.508L219.962 577.51C219.641 575.009 217.66 573.468 214.88 573.467C211.68 573.466 209.341 575.824 209.343 579.164C209.344 582.484 211.686 584.866 214.886 584.867ZM226.92 584.873C230.22 584.874 232.599 582.516 232.597 579.176C232.596 575.836 230.215 573.474 226.915 573.473C223.615 573.471 221.236 575.83 221.237 579.17C221.239 582.51 223.62 584.871 226.92 584.873ZM223.557 579.171C223.556 576.971 224.936 575.432 226.916 575.433C228.876 575.434 230.276 576.974 230.277 579.174C230.278 581.374 228.879 582.914 226.919 582.913C224.939 582.912 223.558 581.371 223.557 579.171ZM238.595 584.878C240.335 584.879 241.694 584 242.314 582.9L242.315 584.72L244.615 584.721L244.61 573.641L242.31 573.64L242.312 578.42C242.313 581.14 241.114 582.84 239.154 582.839C237.734 582.838 236.753 581.878 236.753 580.278L236.75 573.638L234.45 573.636L234.453 580.676C234.454 583.316 236.235 584.877 238.595 584.878ZM247.212 584.723L249.512 584.724L249.51 580.584C249.508 577.224 250.907 575.644 252.647 575.645C253.207 575.646 253.667 575.746 254.107 575.906L254.106 573.706C253.746 573.566 253.266 573.486 252.786 573.485C251.426 573.485 250.067 574.284 249.507 575.404L249.506 573.644L247.206 573.643L247.212 584.723ZM255.532 584.727L257.832 584.728L257.827 573.648L255.527 573.647L255.532 584.727ZM255.285 570.887C255.286 571.667 255.886 572.227 256.686 572.227C257.486 572.228 258.086 571.668 258.085 570.888C258.085 570.108 257.485 569.528 256.685 569.527C255.885 569.527 255.285 570.107 255.285 570.887ZM265.354 584.891C268.214 584.893 269.993 583.234 270.452 581.134L268.092 581.133C267.833 582.253 266.813 582.952 265.353 582.951C263.553 582.95 262.253 581.73 262.112 579.61L270.492 579.614C270.93 576.174 268.769 573.493 265.289 573.491C262.129 573.49 259.83 575.849 259.832 579.189C259.833 582.529 261.974 584.89 265.354 584.891ZM262.211 577.87C262.57 576.23 263.67 575.331 265.29 575.331C266.95 575.332 268.09 576.313 268.131 577.873L262.211 577.87ZM272.544 584.735L274.844 584.736L274.842 580.596C274.84 577.236 276.239 575.657 277.979 575.657C278.539 575.658 278.999 575.758 279.439 575.918L279.438 573.718C279.078 573.578 278.598 573.498 278.118 573.497C276.758 573.497 275.399 574.296 274.839 575.416L274.838 573.656L272.538 573.655L272.544 584.735ZM284.606 584.901C287.066 584.902 288.786 583.543 288.785 581.463C288.783 577.103 282.563 578.66 282.562 576.52C282.562 575.78 283.242 575.32 284.242 575.32C285.422 575.321 286.162 575.881 286.322 576.881L288.542 576.883C288.341 574.762 286.761 573.502 284.221 573.5C281.921 573.499 280.362 574.839 280.362 576.599C280.364 580.659 286.544 579.142 286.545 581.522C286.545 582.442 285.805 583.021 284.605 583.021C283.265 583.02 282.405 582.32 282.305 581.14L280.065 581.138C280.206 583.418 281.986 584.899 284.606 584.901Z" fill="#003B49"/>
</g>
</g>
<defs>
<clipPath id="clip0_13_124">
<rect width="2252.8" height="1821.34" fill="white" transform="translate(-70.6833 -494.745) rotate(-2.59388)"/>
</clipPath>
</defs>
</svg>
