<svg width="390" height="576" viewBox="0 0 390 576" fill="none" xmlns="http://www.w3.org/2000/svg">
<mask id="mask0_67_137" style="mask-type:alpha" maskUnits="userSpaceOnUse" x="0" y="0" width="390" height="576">
<rect width="390" height="576" fill="#D9D9D9"/>
</mask>
<g mask="url(#mask0_67_137)">
<path d="M186.131 672.011L237.562 742.664C238.056 743.342 238.256 744.186 238.119 745.009C237.982 745.833 237.518 746.57 236.831 747.056L224.891 755.494C224.202 755.981 223.345 756.179 222.508 756.044C221.672 755.908 220.923 755.451 220.428 754.772L34.7661 499.805L27.9657 490.883L28.1705 490.738L-93.7792 323.272C-94.2731 322.593 -94.4735 321.747 -94.3362 320.922C-94.199 320.097 -93.7355 319.36 -93.0473 318.872L-81.1073 310.434C-80.4183 309.947 -79.5614 309.749 -78.7248 309.884C-77.8882 310.02 -77.1401 310.477 -76.6449 311.156L-18.0145 391.675C-17.7611 392.024 -17.4382 392.319 -17.0655 392.54C-16.6928 392.762 -16.2782 392.907 -15.8469 392.965C-15.4157 393.023 -14.9769 392.994 -14.5574 392.88C-14.1379 392.765 -13.7465 392.567 -13.4072 392.298L157.708 256.249C158.186 255.87 158.542 255.362 158.735 254.788C158.928 254.214 158.949 253.597 158.795 253.012C158.642 252.426 158.321 251.897 157.871 251.486C157.42 251.076 156.86 250.802 156.256 250.698L-70.3842 211.727C-71.2189 211.582 -71.9614 211.117 -72.4487 210.433C-72.9359 209.749 -73.1283 208.903 -72.9835 208.079L-69.9117 190.728L-67.4608 191.143C-66.9523 191.226 -66.4314 191.189 -65.94 191.036L126.983 130.305C127.543 130.127 128.042 129.8 128.426 129.361C128.809 128.922 129.063 128.387 129.159 127.815C129.254 127.243 129.189 126.656 128.968 126.119C128.748 125.581 128.382 125.114 127.91 124.768L-155.003 -81.3953C-155.341 -81.6398 -155.627 -81.9479 -155.845 -82.3018C-156.062 -82.6557 -156.206 -83.0485 -156.269 -83.4575C-156.332 -83.8666 -156.312 -84.2839 -156.211 -84.6854C-156.11 -85.0869 -155.929 -85.4647 -155.679 -85.7972L-146.953 -97.4405C-146.45 -98.1113 -145.697 -98.5576 -144.86 -98.6812C-144.023 -98.8048 -143.17 -98.5955 -142.49 -98.0995L156.343 119.682C156.749 119.979 157.221 120.176 157.72 120.257C158.219 120.339 158.73 120.302 159.212 120.15L485.12 17.5521C485.927 17.298 486.804 17.3703 487.558 17.753C488.311 18.1357 488.88 18.7975 489.14 19.5933L493.596 33.3763C493.854 34.1726 493.78 35.0373 493.392 35.7804C493.004 36.5236 492.333 37.0845 491.526 37.3402L344.816 83.523C344.329 83.6756 343.887 83.941 343.526 84.2969C343.166 84.6528 342.896 85.0889 342.742 85.5685C342.587 86.0482 342.551 86.5573 342.637 87.0534C342.723 87.5495 342.929 88.0181 343.236 88.4198L494.524 286.899C495.009 287.542 495.725 287.976 496.525 288.114L509.209 290.336C510.043 290.479 510.786 290.942 511.273 291.625C511.761 292.307 511.954 293.153 511.809 293.976L508.816 310.893L508.992 311.161L508.746 311.32L508.672 311.316L275.196 459.749C273.8 460.636 272.712 461.923 272.077 463.436L185.776 668.964C185.568 669.46 185.491 670 185.553 670.533C185.615 671.066 185.814 671.575 186.131 672.011ZM307.336 309.805L59.8179 493.268C59.1524 493.764 58.7097 494.497 58.5842 495.311C58.4587 496.124 58.6603 496.954 59.1459 497.623L167.277 646.13C167.61 646.585 168.06 646.944 168.581 647.17C169.102 647.397 169.674 647.482 170.24 647.418C170.805 647.354 171.343 647.142 171.798 646.804C172.252 646.466 172.607 646.015 172.826 645.497L312.204 313.535C312.476 312.897 312.527 312.188 312.349 311.518C312.171 310.848 311.774 310.255 311.22 309.83C310.665 309.405 309.984 309.173 309.282 309.168C308.58 309.164 307.896 309.387 307.336 309.805ZM-1.97159 413.688L43.1268 475.627C43.3759 475.967 43.691 476.254 44.0539 476.473C44.4167 476.691 44.82 476.836 45.2402 476.899C45.6605 476.962 46.0892 476.941 46.5014 476.839C46.9135 476.737 47.3009 476.554 47.6409 476.303L309.263 282.392C309.761 282.022 310.139 281.516 310.349 280.937C310.559 280.358 310.594 279.731 310.448 279.133C310.302 278.535 309.982 277.992 309.527 277.571C309.072 277.15 308.503 276.869 307.888 276.763L192.216 256.875C191.764 256.804 191.303 256.829 190.863 256.948C190.422 257.067 190.013 257.278 189.662 257.567L-1.3688 409.403C-2.00372 409.907 -2.41966 410.631 -2.53167 411.428C-2.64366 412.224 -2.44337 413.032 -1.97159 413.688ZM322.487 253.204L262.418 121.224C262.169 120.682 261.771 120.221 261.268 119.894C260.764 119.567 260.178 119.386 259.575 119.374C258.973 119.362 258.379 119.518 257.863 119.825C257.346 120.132 256.929 120.576 256.658 121.107L199.992 233.035C199.769 233.474 199.653 233.959 199.654 234.45C199.655 234.941 199.772 235.425 199.997 235.863C200.221 236.302 200.547 236.682 200.947 236.975C201.347 237.267 201.811 237.463 202.302 237.546L319.037 257.615C319.61 257.713 320.199 257.655 320.741 257.448C321.283 257.24 321.757 256.89 322.112 256.436C322.467 255.982 322.69 255.441 322.756 254.872C322.822 254.302 322.729 253.726 322.487 253.204ZM177.483 230.944L231.213 124.88C231.492 124.325 231.599 123.702 231.521 123.088C231.444 122.473 231.185 121.895 230.777 121.425C230.368 120.955 229.829 120.613 229.225 120.443C228.621 120.273 227.98 120.281 227.382 120.468L-9.57221 195.071C-10.2543 195.284 -10.8442 195.717 -11.2472 196.3C-11.6501 196.883 -11.8427 197.582 -11.7941 198.286C-11.7456 198.99 -11.4585 199.658 -10.9792 200.182C-10.4999 200.705 -9.85605 201.055 -9.15094 201.175L174.038 232.674C174.721 232.796 175.426 232.697 176.046 232.391C176.667 232.084 177.171 231.588 177.481 230.976L177.483 230.944ZM317.105 92.2418L281.347 103.498C280.919 103.633 280.524 103.856 280.188 104.152C279.853 104.448 279.585 104.811 279.401 105.216C279.217 105.621 279.123 106.06 279.123 106.504C279.123 106.948 279.218 107.387 279.402 107.792L349.306 261.396C349.521 261.869 349.85 262.282 350.266 262.599C350.682 262.916 351.171 263.127 351.689 263.214L457.004 281.315C457.634 281.421 458.282 281.339 458.865 281.079C459.448 280.819 459.938 280.392 460.272 279.855C460.607 279.317 460.77 278.693 460.742 278.063C460.713 277.433 460.494 276.825 460.112 276.32L320.626 93.3498C320.229 92.8268 319.676 92.439 319.045 92.2403C318.414 92.0417 317.736 92.0423 317.105 92.2418ZM470.026 304.639L350.097 284.022C349.382 283.898 348.644 284.019 348.008 284.364C347.371 284.709 346.873 285.258 346.595 285.921L291.118 418.049C290.857 418.669 290.803 419.356 290.966 420.008C291.128 420.66 291.498 421.244 292.021 421.674C292.544 422.105 293.193 422.359 293.873 422.399C294.553 422.44 295.228 422.265 295.8 421.9L471.205 310.397C471.745 310.053 472.167 309.556 472.416 308.972C472.666 308.388 472.731 307.743 472.604 307.122C472.477 306.501 472.163 305.932 471.703 305.489C471.243 305.046 470.659 304.75 470.026 304.639Z" fill="#5CAC72"/>
<ellipse cx="133.5" cy="121.223" rx="58.5" ry="57.7067" fill="white"/>
<path d="M95.9759 126.839L97.6279 126.839L97.6279 118.453L100.638 118.453L100.638 117.039L92.9659 117.039L92.9659 118.453L95.9759 118.453L95.9759 126.839ZM100.994 126.839L102.604 126.839L102.604 123.941C102.604 121.589 103.584 120.483 104.802 120.483C105.194 120.483 105.516 120.553 105.824 120.665L105.824 119.125C105.572 119.027 105.236 118.971 104.9 118.971C103.948 118.971 102.996 119.531 102.604 120.315L102.604 119.083L100.994 119.083L100.994 126.839ZM108.965 126.951C110.085 126.951 111.065 126.447 111.415 125.691L111.415 126.839L113.011 126.839L113.011 121.953C113.011 120.063 111.625 118.971 109.679 118.971C107.845 118.971 106.501 120.161 106.291 121.757L107.859 121.757C107.971 120.819 108.657 120.259 109.679 120.259C110.701 120.259 111.415 120.819 111.415 121.771L111.415 121.981L109.553 122.191C107.285 122.443 106.277 123.325 106.277 124.739C106.277 126.097 107.313 126.951 108.965 126.951ZM107.887 124.683C107.887 123.997 108.433 123.535 109.581 123.409L111.415 123.199L111.415 123.255C111.415 124.795 110.491 125.677 109.175 125.677C108.419 125.677 107.887 125.271 107.887 124.683ZM114.734 126.839L116.344 126.839L116.344 123.353C116.344 121.407 117.268 120.399 118.57 120.399C119.578 120.399 120.222 121.071 120.222 122.107L120.222 126.839L121.832 126.839L121.832 121.715C121.832 120.063 120.586 118.971 118.934 118.971C117.814 118.971 116.806 119.531 116.344 120.259L116.344 119.083L114.734 119.083L114.734 126.839ZM126.268 126.951C127.99 126.951 129.194 125.999 129.194 124.543C129.194 121.491 124.84 122.583 124.84 121.085C124.84 120.567 125.316 120.245 126.016 120.245C126.842 120.245 127.36 120.637 127.472 121.337L129.026 121.337C128.886 119.853 127.78 118.971 126.002 118.971C124.392 118.971 123.3 119.909 123.3 121.141C123.3 123.983 127.626 122.919 127.626 124.585C127.626 125.229 127.108 125.635 126.268 125.635C125.33 125.635 124.728 125.145 124.658 124.319L123.09 124.319C123.188 125.915 124.434 126.951 126.268 126.951ZM130.566 129.387L132.176 129.387L132.176 125.733C132.666 126.447 133.66 126.951 134.752 126.951C136.964 126.951 138.49 125.383 138.49 122.961C138.49 120.539 136.964 118.971 134.766 118.971C133.674 118.971 132.666 119.475 132.176 120.203L132.176 119.083L130.566 119.083L130.566 129.387ZM132.176 122.961C132.176 121.407 133.142 120.343 134.514 120.343C135.9 120.343 136.866 121.407 136.866 122.961C136.866 124.515 135.9 125.565 134.514 125.565C133.142 125.565 132.176 124.515 132.176 122.961ZM143.446 126.951C145.756 126.951 147.422 125.299 147.422 122.961C147.422 120.623 145.756 118.971 143.446 118.971C141.136 118.971 139.47 120.623 139.47 122.961C139.47 125.299 141.136 126.951 143.446 126.951ZM141.094 122.961C141.094 121.421 142.06 120.343 143.446 120.343C144.818 120.343 145.798 121.421 145.798 122.961C145.798 124.501 144.818 125.579 143.446 125.579C142.06 125.579 141.094 124.501 141.094 122.961ZM152.851 120.497L152.851 118.999C152.739 118.971 152.655 118.971 152.529 118.971C151.717 118.971 150.849 119.489 150.415 120.315L150.415 119.083L148.805 119.083L148.805 126.839L150.415 126.839L150.415 123.941C150.415 121.505 151.507 120.483 152.543 120.483C152.655 120.483 152.753 120.483 152.851 120.497ZM156.897 126.937C157.289 126.937 157.611 126.867 157.905 126.755L157.905 125.397C157.667 125.495 157.359 125.551 157.107 125.551C156.491 125.551 156.071 125.131 156.071 124.347L156.071 120.385L157.793 120.385L157.793 119.083L156.071 119.083L156.071 117.473L154.475 117.473L154.475 119.083L153.327 119.083L153.327 120.385L154.475 120.385L154.475 124.487C154.475 126.083 155.511 126.937 156.897 126.937ZM162.379 126.951C164.381 126.951 165.627 125.789 165.949 124.319L164.297 124.319C164.115 125.103 163.401 125.593 162.379 125.593C161.119 125.593 160.209 124.739 160.111 123.255L165.977 123.255C166.285 120.847 164.773 118.971 162.337 118.971C160.125 118.971 158.515 120.623 158.515 122.961C158.515 125.299 160.013 126.951 162.379 126.951ZM160.181 122.037C160.433 120.889 161.203 120.259 162.337 120.259C163.499 120.259 164.297 120.945 164.325 122.037L160.181 122.037ZM167.412 126.839L169.022 126.839L169.022 123.941C169.022 121.589 170.002 120.483 171.22 120.483C171.612 120.483 171.934 120.553 172.242 120.665L172.242 119.125C171.99 119.027 171.654 118.971 171.318 118.971C170.366 118.971 169.414 119.531 169.022 120.315L169.022 119.083L167.412 119.083L167.412 126.839ZM175.856 126.951C177.578 126.951 178.782 125.999 178.782 124.543C178.782 121.491 174.428 122.583 174.428 121.085C174.428 120.567 174.904 120.245 175.604 120.245C176.43 120.245 176.948 120.637 177.06 121.337L178.614 121.337C178.474 119.853 177.368 118.971 175.59 118.971C173.98 118.971 172.888 119.909 172.888 121.141C172.888 123.983 177.214 122.919 177.214 124.585C177.214 125.229 176.696 125.635 175.856 125.635C174.918 125.635 174.316 125.145 174.246 124.319L172.678 124.319C172.776 125.915 174.022 126.951 175.856 126.951Z" fill="#003B49"/>
<ellipse cx="324.5" cy="273.135" rx="58.5" ry="57.7067" fill="white"/>
<path d="M288.18 272.832L291.358 272.832C294.046 272.832 296.3 271.11 296.3 267.932C296.3 264.74 294.046 263.032 291.358 263.032L288.18 263.032L288.18 272.832ZM289.832 271.418L289.832 264.446L291.176 264.446C293.094 264.446 294.648 265.608 294.648 267.932C294.648 270.256 293.094 271.418 291.176 271.418L289.832 271.418ZM297.694 272.832L299.304 272.832L299.304 265.076L297.694 265.076L297.694 272.832ZM297.526 263.144C297.526 263.69 297.946 264.082 298.506 264.082C299.066 264.082 299.486 263.69 299.486 263.144C299.486 262.598 299.066 262.192 298.506 262.192C297.946 262.192 297.526 262.598 297.526 263.144ZM303.814 272.944C305.536 272.944 306.74 271.992 306.74 270.536C306.74 267.484 302.386 268.576 302.386 267.078C302.386 266.56 302.862 266.238 303.562 266.238C304.388 266.238 304.906 266.63 305.018 267.33L306.572 267.33C306.432 265.846 305.326 264.964 303.548 264.964C301.938 264.964 300.846 265.902 300.846 267.134C300.846 269.976 305.172 268.912 305.172 270.578C305.172 271.222 304.654 271.628 303.814 271.628C302.876 271.628 302.274 271.138 302.204 270.312L300.636 270.312C300.734 271.908 301.98 272.944 303.814 272.944ZM310.9 272.93C311.292 272.93 311.614 272.86 311.908 272.748L311.908 271.39C311.67 271.488 311.362 271.544 311.11 271.544C310.494 271.544 310.074 271.124 310.074 270.34L310.074 266.378L311.796 266.378L311.796 265.076L310.074 265.076L310.074 263.466L308.478 263.466L308.478 265.076L307.33 265.076L307.33 266.378L308.478 266.378L308.478 270.48C308.478 272.076 309.514 272.93 310.9 272.93ZM313.075 272.832L314.685 272.832L314.685 269.934C314.685 267.582 315.665 266.476 316.883 266.476C317.275 266.476 317.597 266.546 317.905 266.658L317.905 265.118C317.653 265.02 317.317 264.964 316.981 264.964C316.029 264.964 315.077 265.524 314.685 266.308L314.685 265.076L313.075 265.076L313.075 272.832ZM318.899 272.832L320.509 272.832L320.509 265.076L318.899 265.076L318.899 272.832ZM318.731 263.144C318.731 263.69 319.151 264.082 319.711 264.082C320.271 264.082 320.691 263.69 320.691 263.144C320.691 262.598 320.271 262.192 319.711 262.192C319.151 262.192 318.731 262.598 318.731 263.144ZM326.517 272.944C328.729 272.944 330.255 271.376 330.255 268.954C330.255 266.532 328.729 264.964 326.531 264.964C325.439 264.964 324.431 265.468 323.941 266.196L323.941 262.92L322.331 262.92L322.331 272.832L323.941 272.832L323.941 271.726C324.431 272.44 325.425 272.944 326.517 272.944ZM323.941 268.954C323.941 267.4 324.907 266.336 326.279 266.336C327.665 266.336 328.631 267.4 328.631 268.954C328.631 270.508 327.665 271.558 326.279 271.558C324.907 271.558 323.941 270.508 323.941 268.954ZM334.469 272.944C335.687 272.944 336.639 272.328 337.073 271.558L337.073 272.832L338.683 272.832L338.683 265.076L337.073 265.076L337.073 268.422C337.073 270.326 336.233 271.516 334.861 271.516C333.867 271.516 333.181 270.844 333.181 269.724L333.181 265.076L331.571 265.076L331.571 270.004C331.571 271.852 332.817 272.944 334.469 272.944ZM343.357 272.93C343.749 272.93 344.071 272.86 344.365 272.748L344.365 271.39C344.127 271.488 343.819 271.544 343.567 271.544C342.951 271.544 342.531 271.124 342.531 270.34L342.531 266.378L344.253 266.378L344.253 265.076L342.531 265.076L342.531 263.466L340.935 263.466L340.935 265.076L339.787 265.076L339.787 266.378L340.935 266.378L340.935 270.48C340.935 272.076 341.971 272.93 343.357 272.93ZM345.532 272.832L347.142 272.832L347.142 265.076L345.532 265.076L345.532 272.832ZM345.364 263.144C345.364 263.69 345.784 264.082 346.344 264.082C346.904 264.082 347.324 263.69 347.324 263.144C347.324 262.598 346.904 262.192 346.344 262.192C345.784 262.192 345.364 262.598 345.364 263.144ZM352.506 272.944C354.816 272.944 356.482 271.292 356.482 268.954C356.482 266.616 354.816 264.964 352.506 264.964C350.196 264.964 348.53 266.616 348.53 268.954C348.53 271.292 350.196 272.944 352.506 272.944ZM350.154 268.954C350.154 267.414 351.12 266.336 352.506 266.336C353.878 266.336 354.858 267.414 354.858 268.954C354.858 270.494 353.878 271.572 352.506 271.572C351.12 271.572 350.154 270.494 350.154 268.954ZM357.864 272.832L359.474 272.832L359.474 269.346C359.474 267.4 360.398 266.392 361.7 266.392C362.708 266.392 363.352 267.064 363.352 268.1L363.352 272.832L364.962 272.832L364.962 267.708C364.962 266.056 363.716 264.964 362.064 264.964C360.944 264.964 359.936 265.524 359.474 266.252L359.474 265.076L357.864 265.076L357.864 272.832ZM310.416 290.832L312.026 290.832L312.026 287.36C312.026 285.4 312.95 284.392 314.252 284.392C315.26 284.392 315.904 285.064 315.904 286.1L315.904 290.832L317.514 290.832L317.514 285.708C317.514 284.056 316.268 282.964 314.616 282.964C313.496 282.964 312.502 283.524 312.026 284.252L312.026 280.92L310.416 280.92L310.416 290.832ZM322.062 290.944C323.28 290.944 324.232 290.328 324.666 289.558L324.666 290.832L326.276 290.832L326.276 283.076L324.666 283.076L324.666 286.422C324.666 288.326 323.826 289.516 322.454 289.516C321.46 289.516 320.774 288.844 320.774 287.724L320.774 283.076L319.164 283.076L319.164 288.004C319.164 289.852 320.41 290.944 322.062 290.944ZM332.28 290.944C334.492 290.944 336.018 289.376 336.018 286.954C336.018 284.532 334.492 282.964 332.294 282.964C331.202 282.964 330.194 283.468 329.704 284.196L329.704 280.92L328.094 280.92L328.094 290.832L329.704 290.832L329.704 289.726C330.194 290.44 331.188 290.944 332.28 290.944ZM329.704 286.954C329.704 285.4 330.67 284.336 332.042 284.336C333.428 284.336 334.394 285.4 334.394 286.954C334.394 288.508 333.428 289.558 332.042 289.558C330.67 289.558 329.704 288.508 329.704 286.954ZM340.106 290.944C341.828 290.944 343.032 289.992 343.032 288.536C343.032 285.484 338.678 286.576 338.678 285.078C338.678 284.56 339.154 284.238 339.854 284.238C340.68 284.238 341.198 284.63 341.31 285.33L342.864 285.33C342.724 283.846 341.618 282.964 339.84 282.964C338.23 282.964 337.138 283.902 337.138 285.134C337.138 287.976 341.464 286.912 341.464 288.578C341.464 289.222 340.946 289.628 340.106 289.628C339.168 289.628 338.566 289.138 338.496 288.312L336.928 288.312C337.026 289.908 338.272 290.944 340.106 290.944Z" fill="#003B49"/>
<ellipse cx="268" cy="446.748" rx="59" ry="57.7067" fill="white"/>
<path d="M235.145 441.577L238.897 441.577C239.494 441.577 240.022 441.694 240.479 441.927C240.936 442.16 241.291 442.492 241.543 442.921C241.804 443.35 241.935 443.84 241.935 444.391C241.935 444.97 241.781 445.488 241.473 445.945C241.165 446.402 240.74 446.738 240.199 446.953L242.901 451.377L240.983 451.377L238.533 447.205L236.797 447.205L236.797 451.377L235.145 451.377L235.145 441.577ZM238.617 445.791C239.121 445.791 239.527 445.665 239.835 445.413C240.143 445.152 240.297 444.811 240.297 444.391C240.297 443.971 240.143 443.635 239.835 443.383C239.536 443.122 239.13 442.991 238.617 442.991L236.797 442.991L236.797 445.791L238.617 445.791ZM246.927 451.489C246.153 451.489 245.471 451.321 244.883 450.985C244.305 450.649 243.857 450.178 243.539 449.571C243.222 448.964 243.063 448.274 243.063 447.499C243.063 446.734 243.227 446.048 243.553 445.441C243.88 444.834 244.333 444.363 244.911 444.027C245.499 443.682 246.157 443.509 246.885 443.509C247.613 443.509 248.257 443.668 248.817 443.985C249.377 444.302 249.807 444.741 250.105 445.301C250.413 445.852 250.567 446.477 250.567 447.177C250.567 447.373 250.553 447.578 250.525 447.793L244.659 447.793C244.706 448.521 244.935 449.095 245.345 449.515C245.756 449.926 246.283 450.131 246.927 450.131C247.431 450.131 247.851 450.019 248.187 449.795C248.533 449.562 248.752 449.249 248.845 448.857L250.497 448.857C250.329 449.632 249.933 450.266 249.307 450.761C248.682 451.246 247.889 451.489 246.927 451.489ZM248.873 446.575C248.864 446.034 248.677 445.604 248.313 445.287C247.949 444.96 247.473 444.797 246.885 444.797C246.316 444.797 245.845 444.951 245.471 445.259C245.098 445.567 244.851 446.006 244.729 446.575L248.873 446.575ZM255.404 451.489C254.666 451.489 254.004 451.321 253.416 450.985C252.828 450.64 252.366 450.164 252.03 449.557C251.694 448.95 251.526 448.264 251.526 447.499C251.526 446.734 251.694 446.048 252.03 445.441C252.366 444.834 252.828 444.363 253.416 444.027C254.004 443.682 254.666 443.509 255.404 443.509C256.384 443.509 257.191 443.766 257.826 444.279C258.47 444.783 258.848 445.469 258.96 446.337L257.336 446.337C257.242 445.898 257.018 445.548 256.664 445.287C256.318 445.016 255.898 444.881 255.404 444.881C254.974 444.881 254.587 444.993 254.242 445.217C253.906 445.432 253.64 445.74 253.444 446.141C253.248 446.533 253.15 446.986 253.15 447.499C253.15 448.003 253.248 448.456 253.444 448.857C253.64 449.258 253.91 449.571 254.256 449.795C254.601 450.01 254.984 450.117 255.404 450.117C255.926 450.117 256.37 449.982 256.734 449.711C257.107 449.431 257.326 449.076 257.392 448.647L259.03 448.647C258.964 449.188 258.773 449.674 258.456 450.103C258.148 450.532 257.728 450.873 257.196 451.125C256.673 451.368 256.076 451.489 255.404 451.489ZM260.286 443.621L261.896 443.621L261.896 451.377L260.286 451.377L260.286 443.621ZM261.098 442.627C260.818 442.627 260.585 442.538 260.398 442.361C260.211 442.184 260.118 441.96 260.118 441.689C260.118 441.418 260.211 441.194 260.398 441.017C260.585 440.83 260.818 440.737 261.098 440.737C261.378 440.737 261.611 440.83 261.798 441.017C261.985 441.194 262.078 441.418 262.078 441.689C262.078 441.96 261.985 442.184 261.798 442.361C261.611 442.538 261.378 442.627 261.098 442.627ZM263.718 443.621L265.328 443.621L265.328 444.741C265.58 444.377 265.939 444.083 266.406 443.859C266.872 443.626 267.376 443.509 267.918 443.509C268.646 443.509 269.29 443.672 269.85 443.999C270.419 444.326 270.858 444.792 271.166 445.399C271.483 446.006 271.642 446.706 271.642 447.499C271.642 448.292 271.483 448.992 271.166 449.599C270.858 450.206 270.419 450.672 269.85 450.999C269.28 451.326 268.632 451.489 267.904 451.489C267.362 451.489 266.858 451.377 266.392 451.153C265.934 450.929 265.58 450.635 265.328 450.271L265.328 453.925L263.718 453.925L263.718 443.621ZM265.328 447.499C265.328 448.012 265.426 448.465 265.622 448.857C265.818 449.249 266.093 449.557 266.448 449.781C266.802 449.996 267.208 450.103 267.666 450.103C268.123 450.103 268.529 449.996 268.884 449.781C269.238 449.557 269.514 449.249 269.71 448.857C269.915 448.465 270.018 448.012 270.018 447.499C270.018 446.986 269.915 446.533 269.71 446.141C269.514 445.74 269.238 445.432 268.884 445.217C268.529 444.993 268.123 444.881 267.666 444.881C267.208 444.881 266.802 444.993 266.448 445.217C266.102 445.432 265.827 445.74 265.622 446.141C265.426 446.533 265.328 446.986 265.328 447.499ZM273.056 443.621L274.666 443.621L274.666 451.377L273.056 451.377L273.056 443.621ZM273.868 442.627C273.588 442.627 273.354 442.538 273.168 442.361C272.981 442.184 272.888 441.96 272.888 441.689C272.888 441.418 272.981 441.194 273.168 441.017C273.354 440.83 273.588 440.737 273.868 440.737C274.148 440.737 274.381 440.83 274.568 441.017C274.754 441.194 274.848 441.418 274.848 441.689C274.848 441.96 274.754 442.184 274.568 442.361C274.381 442.538 274.148 442.627 273.868 442.627ZM279.931 451.489C279.156 451.489 278.475 451.321 277.887 450.985C277.308 450.649 276.86 450.178 276.543 449.571C276.226 448.964 276.067 448.274 276.067 447.499C276.067 446.734 276.23 446.048 276.557 445.441C276.884 444.834 277.336 444.363 277.915 444.027C278.503 443.682 279.161 443.509 279.889 443.509C280.617 443.509 281.261 443.668 281.821 443.985C282.381 444.302 282.81 444.741 283.109 445.301C283.417 445.852 283.571 446.477 283.571 447.177C283.571 447.373 283.557 447.578 283.529 447.793L277.663 447.793C277.71 448.521 277.938 449.095 278.349 449.515C278.76 449.926 279.287 450.131 279.931 450.131C280.435 450.131 280.855 450.019 281.191 449.795C281.536 449.562 281.756 449.249 281.849 448.857L283.501 448.857C283.333 449.632 282.936 450.266 282.311 450.761C281.686 451.246 280.892 451.489 279.931 451.489ZM281.877 446.575C281.868 446.034 281.681 445.604 281.317 445.287C280.953 444.96 280.477 444.797 279.889 444.797C279.32 444.797 278.848 444.951 278.475 445.259C278.102 445.567 277.854 446.006 277.733 446.575L281.877 446.575ZM284.964 443.621L286.574 443.621L286.574 444.797C286.807 444.424 287.157 444.116 287.624 443.873C288.1 443.63 288.613 443.509 289.164 443.509C289.714 443.509 290.209 443.626 290.648 443.859C291.086 444.083 291.432 444.405 291.684 444.825C291.936 445.236 292.062 445.712 292.062 446.253L292.062 451.377L290.452 451.377L290.452 446.645C290.452 446.122 290.302 445.707 290.004 445.399C289.705 445.091 289.304 444.937 288.8 444.937C288.128 444.937 287.586 445.194 287.176 445.707C286.774 446.22 286.574 446.948 286.574 447.891L286.574 451.377L284.964 451.377L284.964 443.621ZM296.583 451.475C295.865 451.475 295.281 451.26 294.833 450.831C294.385 450.402 294.161 449.8 294.161 449.025L294.161 444.923L293.013 444.923L293.013 443.621L294.161 443.621L294.161 442.011L295.757 442.011L295.757 443.621L297.479 443.621L297.479 444.923L295.757 444.923L295.757 448.885C295.757 449.268 295.851 449.566 296.037 449.781C296.224 449.986 296.476 450.089 296.793 450.089C297.073 450.089 297.339 450.038 297.591 449.935L297.591 451.293C297.274 451.414 296.938 451.475 296.583 451.475ZM301.447 451.489C300.532 451.489 299.785 451.251 299.207 450.775C298.628 450.299 298.315 449.66 298.269 448.857L299.837 448.857C299.874 449.268 300.033 449.59 300.313 449.823C300.602 450.056 300.98 450.173 301.447 450.173C301.867 450.173 302.198 450.08 302.441 449.893C302.683 449.706 302.805 449.45 302.805 449.123C302.805 448.796 302.66 448.558 302.371 448.409C302.091 448.25 301.657 448.101 301.069 447.961C300.509 447.812 300.056 447.667 299.711 447.527C299.375 447.387 299.085 447.168 298.843 446.869C298.6 446.57 298.479 446.174 298.479 445.679C298.479 445.268 298.591 444.9 298.815 444.573C299.048 444.246 299.37 443.99 299.781 443.803C300.191 443.607 300.658 443.509 301.181 443.509C302.067 443.509 302.772 443.719 303.295 444.139C303.827 444.55 304.13 445.128 304.205 445.875L302.651 445.875C302.595 445.52 302.441 445.25 302.189 445.063C301.937 444.876 301.605 444.783 301.195 444.783C300.84 444.783 300.555 444.858 300.341 445.007C300.126 445.156 300.019 445.362 300.019 445.623C300.019 445.903 300.145 446.108 300.397 446.239C300.658 446.37 301.069 446.5 301.629 446.631C302.198 446.762 302.665 446.902 303.029 447.051C303.393 447.2 303.705 447.438 303.967 447.765C304.237 448.092 304.373 448.53 304.373 449.081C304.373 449.557 304.247 449.977 303.995 450.341C303.752 450.705 303.407 450.99 302.959 451.195C302.52 451.391 302.016 451.489 301.447 451.489Z" fill="#003B49"/>
<ellipse cx="170" cy="276.5" rx="59" ry="58.5" fill="white"/>
<path d="M139.844 265.544L140.474 263.836L139.788 263.836L138.794 265.586C138.654 265.838 138.542 266.104 138.542 266.398C138.542 266.93 138.934 267.336 139.508 267.336C140.082 267.336 140.46 266.944 140.46 266.384C140.46 265.936 140.222 265.628 139.844 265.544ZM142.072 274L148.47 274L148.47 272.586L143.724 272.586L143.724 264.2L142.072 264.2L142.072 274ZM151.832 274.112C152.952 274.112 153.932 273.608 154.282 272.852L154.282 274L155.878 274L155.878 269.114C155.878 267.224 154.492 266.132 152.546 266.132C150.712 266.132 149.368 267.322 149.158 268.918L150.726 268.918C150.838 267.98 151.524 267.42 152.546 267.42C153.568 267.42 154.282 267.98 154.282 268.932L154.282 269.142L152.42 269.352C150.152 269.604 149.144 270.486 149.144 271.9C149.144 273.258 150.18 274.112 151.832 274.112ZM150.754 271.844C150.754 271.158 151.3 270.696 152.448 270.57L154.282 270.36L154.282 270.416C154.282 271.956 153.358 272.838 152.042 272.838C151.286 272.838 150.754 272.432 150.754 271.844ZM160.289 274.112C162.011 274.112 163.215 273.16 163.215 271.704C163.215 268.652 158.861 269.744 158.861 268.246C158.861 267.728 159.337 267.406 160.037 267.406C160.863 267.406 161.381 267.798 161.493 268.498L163.047 268.498C162.907 267.014 161.801 266.132 160.023 266.132C158.413 266.132 157.321 267.07 157.321 268.302C157.321 271.144 161.647 270.08 161.647 271.746C161.647 272.39 161.129 272.796 160.289 272.796C159.351 272.796 158.749 272.306 158.679 271.48L157.111 271.48C157.209 273.076 158.455 274.112 160.289 274.112ZM167.375 274.098C167.767 274.098 168.089 274.028 168.383 273.916L168.383 272.558C168.145 272.656 167.837 272.712 167.585 272.712C166.969 272.712 166.549 272.292 166.549 271.508L166.549 267.546L168.271 267.546L168.271 266.244L166.549 266.244L166.549 264.634L164.953 264.634L164.953 266.244L163.805 266.244L163.805 267.546L164.953 267.546L164.953 271.648C164.953 273.244 165.989 274.098 167.375 274.098ZM181.728 266.132C180.678 266.132 179.628 266.664 179.012 267.714C178.634 266.692 177.738 266.132 176.59 266.132C175.484 266.132 174.56 266.72 174.168 267.406L174.168 266.244L172.558 266.244L172.558 274L174.168 274L174.168 270.626C174.168 268.694 174.938 267.56 176.17 267.56C177.108 267.56 177.682 268.232 177.682 269.254L177.682 274L179.292 274L179.292 270.626C179.292 268.708 180.062 267.56 181.294 267.56C182.232 267.56 182.82 268.232 182.82 269.254L182.82 274L184.43 274L184.43 268.876C184.43 267.224 183.296 266.132 181.728 266.132ZM186.162 274L187.772 274L187.772 266.244L186.162 266.244L186.162 274ZM185.994 264.312C185.994 264.858 186.414 265.25 186.974 265.25C187.534 265.25 187.954 264.858 187.954 264.312C187.954 263.766 187.534 263.36 186.974 263.36C186.414 263.36 185.994 263.766 185.994 264.312ZM189.594 274L191.204 274L191.204 264.088L189.594 264.088L189.594 274ZM196.469 274.112C198.471 274.112 199.717 272.95 200.039 271.48L198.387 271.48C198.205 272.264 197.491 272.754 196.469 272.754C195.209 272.754 194.299 271.9 194.201 270.416L200.067 270.416C200.375 268.008 198.863 266.132 196.427 266.132C194.215 266.132 192.605 267.784 192.605 270.122C192.605 272.46 194.103 274.112 196.469 274.112ZM194.271 269.198C194.523 268.05 195.293 267.42 196.427 267.42C197.589 267.42 198.387 268.106 198.415 269.198L194.271 269.198ZM201.509 265.586L200.879 267.294L201.565 267.294L202.559 265.544C202.699 265.292 202.811 265.026 202.811 264.732C202.811 264.2 202.419 263.794 201.845 263.794C201.271 263.794 200.893 264.186 200.893 264.746C200.893 265.194 201.131 265.502 201.509 265.586ZM146.581 292.112C148.639 292.112 150.025 290.894 150.207 289.27L148.569 289.27C148.443 290.11 147.645 290.74 146.581 290.74C145.307 290.74 144.327 289.676 144.327 288.122C144.327 286.568 145.293 285.504 146.581 285.504C147.575 285.504 148.331 286.092 148.513 286.96L150.137 286.96C149.913 285.21 148.527 284.132 146.581 284.132C144.341 284.132 142.703 285.784 142.703 288.122C142.703 290.446 144.341 292.112 146.581 292.112ZM155.005 292.112C157.315 292.112 158.981 290.46 158.981 288.122C158.981 285.784 157.315 284.132 155.005 284.132C152.695 284.132 151.029 285.784 151.029 288.122C151.029 290.46 152.695 292.112 155.005 292.112ZM152.653 288.122C152.653 286.582 153.619 285.504 155.005 285.504C156.377 285.504 157.357 286.582 157.357 288.122C157.357 289.662 156.377 290.74 155.005 290.74C153.619 290.74 152.653 289.662 152.653 288.122ZM163.177 292.112C164.395 292.112 165.347 291.496 165.781 290.726L165.781 292L167.391 292L167.391 284.244L165.781 284.244L165.781 287.59C165.781 289.494 164.941 290.684 163.569 290.684C162.575 290.684 161.889 290.012 161.889 288.892L161.889 284.244L160.279 284.244L160.279 289.172C160.279 291.02 161.525 292.112 163.177 292.112ZM169.209 292L170.819 292L170.819 289.102C170.819 286.75 171.799 285.644 173.017 285.644C173.409 285.644 173.731 285.714 174.039 285.826L174.039 284.286C173.787 284.188 173.451 284.132 173.115 284.132C172.163 284.132 171.211 284.692 170.819 285.476L170.819 284.244L169.209 284.244L169.209 292ZM175.033 292L176.643 292L176.643 284.244L175.033 284.244L175.033 292ZM174.865 282.312C174.865 282.858 175.285 283.25 175.845 283.25C176.405 283.25 176.825 282.858 176.825 282.312C176.825 281.766 176.405 281.36 175.845 281.36C175.285 281.36 174.865 281.766 174.865 282.312ZM181.909 292.112C183.911 292.112 185.157 290.95 185.479 289.48L183.827 289.48C183.645 290.264 182.931 290.754 181.909 290.754C180.649 290.754 179.739 289.9 179.641 288.416L185.507 288.416C185.815 286.008 184.303 284.132 181.867 284.132C179.655 284.132 178.045 285.784 178.045 288.122C178.045 290.46 179.543 292.112 181.909 292.112ZM179.711 287.198C179.963 286.05 180.733 285.42 181.867 285.42C183.029 285.42 183.827 286.106 183.855 287.198L179.711 287.198ZM186.941 292L188.551 292L188.551 289.102C188.551 286.75 189.531 285.644 190.749 285.644C191.141 285.644 191.463 285.714 191.771 285.826L191.771 284.286C191.519 284.188 191.183 284.132 190.847 284.132C189.895 284.132 188.943 284.692 188.551 285.476L188.551 284.244L186.941 284.244L186.941 292ZM195.385 292.112C197.107 292.112 198.311 291.16 198.311 289.704C198.311 286.652 193.957 287.744 193.957 286.246C193.957 285.728 194.433 285.406 195.133 285.406C195.959 285.406 196.477 285.798 196.589 286.498L198.143 286.498C198.003 285.014 196.897 284.132 195.119 284.132C193.509 284.132 192.417 285.07 192.417 286.302C192.417 289.144 196.743 288.08 196.743 289.746C196.743 290.39 196.225 290.796 195.385 290.796C194.447 290.796 193.845 290.306 193.775 289.48L192.207 289.48C192.305 291.076 193.551 292.112 195.385 292.112Z" fill="#003B49"/>
</g>
</svg>
