<?xml version="1.0" encoding="utf-8"?>
<!-- Generator: Adobe Illustrator 26.0.3, SVG Export Plug-In . SVG Version: 6.00 Build 0)  -->
<svg version="1.1" id="Layer_1" xmlns="http://www.w3.org/2000/svg" xmlns:xlink="http://www.w3.org/1999/xlink" x="0px" y="0px"
	 viewBox="0 0 1038.1 309.6" style="enable-background:new 0 0 1038.1 309.6;" xml:space="preserve">
<style type="text/css">
	.st0{fill:#2199B8;}
	.st1{fill:#FFBE09;}
	.st2{fill:#202E3A;}
	.st3{fill:#00B2B2;}
</style>
<path class="st0" d="M311.6,51.4h31.2l34,101.2l33.8-101.2h31.2l-49.5,133.6h-31.2L311.6,51.4z"/>
<path class="st0" d="M460.3,124.2h42.2c-0.4-10-8.8-16.9-20.2-16.9C470.5,107.3,461.7,115,460.3,124.2z M460.3,144.5
	c2.4,11.2,12.2,18.5,25.9,18.5c12.2,0,24.4-3.5,33.2-9.2v25.7c-8.6,4.5-21.2,7.7-35.4,7.7c-29.1,0-50.5-20.6-50.5-51.1
	c0-28.7,20.6-50.9,48.9-50.9c28.3,0,45.8,21.2,45.8,46.6c0,4.1-0.8,9.6-1.6,12.8H460.3z"/>
<path class="st0" d="M609.6,182.4c-5.5,2.9-14.9,4.7-21.6,4.7c-31,0-51.7-22.4-51.7-51.1c0-28.9,20.6-50.9,51.7-50.9
	c6.5,0,16.1,1.8,21.6,4.5v28.3c-5.1-3.5-12.6-6.7-21.6-6.7c-14.3,0-24.6,11.2-24.6,24.8c0,13.6,10.2,24.9,24.6,24.9
	c8.8,0,16.7-3.1,21.6-6.9V182.4z"/>
<path class="st0" d="M633.9,184.9v-75H619V87.1h16.5V65.7l25.1-5.7v27.1h16.5v22.8h-16.5v75H633.9z"/>
<path class="st0" d="M708.6,124.2h42.2c-0.4-10-8.8-16.9-20.2-16.9C718.8,107.3,710,115,708.6,124.2z M708.6,144.5
	c2.4,11.2,12.2,18.5,25.9,18.5c12.2,0,24.4-3.5,33.2-9.2v25.7c-8.6,4.5-21.2,7.7-35.4,7.7c-29.1,0-50.5-20.6-50.5-51.1
	c0-28.7,20.6-50.9,48.9-50.9c28.3,0,45.8,21.2,45.8,46.6c0,4.1-0.8,9.6-1.6,12.8H708.6z"/>
<path class="st0" d="M816.8,97.7c4.7-7.3,12.2-12.6,23.2-12.6c2.2,0,5.5,0.2,7.7,0.6v28.5c-3.7-1.8-8.4-2.9-14.3-2.9
	c-9.4,0-15.9,6.5-16.5,16.9v56.8h-26.7V87.1h26.7V97.7z"/>
<path class="st0" d="M890.3,167.4c7.7,0,13.6-5.3,13.6-12.2c0-6.9-5.9-12.2-13.6-12.2c-7.7,0-13.7,5.3-13.7,12.2
	C876.5,162.1,882.6,167.4,890.3,167.4z M861,90.8c7.1-2.9,18.1-5.7,28.3-5.7c26.3,0,41.6,12.6,41.6,41.1v58.7h-26.7v-7.3
	c-4.9,5.7-12.4,9.4-21.8,9.4c-21.8,0-32.2-15.3-32.2-31.8c0-17.5,12.8-31.4,32.6-31.4c8.2,0,16.5,2.9,21.4,7.1v-5.3
	c0-11.8-7.9-16.7-18.1-16.7c-8.6,0-17.9,2.9-25.1,7.3V90.8z"/>
<path class="st0" d="M42.5,51.3c-2.3,0-2.7,3-3.3,6c-2.1,11.5-3.2,36-3.2,60.5c0,24.5,1,53.3,4,64.1c1.1,3.8,3,4.4,6.6,5
	c11.7,2.1,45.8,3.2,79.8,3.2c34.1,0,68.1-1.1,79.8-3.2c2.2-0.4,3.8-0.9,5-2c-2-1-3.8-1.9-6-3.3c-3.8-2.3-8-5-12.4-8
	c-8.8-6-18.5-13-27.8-19.9c-9.2-6.9-18-13.6-24.9-19c-6.9-5.4-11.9-9.4-27.3-21.7c-15.4-12.3-45.7-38.5-65.3-57.4
	C44.5,52.5,43.7,51.3,42.5,51.3z"/>
<path class="st1" d="M211.2,184.9c0.7-0.7,1.2-1.6,1.6-3c3-10.8,4-39.6,4-64.1c0-24.5-1.1-49.1-3.2-60.5c-0.6-3-1-6-3.3-6
	c-1.3,0-2,1.1-5.2,4.2c-19.5,18.9-49.9,45.1-78.8,68.3v0c1.8,1.4,6.8,5.5,13.7,10.9c6.9,5.4,15.6,12.1,24.9,19
	c9.2,6.9,18.9,13.9,27.8,19.9c4.4,3,8.6,5.7,12.4,8C207.5,183,209.3,183.9,211.2,184.9L211.2,184.9z"/>
<path class="st1" d="M251.8,68.6c-5.3,5.1-11.6,10.9-18.4,17c0.4,9.6,0.6,19.3,0.6,32.2s-0.3,27.2-0.9,38
	c9.2,6.5,17.3,11.9,23.4,15.3l0,0c0.7-0.6,1.2-1.7,1.6-3.6c2-9,2.8-30.2,2.8-49.6s-0.7-38.2-2.4-47.3c-0.7-4.1-1.2-5.4-2.8-5.4
	C254.9,65.3,253.7,66.8,251.8,68.6z"/>
<path class="st2" d="M446,259.1c6.3,0,10.5-4.8,10.5-12v0c0-7.2-4.2-11.9-10.5-11.9c-3.8,0-6.8,1.9-8.4,5.1v-4.6h-2.3v31.8h2.4
	v-13.4C439.3,257.2,442.2,259.1,446,259.1z M445.7,257.1c-5.1,0-8.2-4-8.2-9.7V247c0-5.8,3-9.8,8.2-9.8c5.2,0,8.4,3.7,8.4,9.7v0.4
	C454,253.3,450.9,257.1,445.7,257.1z"/>
<path class="st2" d="M470.6,257.1c-5.4,0-8.7-3.8-8.7-9.8v-0.2c0-5.9,3.4-9.8,8.8-9.8c5.4,0,8.7,3.9,8.7,9.8v0.2
	C479.4,253.2,476,257.1,470.6,257.1z M470.6,259.1c6.7,0,11.2-4.9,11.2-11.9c0-7.1-4.5-11.9-11.1-11.9c-6.7,0-11.2,4.9-11.2,11.9
	S463.9,259.1,470.6,259.1z"/>
<path class="st2" d="M486,235.7h-2.5l7.2,22.9h1.9l6.5-19.9l6.5,19.9h1.9l7.1-22.9h-2.4l-5.7,19l-6.3-19H498l-6.3,18.9L486,235.7z"
	/>
<path class="st2" d="M527.2,259.1c6,0,9.2-3.2,10.5-6.7l-2-0.7c-1.1,2.9-3.5,5.4-8.4,5.4c-5.4,0-8.6-3.8-8.7-9.2h18.9V247
	c0-7.3-4-11.8-10.3-11.8c-6.5,0-11,5-11,12C516.1,254.2,520.3,259.1,527.2,259.1z M527.1,237.3c4.7,0,7.7,3.2,7.8,8.7h-16.4
	C518.9,240.7,522.3,237.3,527.1,237.3z"/>
<path class="st2" d="M544.6,235.7h-2.3v22.9h2.4v-11.4c0-6.2,1.3-9.4,6.4-9.4h1.8v-2.2h-1.4c-4.2,0-6.2,1.8-7.1,5.1V235.7z"/>
<path class="st2" d="M565.2,259.1c6,0,9.2-3.2,10.5-6.7l-2-0.7c-1.1,2.9-3.5,5.4-8.4,5.4c-5.4,0-8.6-3.8-8.7-9.2h18.9V247
	c0-7.3-4-11.8-10.3-11.8c-6.5,0-11,5-11,12C554.1,254.2,558.2,259.1,565.2,259.1z M565.1,237.3c4.7,0,7.7,3.2,7.8,8.7h-16.4
	C556.8,240.7,560.2,237.3,565.1,237.3z"/>
<path class="st2" d="M589.2,259.1c3.8,0,6.8-2,8.4-5.2v4.7h2.3v-32.7h-2.3v14.5c-1.6-3.2-4.6-5.2-8.4-5.2c-6.3,0-10.5,4.7-10.5,11.9
	C578.7,254.5,583,259.1,589.2,259.1z M589.6,257.1c-5.2,0-8.4-3.7-8.4-9.7V247c0-5.9,3.2-9.7,8.4-9.7c5.1,0,8.2,3.9,8.2,9.7v0.3
	C597.8,253,594.7,257.1,589.6,257.1z"/>
<path class="st2" d="M626.3,259.1c6.3,0,10.5-4.8,10.5-12v0c0-7.2-4.2-11.9-10.5-11.9c-3.8,0-6.8,2-8.4,5.1v-14.5h-2.3v32.7h2.3V254
	C619.5,257.2,622.5,259.1,626.3,259.1z M625.9,257.1c-5.1,0-8.1-4-8.1-9.7V247c0-5.8,3-9.8,8.1-9.8c5.2,0,8.4,3.7,8.4,9.7v0.4
	C634.3,253.3,631.1,257.1,625.9,257.1z"/>
<path class="st2" d="M638.2,265.4v2.1h2.3c5.3,0,6.4-2.3,8.9-8.8l8.6-23.1h-2.4l-7,19.1l-8.1-19.1H638l9.4,21.9
	c-2.5,6.7-3.2,7.9-7.1,7.9H638.2z"/>
<path class="st2" d="M693.9,223.5h-29.1v6.3h11.8V260h6.7v-30.1h10.6V223.5z"/>
<path class="st2" d="M704,260c6.7,0,10.5-3.1,12.3-7.3l-5.9-2.1c-0.8,2.2-2.5,4-6.3,4c-3.7,0-6-2.1-6.5-5.8h18.6v-2.3
	c0-8.2-4.6-13.4-12.4-13.4c-7.5,0-12.9,5.6-12.9,13.6C690.9,254.8,696,260,704,260z M703.8,238.3c3.5,0,5.5,1.9,5.8,5.7h-11.9
	C698.1,240.4,700.5,238.3,703.8,238.3z"/>
<path class="st2" d="M728.6,260c3.8,0,8.7-4.2,8.7-4.2v3.6h6.3v-16.5c0-7.1-4.1-10.2-11-10.2c-7.1,0-11.5,3.9-11.8,9.9h6.1v-0.4
	c0.2-2.3,1.8-4.1,5.2-4.1c3.4,0,4.7,1.4,4.7,3v0.3c0,0-2.4,1.7-7.2,2.6c-5.8,1.3-10.1,2.6-10.1,8.5C719.6,256.9,723.1,260,728.6,260
	z M730.4,255c-2.3,0-3.7-1.2-3.7-3c0-2.3,2-3.2,4.6-3.9c2.1-0.6,4.5-1,6-1.9v2.2C737.2,253.4,733.7,255,730.4,255z"/>
<path class="st2" d="M755.9,233.6h-6.7V260h7.1v-14.9c0-4,2-5.9,4.5-5.9c2.7,0,4.1,1.7,4.1,4.9V260h6.7v-14.9c0-3.8,1.6-5.9,4.5-5.9
	c2.7,0,4.1,1.7,4.1,5.1V260h6.7v-16.2c0-6.8-3.1-10.7-8.1-10.7c-4.5,0-7.2,2.3-8.4,5.5c-1.3-4.1-4.2-5.5-7.1-5.5
	c-3.6,0-6.2,1.7-7.5,4.8L755.9,233.6L755.9,233.6z"/>
<path class="st2" d="M799.4,223.1l-6.9,4.4V260h6.9V223.1z"/>
<path class="st2" d="M816.7,260c6.7,0,10.5-3.1,12.3-7.3l-5.9-2.1c-0.8,2.2-2.5,4-6.3,4c-3.7,0-6-2.1-6.5-5.8h18.6v-2.3
	c0-8.2-4.6-13.4-12.4-13.4c-7.5,0-12.9,5.6-12.9,13.6C803.6,254.8,808.7,260,816.7,260z M816.5,238.3c3.5,0,5.5,1.9,5.8,5.7h-11.9
	C810.8,240.4,813.2,238.3,816.5,238.3z"/>
<path class="st2" d="M841.3,260c3.8,0,8.3-4.2,8.3-4.2v3.6h6.3v-16.3c0-7-4.1-10.1-10.9-10.1c-7.1,0-11.5,3.9-11.7,9.7h6.5v-0.4
	c0.2-2.3,1.7-4,5.1-4c3.4,0,4.7,1.4,4.7,3v0.2c0,0-2.5,1.6-7.2,2.6c-5.8,1.3-10.1,2.6-10.1,8.4C832.4,257,835.8,260,841.3,260z
	 M842.7,255.1c-2.3,0-3.7-1.2-3.7-3c0-2.3,2-3.2,4.6-3.8c2.1-0.5,4.5-1,6-1.9v2.2C849.5,253.5,846,255.1,842.7,255.1z"/>
<path class="st2" d="M871.9,260c3.3,0,5.5-1.5,7.3-3.9v3.3h6.7v-36.8l-6.7,4.4v9.4c-1.8-2.4-4-3.4-7.3-3.4
	c-6.5,0-11.4,5.4-11.4,13.5C860.6,255.1,865.6,260,871.9,260z M873.4,254.5c-3.8,0-6.3-2.5-6.3-7.7v-0.4c0-5.1,2.6-7.9,6.3-7.9
	c4,0,6.3,3,6.3,7.7v0.4C879.6,251.3,877.2,254.5,873.4,254.5z"/>
<path class="st2" d="M903.7,260c6.7,0,10.5-3.1,12.3-7.3l-5.9-2.1c-0.8,2.2-2.5,4-6.3,4c-3.7,0-6-2.1-6.5-5.8h18.6v-2.3
	c0-8.2-4.6-13.4-12.4-13.4c-7.5,0-12.9,5.6-12.9,13.6C890.6,254.8,895.7,260,903.7,260z M903.4,238.3c3.5,0,5.5,1.9,5.8,5.7h-11.9
	C897.7,240.4,900.1,238.3,903.4,238.3z"/>
<path class="st2" d="M927.5,233.5h-6.9V260h6.9v-13.2c0-4.8,1.1-6.8,5.1-6.8h2.6v-6.9h-0.5c-4.6,0-6.5,2.2-7.2,5.4V233.5z"/>
<path class="st3" d="M962.9,249.7l-17.8-29.2h17.8V249.7z"/>
<path class="st3" d="M962.9,218.2h-42.4l42.4-29.2V218.2z"/>
<path class="st3" d="M991.2,231.7l-26.1,18V189L991.2,231.7z"/>
<path class="st3" d="M987,220.5l6.1,10l14.5-10H987z"/>
</svg>
