<?xml version="1.0" encoding="UTF-8" standalone="no" ?>
<!DOCTYPE svg PUBLIC "-//W3C//DTD SVG 1.1//EN"
  "http://www.w3.org/Graphics/SVG/1.1/DTD/svg11.dtd">
<svg
  width="100%"
  height="100%"
  viewBox="0 0 3384 2094"
  version="1.1"
  xmlns="http://www.w3.org/2000/svg"
  xmlnsXlink="http://www.w3.org/1999/xlink"
  xmlSpace="preserve"
  xmlnsSerif="http://www.serif.com/"
  style="fill-rule:evenodd;clip-rule:evenodd;stroke-linecap:round;stroke-linejoin:round;stroke-miterlimit:1.5;"
><rect x="0" y="0" width="3384" height="2094" style="fill:#e6e6e6;" /><rect
    x="0"
    y="0"
    width="684.452"
    height="2094"
    style="fill:#3c4b64;"
  /><rect
    x="0"
    y="285.27"
    width="684.452"
    height="126"
    style="fill:#46546c;"
  /><rect
    x="-0"
    y="1968"
    width="684.452"
    height="126"
    style="fill:#303c54;"
  /><rect
    x="684.452"
    y="0"
    width="2699.55"
    height="285.27"
    style="fill:#fff;"
  /><path
    d="M3298.21,414.379c0,-16.822 -13.657,-30.479 -30.479,-30.479l-2467.02,-0c-16.822,-0 -30.479,13.657 -30.479,30.479l0,60.958c0,16.821 13.657,30.479 30.479,30.479l2467.02,-0c16.822,-0 30.479,-13.658 30.479,-30.479l0,-60.958Z"
    style="fill:#fff;"
  /><path
    d="M3298.21,576.688c0,-16.822 -13.657,-30.479 -30.479,-30.479l-2467.02,0c-16.822,0 -30.479,13.657 -30.479,30.479l0,60.958c0,16.822 13.657,30.479 30.479,30.479l2467.02,-0c16.822,-0 30.479,-13.657 30.479,-30.479l0,-60.958Z"
    style="fill:#fff;"
  /><path
    d="M1010.91,414.379c0,-16.822 -13.657,-30.479 -30.478,-30.479l-179.712,-0c-16.822,-0 -30.479,13.657 -30.479,30.479l0,60.958c0,16.821 13.657,30.479 30.479,30.479l179.712,-0c16.821,-0 30.478,-13.658 30.478,-30.479l0,-60.958Z"
    style="fill:#39f;"
  /><rect
    x="984.909"
    y="383.9"
    width="335"
    height="121.916"
    style="fill:#2eb85c;"
  /><path
    d="M961.887,576.688c-0,-16.822 -13.658,-30.479 -30.479,-30.479l-130.69,0c-16.822,0 -30.479,13.657 -30.479,30.479l0,60.958c0,16.822 13.657,30.479 30.479,30.479l130.69,-0c16.821,-0 30.479,-13.657 30.479,-30.479l-0,-60.958Z"
    style="fill:#2eb85c;"
  /><rect
    x="910.865"
    y="546.209"
    width="132.044"
    height="121.916"
    style="fill:#f9b115;"
  /><rect
    x="1319.91"
    y="383.9"
    width="282.091"
    height="121.916"
    style="fill:#f9b115;"
  /><path
    d="M483.965,348.27c-0,-10.154 -8.243,-18.397 -18.397,-18.397l-210.08,-0c-10.153,-0 -18.397,8.243 -18.397,18.397c0,10.153 8.244,18.396 18.397,18.396l210.08,0c10.154,0 18.397,-8.243 18.397,-18.396Z"
    style="fill:#d9d9d9;fill-opacity:0.67;"
  /><path
    d="M3176.61,143.354c-0,-11.745 -9.536,-21.281 -21.281,-21.281l-278.368,-0c-11.745,-0 -21.281,9.536 -21.281,21.281c-0,11.745 9.536,21.281 21.281,21.281l278.368,-0c11.745,-0 21.281,-9.536 21.281,-21.281Z"
    style="fill:#d9d9d9;"
  /><path
    d="M3078.61,444.858c0,-11.745 -9.535,-21.281 -21.281,-21.281l-212.774,-0c-11.745,-0 -21.281,9.536 -21.281,21.281c0,11.745 9.536,21.281 21.281,21.281l212.774,-0c11.746,-0 21.281,-9.536 21.281,-21.281Z"
    style="fill:#d9d9d9;"
  /><path
    d="M3036.61,607.167c-0,-11.745 -9.536,-21.281 -21.281,-21.281l-126.774,0c-11.746,0 -21.281,9.536 -21.281,21.281c-0,11.745 9.535,21.281 21.281,21.281l126.774,-0c11.745,-0 21.281,-9.536 21.281,-21.281Z"
    style="fill:#d9d9d9;"
  /><path
    d="M857.479,119.135c0,-1.104 -0.896,-2 -2,-2l-83.24,-0c-1.104,-0 -2,0.896 -2,2l0,4c0,1.104 0.896,2 2,2l83.24,-0c1.104,-0 2,-0.896 2,-2l0,-4Z"
    style="fill:#ccc;"
  /><path
    d="M857.479,140.135c0,-1.104 -0.896,-2 -2,-2l-83.24,-0c-1.104,-0 -2,0.896 -2,2l0,4c0,1.104 0.896,2 2,2l83.24,-0c1.104,-0 2,-0.896 2,-2l0,-4Z"
    style="fill:#ccc;"
  /><path
    d="M857.479,162.135c0,-1.104 -0.896,-2 -2,-2l-83.24,-0c-1.104,-0 -2,0.896 -2,2l0,4c0,1.104 0.896,2 2,2l83.24,-0c1.104,-0 2,-0.896 2,-2l0,-4Z"
    style="fill:#ccc;"
  /><rect
    x="2717.48"
    y="107.635"
    width="70"
    height="70"
    style="fill:#d9d9d9;"
  /><rect
    x="2660.73"
    y="404.858"
    width="80"
    height="80"
    style="fill:#d9d9d9;"
  /><rect
    x="3167.73"
    y="404.858"
    width="80"
    height="80"
    style="fill:#d9d9d9;"
  /><path
    d="M3298.21,135.635c0,-15.454 -12.546,-28 -28,-28l-14,-0c-15.453,-0 -28,12.546 -28,28l0,14c0,15.453 12.547,28 28,28l14,-0c15.454,-0 28,-12.547 28,-28l0,-14Z"
    style="fill:#d9d9d9;"
  /><path
    d="M1707,437.858c0,-15.454 -12.546,-28 -28,-28l-14,-0c-15.454,-0 -28,12.546 -28,28l0,14c0,15.453 12.546,28 28,28l14,-0c15.454,-0 28,-12.547 28,-28l0,-14Z"
    style="fill:#d9d9d9;"
  /><path
    d="M174.487,342.218c0,-13.359 -10.846,-24.205 -24.205,-24.205l-21.589,-0c-13.36,-0 -24.206,10.846 -24.206,24.205l0,12.103c0,13.359 10.846,24.205 24.206,24.205l21.589,0c13.359,0 24.205,-10.846 24.205,-24.205l0,-12.103Z"
    style="fill:#d9d9d9;fill-opacity:0.67;"
  /><path
    d="M483.965,488.974c-0,-10.154 -8.243,-18.397 -18.397,-18.397l-210.08,0c-10.153,0 -18.397,8.243 -18.397,18.397c0,10.153 8.244,18.397 18.397,18.397l210.08,-0c10.154,-0 18.397,-8.244 18.397,-18.397Z"
    style="fill:#d9d9d9;fill-opacity:0.67;"
  /><path
    d="M174.487,482.923c0,-13.36 -10.846,-24.206 -24.205,-24.206l-21.589,0c-13.36,0 -24.206,10.846 -24.206,24.206l0,12.102c0,13.36 10.846,24.206 24.206,24.206l21.589,-0c13.359,-0 24.205,-10.846 24.205,-24.206l0,-12.102Z"
    style="fill:#d9d9d9;fill-opacity:0.67;"
  /><path
    d="M437.965,629.678c-0,-10.153 -8.243,-18.397 -18.397,-18.397l-164.08,0c-10.153,0 -18.397,8.244 -18.397,18.397c0,10.154 8.244,18.397 18.397,18.397l164.08,0c10.154,0 18.397,-8.243 18.397,-18.397Z"
    style="fill:#d9d9d9;fill-opacity:0.67;"
  /><path
    d="M174.487,623.627c0,-13.359 -10.846,-24.205 -24.205,-24.205l-21.589,-0c-13.36,-0 -24.206,10.846 -24.206,24.205l0,12.103c0,13.359 10.846,24.205 24.206,24.205l21.589,-0c13.359,-0 24.205,-10.846 24.205,-24.205l0,-12.103Z"
    style="fill:#d9d9d9;fill-opacity:0.67;"
  /><path
    d="M384.528,770.383c0,-10.154 -8.243,-18.397 -18.397,-18.397l-110.643,-0c-10.153,-0 -18.397,8.243 -18.397,18.397c0,10.153 8.244,18.396 18.397,18.396l110.643,0c10.154,0 18.397,-8.243 18.397,-18.396Z"
    style="fill:#d9d9d9;fill-opacity:0.67;"
  /><path
    d="M174.487,764.331c0,-13.359 -10.846,-24.205 -24.205,-24.205l-21.589,-0c-13.36,-0 -24.206,10.846 -24.206,24.205l0,12.103c0,13.359 10.846,24.205 24.206,24.205l21.589,0c13.359,0 24.205,-10.846 24.205,-24.205l0,-12.103Z"
    style="fill:#d9d9d9;fill-opacity:0.67;"
  /><path
    d="M483.965,911.087c-0,-10.154 -8.243,-18.397 -18.397,-18.397l-210.08,0c-10.153,0 -18.397,8.243 -18.397,18.397c0,10.153 8.244,18.397 18.397,18.397l210.08,-0c10.154,-0 18.397,-8.244 18.397,-18.397Z"
    style="fill:#d9d9d9;fill-opacity:0.67;"
  /><path
    d="M174.487,905.036c0,-13.36 -10.846,-24.206 -24.205,-24.206l-21.589,0c-13.36,0 -24.206,10.846 -24.206,24.206l0,12.102c0,13.36 10.846,24.206 24.206,24.206l21.589,-0c13.359,-0 24.205,-10.846 24.205,-24.206l0,-12.102Z"
    style="fill:#d9d9d9;fill-opacity:0.67;"
  /><path
    d="M531.965,1051.79c-0,-10.153 -8.243,-18.397 -18.397,-18.397l-258.08,0c-10.153,0 -18.397,8.244 -18.397,18.397c0,10.154 8.244,18.397 18.397,18.397l258.08,0c10.154,0 18.397,-8.243 18.397,-18.397Z"
    style="fill:#d9d9d9;fill-opacity:0.67;"
  /><path
    d="M174.487,1045.74c0,-13.359 -10.846,-24.205 -24.205,-24.205l-21.589,-0c-13.36,-0 -24.206,10.846 -24.206,24.205l0,12.103c0,13.359 10.846,24.205 24.206,24.205l21.589,-0c13.359,-0 24.205,-10.846 24.205,-24.205l0,-12.103Z"
    style="fill:#d9d9d9;fill-opacity:0.67;"
  /><rect
    x="0"
    y="0"
    width="684.452"
    height="285.27"
    style="fill:#303c54;"
  /><path
    d="M295.582,186.405l-27.613,-37.299l-11.354,10.438l0,26.861l-15.417,0l-0,-98.537l15.417,-0l0,52.748l34.2,-31.316l20.605,-0l-31.958,29.228l34.762,47.877l-18.642,0Z"
    style="fill:#fff;fill-rule:nonzero;"
  /><path
    d="M367.486,139.224c-0.281,-11.274 -7.99,-19.763 -20.745,-19.763c-11.353,-0 -19.484,7.376 -22.006,19.763l42.751,-0Zm15.978,11.412l-59.43,0c1.121,14.892 10.233,24.217 23.828,24.217c10.373,-0 17.521,-4.871 19.765,-13.36l15.696,-0c-3.223,17.953 -18.081,26.165 -35.881,26.165c-24.668,-0 -38.407,-19.207 -38.407,-39.806c0,-20.598 12.896,-39.804 37.706,-39.804c24.949,0 37.145,18.231 37.145,35.629c-0,3.201 -0.422,6.959 -0.422,6.959"
    style="fill:#fff;fill-rule:nonzero;"
  /><path
    d="M441.071,151.193l0,-1.252l-14.857,1.53c-13.735,1.532 -21.167,4.733 -21.167,13.222c0,6.263 5.467,10.299 14.298,10.299c13.458,0 21.585,-10.021 21.726,-23.799m15.139,-12.944l0,48.156l-15.139,-0l0,-11.829c-4.063,7.932 -13.876,12.942 -25.23,12.942c-14.997,0 -25.51,-9.325 -25.51,-21.712c0,-15.865 12.056,-22.964 36.024,-25.609l14.716,-1.53l0,-2.784c0,-9.742 -7.428,-16.284 -18.081,-16.284c-10.233,-0 -17.521,6.82 -18.08,16.006l-14.438,0c1.262,-17.119 15.837,-27.558 32.518,-27.558c19.343,0 33.22,10.718 33.22,30.202"
    style="fill:#fff;fill-rule:nonzero;"
  /><path
    d="M539.045,135.466l-0,50.939l-15.419,-0l0,-47.32c0,-10.439 -7.008,-17.258 -17.8,-17.258c-12.614,-0 -22.148,13.639 -22.148,31.453l0,33.125l-15.417,-0l-0,-77.104l15.417,-0l0,13.778c5.467,-9.186 15.419,-14.891 25.931,-14.891c18.222,-0 29.436,10.855 29.436,27.278"
    style="fill:#fff;fill-rule:nonzero;"
  /><path
    d="M599.312,151.193l-0,-1.252l-14.857,1.53c-13.735,1.532 -21.167,4.733 -21.167,13.222c0,6.263 5.467,10.299 14.298,10.299c13.457,0 21.585,-10.021 21.726,-23.799m15.139,-12.944l0,48.156l-15.139,-0l-0,-11.829c-4.063,7.932 -13.876,12.942 -25.23,12.942c-14.998,0 -25.51,-9.325 -25.51,-21.712c0,-15.865 12.055,-22.964 36.024,-25.609l14.716,-1.53l-0,-2.784c-0,-9.742 -7.429,-16.284 -18.081,-16.284c-10.233,-0 -17.521,6.82 -18.08,16.006l-14.438,0c1.261,-17.119 15.838,-27.558 32.518,-27.558c19.343,0 33.22,10.718 33.22,30.202"
    style="fill:#fff;fill-rule:nonzero;"
  /><path
    d="M99.017,188.577l0.919,-4.884c0.384,-2.042 1.314,-3.942 2.691,-5.497l26.121,-29.483c0.758,-0.855 2.102,-0.821 2.816,0.069l27.317,34.066c0.422,0.526 0.34,1.306 -0.192,1.719c-9.417,7.317 -21.234,11.683 -34.055,11.683c-8.87,0 -17.257,-2.097 -24.704,-5.808c-0.687,-0.343 -1.055,-1.11 -0.913,-1.865m-29.997,-47.942c-0,-22.594 13.549,-42.078 32.944,-50.773c0.622,-0.277 1.304,0.274 1.18,0.943l-16.631,88.408c-0.124,0.669 -0.961,0.936 -1.44,0.451c-9.915,-10.048 -16.053,-23.831 -16.053,-39.029m87.005,-43.846l-47.152,53.22c-0.926,1.046 -2.641,0.206 -2.382,-1.167l11.732,-62.375c0.121,-0.646 0.654,-1.143 1.309,-1.205c1.68,-0.156 3.381,-0.241 5.102,-0.241c11.528,-0 22.241,3.536 31.13,9.566c0.733,0.496 0.847,1.538 0.261,2.202m24.225,43.846c0,11.745 -3.665,22.644 -9.902,31.631c-0.458,0.66 -1.437,0.68 -1.941,0.052l-27.806,-34.675c-0.561,-0.7 -0.535,-1.702 0.058,-2.374l25.671,-28.974c0.55,-0.62 1.54,-0.606 2.052,0.046c7.429,9.454 11.868,21.366 11.868,34.294m-49.26,-69.35c-43.377,-3.867 -79.568,32.321 -75.706,75.7c2.963,33.254 29.74,60.033 62.993,62.999c43.382,3.869 79.575,-32.322 75.707,-75.703c-2.964,-33.252 -29.741,-60.03 -62.994,-62.996"
    style="fill:#966fc6;fill-rule:nonzero;"
  /><rect
    x="770.239"
    y="715.452"
    width="1346.26"
    height="1315.41"
    style="fill:none;"
  /><clipPath id="_clip1"><rect
      x="770.239"
      y="715.452"
      width="1346.26"
      height="1315.41"
    /></clipPath><g clip-path="url(#_clip1)"><g id="Layer_1-2"><rect
        x="614.837"
        y="715.6"
        width="2411.29"
        height="1315.25"
        style="fill:#fff;"
      /><rect
        x="614.837"
        y="715.6"
        width="2411.29"
        height="1315.25"
        style="fill:#e7e7e8;"
      /><path
        d="M1640.78,1187.98l22.132,87.148l171.572,-73.799l-35.114,-87.332l-158.59,73.983Z"
        style="fill:#c0eeae;fill-rule:nonzero;"
      /><path
        d="M968.842,1147.25l8.489,62.603c-0,0 51.298,-9.906 79.359,-10.2c28.061,-0.295 36.568,9.317 60.1,10.513c23.531,1.197 214.307,-28.853 214.307,-28.853l-9.924,-69.158l-352.331,35.095Z"
        style="fill:#c0eeae;fill-rule:nonzero;"
      /><path
        d="M2282.32,1466.29l-81.992,-170.613l28.356,-52.827l70.282,46.235l65.973,129.498l-82.619,47.707Z"
        style="fill:#c0eeae;fill-rule:nonzero;"
      /><path
        d="M2014.55,1751.14c-0,0 55.699,62.199 74.204,60.763c18.505,-1.436 205.911,-41.245 205.911,-41.245l-30.363,-99.779c0,-0 -44.191,36.825 -80.004,41.208c-35.813,4.382 -42.534,4.308 -53.636,1.233c-11.103,-3.075 -77.058,-31.449 -77.058,-31.449l-39.054,69.269Z"
        style="fill:#c0eeae;fill-rule:nonzero;"
      /><path
        d="M1582.6,1944.95c0,0 61.15,66.728 69.362,85.896l54.76,0l70.705,-102.21c0,0 -31.302,-17.529 -41.65,-29.865c-10.348,-12.337 -36.549,-49.715 -36.549,-49.715l-116.628,95.894Z"
        style="fill:#c0eeae;fill-rule:nonzero;"
      /><path
        d="M2825.49,1589.35l-8.635,113.036c-0,0 -73.983,11.287 -112.816,0c-38.833,-11.287 -127.638,-61.867 -127.638,-61.867l11.048,-94.329c-0,-0 60.431,25.281 104.198,27.748c43.768,2.467 133.843,15.412 133.843,15.412Z"
        style="fill:#c0eeae;fill-rule:nonzero;"
      /><path
        d="M2799.58,1048.84l32.682,184.184l71.626,-17.29l-38.943,-186.191l-65.365,19.297Z"
        style="fill:#c0eeae;fill-rule:nonzero;"
      /><path
        d="M2692.93,715.6c0,-0 -7.641,38.961 7.899,40.821c15.541,1.86 67.318,-15.412 80.262,1.234c12.944,16.645 17.253,48.702 17.253,48.702l79.893,23.531l38.483,-78.402l-61.646,-35.886l-162.144,-0Z"
        style="fill:#c0eeae;fill-rule:nonzero;"
      /><path
        d="M1227.36,1479.97c0,0 23.513,57.688 22.28,114.657c-0,0 68.44,-29.939 99.263,-77.334c30.824,-47.395 40.085,-65.955 40.085,-65.955c0,0 -58.571,-56.73 -73.983,-94.329l-87.645,122.961Z"
        style="fill:#c0eeae;fill-rule:nonzero;"
      /><path
        d="M669.909,1626.13c0,0 -14.73,58.369 -7.365,95.747c0,0 39.846,4.512 68.423,18.91c28.576,14.399 63.211,35.998 63.211,35.998l-86.043,-174.094l-38.226,23.439Z"
        style="fill:#c0eeae;fill-rule:nonzero;"
      /><path
        d="M773.077,1893.29l115.135,88.787l54.41,-80.465l-131.946,-118.671l-37.599,110.349Z"
        style="fill:#c0eeae;fill-rule:nonzero;"
      /><path
        d="M1081.33,1643.39c-0,1.234 27.619,66.802 27.619,66.802c-0,0 43.068,-30.418 51.096,-33.438l-25.281,-55.588l-53.434,22.224Z"
        style="fill:#c0eeae;fill-rule:nonzero;"
      /><path
        d="M2167.65,715.6l4.935,78.42l144.264,-17.253l-9.243,-61.167l-139.956,-0Z"
        style="fill:#c0eeae;fill-rule:nonzero;"
      /><path
        d="M2879.93,1904.39l33.144,48.407l113.091,-49.236l0,-55.478c0,0 -112.926,30.823 -146.235,56.307Z"
        style="fill:#c0eeae;fill-rule:nonzero;"
      /><path
        d="M1839.83,1797.25c70.724,33.143 526.258,229.148 536.257,233.604l157.374,0c-27.122,-16.001 -205.432,-91.18 -426.773,-179.488c-56.841,-22.667 -114.454,-51.114 -151.427,-67.925c-139.533,-63.414 -188.106,-118.653 -224.03,-166.324c-31.302,-41.429 -162.898,-199.466 -172.768,-458.977c-9.317,-245.149 16.461,-441.431 16.461,-441.431l-71.81,0c0,0 -28.687,371.646 -23.439,429.352c18.136,200.056 90.038,364.041 107.881,403.886c26.956,60.302 107.162,179.305 252.274,247.303Z"
        style="fill:#83d1fb;fill-rule:nonzero;"
      /><path
        d="M2322.39,1444.12l-38.004,-67.704l6.315,-4.051l38.888,70.448l-7.199,1.307Z"
        style="fill:#f7f7f7;fill-rule:nonzero;"
      /><path
        d="M1121.55,942.103l-187.565,1.637l0.096,10.973l187.564,-1.637l-0.095,-10.973Z"
        style="fill:#f7f7f7;"
      /><path
        d="M1131.06,1071.37c-7.446,-38.337 -12.702,-77.066 -15.743,-116.001c-2.431,-29.755 4.64,-103.941 4.953,-107.089l10.919,1.049c-0,0.774 -7.366,76.359 -4.935,105.138c2.994,38.483 8.183,76.765 15.54,114.657l-10.734,2.246Z"
        style="fill:#f7f7f7;fill-rule:nonzero;"
      /><path
        d="M976.852,1299.4c0.154,-0.055 0.315,-0.086 0.479,-0.092c-0.166,0 -4.419,0.331 -27.62,-1.841c-15.669,-1.492 -47.173,-39.128 -68.035,-64.04c-10.68,-12.76 -19.923,-23.79 -26.294,-29.571c-15.559,-14.105 -97.054,-36.237 -172.234,-55.883c-12.889,-3.407 -23.218,-6.077 -28.613,-7.642c-11.398,-3.332 -24.876,-1.233 -39.698,5.764l-0,12.355c14.214,-7.771 26.846,-10.44 36.825,-7.587c5.524,1.584 15.835,4.291 28.89,7.697c25.925,6.776 65.108,17.014 98.84,27.104c49.071,14.73 64.445,22.408 68.791,26.293c5.818,5.285 14.73,16.038 25.244,28.485c31.302,37.397 56.73,66.139 75.493,67.925c9.869,0.939 21.672,1.934 27.453,1.934c0.998,0.03 1.997,-0.031 2.983,-0.185l-2.504,-10.716Z"
        style="fill:#f7f7f7;fill-rule:nonzero;"
      /><path
        d="M664.036,1419.67c-3.247,-8.363 -6.002,-16.909 -8.249,-25.594c-3.222,-12.889 -6.316,-30.51 3.922,-36.144c0.939,-0.516 98.067,-51.685 127.196,-48.776c5.837,0.589 13.883,1.841 23.182,3.112c29.46,4.29 73.872,10.79 93.058,4.548c24.858,-8.102 37.121,-19.131 37.249,-19.242l7.366,8.065c-0.571,0.516 -13.939,12.687 -41.3,21.598c-21.617,7.034 -65.79,0.59 -98.031,-4.106c-9.206,-1.344 -17.105,-2.504 -22.684,-3.056c-5.579,-0.553 -20.77,1.381 -63.893,20.162c-26.367,11.489 -51.317,24.213 -56.932,27.306c-0.847,0.46 -3.075,5.855 1.417,23.771c2.138,8.246 4.751,16.361 7.826,24.305l-10.127,4.051Z"
        style="fill:#f7f7f7;fill-rule:nonzero;"
      /><path
        d="M718.943,1333.35c-0.792,-26.385 5.837,-68.33 11.545,-98.877c3.682,-19.536 7.126,-35.647 8.893,-43.491c4.217,-18.891 4.843,-19.849 5.395,-20.678l9.207,6.077c0.203,-0.298 0.37,-0.62 0.497,-0.958c-2.191,6.242 -25.926,110.054 -24.489,157.596l-11.048,0.331Z"
        style="fill:#f7f7f7;fill-rule:nonzero;"
      /><path
        d="M969.119,1220.41l-1.455,-10.864c0.534,0 53.397,-7.125 78.917,-10.771c10.275,-1.473 18.929,0.331 29.921,2.596c18.542,3.83 43.934,9.096 95.968,1.712c81.698,-11.581 171.24,-25.152 172.087,-25.28l1.657,10.845c-0.902,0.129 -90.444,13.699 -172.215,25.299c-53.913,7.641 -80.391,2.154 -99.725,-1.841c-10.311,-2.136 -17.768,-3.683 -26.127,-2.486c-25.65,3.664 -78.494,10.735 -79.028,10.79Z"
        style="fill:#f7f7f7;fill-rule:nonzero;"
      /><path
        d="M1326.56,1104.35l-366.103,34.478l1.029,10.926l366.103,-34.478l-1.029,-10.926Z"
        style="fill:#f7f7f7;"
      /><path
        d="M836.38,1197.52l-10.955,-0.755c-0,-1.068 7.273,-106.298 6.665,-164.63c-0.608,-58.332 0.608,-210.183 0.626,-211.748l11.048,0c-0,1.529 -1.234,153.011 -0.626,211.509c0.607,58.498 -6.684,164.556 -6.758,165.624Z"
        style="fill:#f7f7f7;fill-rule:nonzero;"
      /><path
        d="M933.711,947.013c-0.405,-0 -42.147,2.541 -78.31,7.089c-27.141,3.424 -41.963,10.697 -55.018,17.105c-4.806,2.357 -9.354,4.585 -14.104,6.389c-11.048,4.18 -27.251,2.836 -42.957,1.547c-7.623,-0.626 -15.504,-1.27 -22.777,-1.289c-0.589,-0.552 -3.462,-4.087 -4.474,-22.095c-0.755,-13.276 -0.35,-30.289 -0,-46.751c0.423,-17.473 0.828,-33.971 -0,-46.768c-0.829,-12.797 -3.02,-25.778 -12.669,-26.331c-14.251,-0.92 -63.174,-0.515 -88.584,-0.221l0,11.048c24.858,-0.276 72.621,-0.681 87.222,0.147c0.7,1.032 2.633,5.174 3.314,20.015c0.534,11.803 0.166,26.423 -0.202,41.908c-1.031,41.871 -1.031,67.925 7.494,76.671c1.986,2.128 4.767,3.342 7.678,3.351c6.886,0 14.27,0.608 22.095,1.252c7.826,0.645 15.983,1.308 23.679,1.308c8.169,0.266 16.319,-0.931 24.066,-3.536c5.229,-1.988 9.998,-4.327 15.043,-6.794c12.3,-6.039 26.239,-12.889 51.556,-16.074c35.795,-4.512 77.169,-6.997 77.592,-7.016l-0.644,-10.955Z"
        style="fill:#f7f7f7;fill-rule:nonzero;"
      /><path
        d="M1464.54,985.606c-0.497,-0.11 -50.285,-11.563 -73.964,-11.048c-24.195,0.608 -70.927,5.524 -71.405,5.524l-1.142,-10.9c1.933,-0.203 47.652,-4.972 72.271,-5.524c25.078,-0.626 74.608,10.753 76.708,11.25l-2.468,10.698Z"
        style="fill:#f7f7f7;fill-rule:nonzero;"
      /><path
        d="M1372.19,1129.69c-14.715,0.203 -29.416,-0.962 -43.915,-3.48l2.191,-10.735l-1.105,5.377l1.087,-5.377c0.534,0.092 53.581,10.458 119.683,-6.629l2.744,10.606c-26.358,6.79 -53.467,10.23 -80.685,10.238Z"
        style="fill:#f7f7f7;fill-rule:nonzero;"
      /><path
        d="M1331.23,741.378c-3.462,-2.394 -20.53,-13.607 -39.054,-25.778l-19.996,-0c21.911,14.325 46.032,30.123 52.035,34.192c0.755,2.394 2.504,13.276 -1.252,59.861c-2.191,27.159 -5.174,53.121 -5.193,53.397l10.882,1.252c0,-0.276 3.278,-28.503 5.524,-57.08c1.307,-16.829 2.007,-30.51 2.081,-40.637c0.092,-18.247 -1.694,-22.961 -5.027,-25.207Z"
        style="fill:#f7f7f7;fill-rule:nonzero;"
      /><path
        d="M1252.92,715.6l-12.244,-0c-9.538,19.186 -22.096,44.54 -27.38,56.343c-5.211,11.434 -8.323,33.364 -10.035,49.715c-1.326,12.889 -2.781,33.474 -2.026,36.531l10.643,-2.651c0.054,0.192 0.091,0.389 0.11,0.589c-0.405,-5.248 3.002,-61.426 11.287,-79.654c5.782,-12.705 19.96,-41.429 29.645,-60.873Z"
        style="fill:#f7f7f7;fill-rule:nonzero;"
      /><path
        d="M1385.77,715.6l-11.306,-0c3.5,15.384 8.33,30.435 14.436,44.982c3.848,8.746 5.782,31.044 5.524,62.825c-0.239,24.784 -1.841,47.063 -1.841,47.284l10.955,0.755c0,-0.239 1.547,-22.776 1.842,-47.873c0.349,-34.285 -1.842,-56.97 -6.371,-67.41c-5.533,-13.13 -9.961,-26.698 -13.239,-40.563Z"
        style="fill:#f7f7f7;fill-rule:nonzero;"
      /><path
        d="M1056.91,1590.21l-3.848,-10.311c1.252,-0.479 125.815,-47.616 154.208,-78.365c28.981,-31.302 158.571,-228.78 159.879,-230.769l9.206,6.003c-5.358,8.157 -131.394,200.148 -160.984,232.204c-30.215,32.646 -153.25,79.231 -158.461,81.238Z"
        style="fill:#f7f7f7;fill-rule:nonzero;"
      /><path
        d="M1253.52,1843.46c-0,-1.455 -4.143,-146.107 -6.574,-195.637c-0.939,-19.002 -2.246,-34.138 -3.296,-46.29c-1.749,-20.365 -2.909,-33.806 -0.755,-46.235c2.505,-14.325 -12.042,-58.626 -17.842,-74.498l10.293,-3.683c2.247,6.113 21.801,60.339 18.413,80.133c-1.841,11.048 -0.81,23.937 0.884,43.417c1.049,12.245 2.357,27.491 3.314,46.677c2.431,49.715 6.537,194.422 6.574,195.895l-11.011,0.221Z"
        style="fill:#f7f7f7;fill-rule:nonzero;"
      /><path
        d="M1079.01,1647.79l-3.683,-10.348c0.718,-0.258 72.289,-25.557 105.966,-45.609c34.045,-20.254 63.635,-39.956 63.93,-40.158l6.094,9.206c-0.294,0.203 -30.123,20.052 -64.445,40.509c-34.542,20.475 -104.88,45.35 -107.862,46.4Z"
        style="fill:#f7f7f7;fill-rule:nonzero;"
      /><path
        d="M1111.98,1712.82l-6.518,-8.82c0.442,-0.313 10.79,-7.935 22.942,-15.632c23.053,-14.583 31.394,-16.038 35.648,-15.872l3.903,0c5.386,-0.363 10.797,-0.016 16.093,1.031c4.493,1.087 12.189,4.309 13.22,13.497c0.424,3.885 0.866,7.881 1.842,8.783c0.976,0.902 5.634,1.473 12.889,1.16l42.478,-1.934l0.516,11.048l-42.516,1.841c-9.74,0.424 -16.221,0 -20.585,-3.793c-4.364,-3.793 -4.916,-9.077 -5.671,-15.89c-0.369,-3.185 -3.572,-5.211 -18.082,-4.769l-4.658,0c-1.308,0 -8.157,0.792 -29.295,14.141c-11.692,7.476 -22.114,15.136 -22.206,15.209Z"
        style="fill:#f7f7f7;fill-rule:nonzero;"
      /><path
        d="M1196.2,1686.22l-11.047,-0c-0,-37.471 -6.463,-89.689 -6.537,-90.223l10.882,-1.363c0.147,0.534 6.702,53.434 6.702,91.586Z"
        style="fill:#f7f7f7;fill-rule:nonzero;"
      /><path
        d="M1153.91,1679.07c-4.419,-11.821 -43.233,-115.651 -43.73,-117.105l10.348,-3.683l-5.174,1.841l5.174,-1.841c0.644,1.841 28.834,77.334 43.656,116.922l-10.274,3.866Z"
        style="fill:#f7f7f7;fill-rule:nonzero;"
      /><path
        d="M1186.3,1687.42l-1.495,108.442l10.973,0.151l1.495,-108.442l-10.973,-0.151Z"
        style="fill:#f7f7f7;"
      /><path
        d="M767.342,1553.17l-7.655,7.863l153.257,149.193l7.655,-7.864l-153.257,-149.192Z"
        style="fill:#f7f7f7;"
      /><path
        d="M859.912,1414.15c-1.223,-10.243 -2.98,-20.414 -5.266,-30.473l-10.68,2.541c3.48,14.583 10.772,55.975 2.873,72.215c-4.419,9.078 -36.513,42.718 -76.322,79.986c-42.257,39.532 -78.162,69.398 -91.493,76.045c-11.6,5.818 -33.769,6.665 -64.095,2.504l-0.092,-0l-0,11.048c11.014,1.523 22.116,2.341 33.235,2.448c13.883,0 26.754,-1.657 35.85,-6.205c17.234,-8.617 59.897,-45.866 94.089,-77.849c32.37,-30.289 72.51,-70.264 78.697,-83.245c4.861,-9.851 5.892,-26.367 3.204,-49.015Z"
        style="fill:#f7f7f7;fill-rule:nonzero;"
      /><path
        d="M711.745,1599.08l-9.767,5.004l88.776,173.26l9.767,-5.004l-88.776,-173.26Z"
        style="fill:#f7f7f7;"
      /><path
        d="M688.321,1725.76l-4.33,97.99l10.963,0.485l4.33,-97.99l-10.963,-0.485Z"
        style="fill:#f7f7f7;"
      /><path
        d="M646.138,1819.99l-10.642,-2.633c0.221,-0.865 21.359,-86.54 18.983,-115.485c-1.067,-13.11 1.05,-30.842 6.279,-52.68c3.849,-16.092 7.936,-28.245 8.12,-28.761l10.404,3.517c-0.166,0.479 -16.185,48.297 -13.847,77.04c2.431,30.768 -18.468,115.412 -19.297,119.002Z"
        style="fill:#f7f7f7;fill-rule:nonzero;"
      /><path
        d="M798.026,1784.94c-19.959,-12.115 -75.032,-44.356 -90.02,-47.873c-18.892,-4.382 -49.568,-11.269 -49.881,-11.324l2.412,-10.716c0.313,-0 31.008,6.978 49.936,11.361c19.757,4.584 90.223,47.339 93.261,49.143l-5.708,9.409Z"
        style="fill:#f7f7f7;fill-rule:nonzero;"
      /><path
        d="M1057.67,2030.85l24.857,0c-23.052,-11.195 -78.457,-38.667 -96.023,-53.176c-22.574,-18.542 -57.908,-53.066 -58.258,-53.397l-7.752,7.825c0.35,0.35 36.034,35.205 58.921,54.042c14.547,11.876 51.556,31.246 78.255,44.706Z"
        style="fill:#f7f7f7;fill-rule:nonzero;"
      /><path
        d="M962.545,2030.85c-7.494,-5.965 -17.308,-13.791 -27.104,-21.561c-11.747,-9.317 -21.156,-16.756 -27.969,-22.096c-14.307,-11.195 -14.307,-11.195 -16.571,-11.195l-0,11.048c-0.925,0.005 -1.834,-0.236 -2.633,-0.7c2.817,1.842 30.344,23.55 56.73,44.56l17.547,-0.056Z"
        style="fill:#f7f7f7;fill-rule:nonzero;"
      /><path
        d="M1073.43,1965.94c0.221,0.092 5.119,2.559 10.477,28.816c2.486,12.208 4.291,25.649 5.524,36.089l11.048,0c-1.307,-10.79 -3.204,-25.152 -5.874,-38.262c-5.781,-28.466 -11.987,-34.542 -16.737,-36.66c-1.841,-0.791 -10.164,-6.389 -43.804,-45.295c-18.284,-21.12 -35.095,-41.779 -35.261,-41.982l-8.47,6.96c0.166,0.221 17.069,20.991 35.445,42.24c37.875,43.748 44.983,46.915 47.652,48.094Z"
        style="fill:#f7f7f7;fill-rule:nonzero;"
      /><path
        d="M1085.43,1969.52l-8.268,-7.199c7.592,-8.589 15.769,-16.642 24.471,-24.103c16.111,-13.515 63.451,-56.73 73.504,-76.432c12.005,-23.568 60.763,-39.495 62.843,-40.158l3.37,10.44c-12.889,4.161 -48.187,18.413 -56.436,34.69c-13.349,26.183 -75.621,79.341 -76.229,79.856c-8.262,7.1 -16.031,14.753 -23.255,22.906Z"
        style="fill:#f7f7f7;fill-rule:nonzero;"
      /><path
        d="M1197.36,2030.85c-1.141,-50.451 -0.165,-85.38 2.781,-96.943c4.4,-17.29 49.199,-63.12 66.084,-79.305l-7.605,-7.917c-0.147,0.147 -15.761,15.154 -31.873,32.719c-22.408,24.453 -34.579,41.393 -37.23,51.796c-4.088,16.074 -3.922,64.021 -3.131,99.65l10.974,0Z"
        style="fill:#f7f7f7;fill-rule:nonzero;"
      /><path
        d="M919.313,1700.03l-7.653,7.865l122.576,119.284l7.654,-7.865l-122.577,-119.284Z"
        style="fill:#f7f7f7;"
      /><path
        d="M1066.69,1810.3c-0.11,-0.203 -12.023,-20.622 -22.758,-41.595c-19.702,-38.446 -20.586,-48.389 -15.154,-52.937c0.295,-0.534 2.21,-5.008 -1.344,-22.74c-1.487,-7.505 -3.424,-14.914 -5.8,-22.187c0.116,0.249 0.252,0.49 0.405,0.718l9.115,-6.076c1.454,2.172 5.229,16.295 7.088,25.667c4.254,21.359 1.842,28.688 -1.362,32.057c0.11,2.357 1.841,11.895 18.615,44.007c10.091,19.389 20.567,37.378 20.678,37.562l-9.483,5.524Z"
        style="fill:#f7f7f7;fill-rule:nonzero;"
      /><path
        d="M973.887,1757.77l-8.046,-7.365c18.063,-19.536 32.922,-30.271 45.406,-32.793c11.895,-2.394 19.297,3.038 23.716,6.297c0.81,0.621 1.652,1.198 2.523,1.731c1.841,0.257 11.876,-0.111 58.921,-20.052c2.044,-0.865 2.264,-0.976 2.596,-1.086l3.48,10.403l0.184,-0l-1.988,0.828c-51.299,21.599 -62.917,22.298 -67.87,19.794c-1.526,-0.821 -2.98,-1.769 -4.346,-2.835c-3.885,-2.873 -7.917,-5.819 -15.043,-4.383c-10.072,2.026 -23.348,11.95 -39.533,29.461Z"
        style="fill:#f7f7f7;fill-rule:nonzero;"
      /><path
        d="M811.498,1775.58l-7.497,8.014l134.09,125.435l7.496,-8.014l-134.089,-125.435Z"
        style="fill:#f7f7f7;"
      /><path
        d="M886.261,1985.85c-46.769,-36.071 -117.714,-90.628 -121.433,-93.095c0.345,0.218 0.716,0.391 1.105,0.515l3.572,-10.292c1.27,0.423 1.841,0.589 63.082,47.744c29.976,23.016 60.155,46.29 60.45,46.529l-6.776,8.599Z"
        style="fill:#f7f7f7;fill-rule:nonzero;"
      /><path
        d="M1437.74,1886.01c15.983,9.574 37.636,17.639 60.542,26.183c17.768,6.61 36.144,13.46 54.613,21.856c33.677,15.301 58.681,43.988 73.743,65.366c7.063,10.05 13.466,20.549 19.168,31.43l12.318,0c-6.344,-12.709 -13.599,-24.942 -21.709,-36.604c-15.964,-22.888 -42.625,-53.656 -78.972,-70.172c-18.818,-8.562 -37.379,-15.467 -55.239,-22.095c-45.056,-16.793 -80.648,-30.069 -83.429,-55.92c-4.253,-39.79 -10.219,-104.53 -10.274,-105.193l-10.919,1.013c-0,0.644 6.021,65.476 10.293,105.358c1.565,15.209 11.066,27.546 29.865,38.778Z"
        style="fill:#f7f7f7;fill-rule:nonzero;"
      /><path
        d="M1410.75,1841.76l-134.496,67.057l4.897,9.821l134.496,-67.057l-4.897,-9.821Z"
        style="fill:#f7f7f7;"
      /><path
        d="M1445.94,2030.85c6.224,-38.667 18.56,-106.076 24.25,-136.568l-10.79,-2.007c-2.21,11.803 -17.455,93.777 -24.563,138.575l11.103,0Z"
        style="fill:#f7f7f7;fill-rule:nonzero;"
      /><path
        d="M1680.24,1835.8c11.618,12.889 21.635,24.157 27.122,32.185c3.057,4.512 5.708,8.728 8.286,12.889c14.123,22.483 24.323,38.667 73.357,56.51c33.382,12.097 42.552,48.425 50.654,80.482c1.141,4.511 2.246,8.894 3.388,13.055l11.379,-0c-1.418,-4.972 -2.762,-10.311 -4.143,-15.743c-8.323,-32.978 -18.689,-74.02 -57.54,-88.106c-45.499,-16.571 -54.374,-30.639 -67.815,-52.034c-2.615,-4.162 -5.321,-8.47 -8.507,-13.147c-5.892,-8.636 -16.129,-20.089 -28.006,-33.346c-27.969,-31.191 -66.286,-73.928 -69.177,-105.948c-4.253,-46.989 -6.426,-75.308 -6.426,-75.658l-10.937,0.847c-0,0.276 2.228,28.724 6.5,75.732c3.185,35.647 41.263,78.126 71.865,112.282Z"
        style="fill:#f7f7f7;fill-rule:nonzero;"
      /><path
        d="M1713.2,2030.85l69.785,-100.368l-9.023,-6.261l-74.111,106.629l13.349,0Z"
        style="fill:#f7f7f7;fill-rule:nonzero;"
      /><path
        d="M1593.19,1825.07c-4.051,0 -8.182,-0.11 -12.392,-0.331c-28.098,-1.529 -42.165,-15.596 -55.754,-29.203c-10.146,-10.146 -19.702,-19.72 -35.298,-25.41c-36.31,-13.257 -81.348,5.855 -81.808,6.058l-4.345,-10.072c1.988,-0.865 49.457,-21.064 89.91,-6.297c17.879,6.536 28.761,17.418 39.293,27.969c13.257,13.257 24.691,24.71 48.591,25.999c27.314,1.3 54.652,-2.037 80.851,-9.869l3.517,10.385c-23.518,7.18 -47.976,10.811 -72.565,10.771Z"
        style="fill:#f7f7f7;fill-rule:nonzero;"
      /><path
        d="M1696.09,1845.07l-116.157,96.573l7.015,8.438l116.158,-96.573l-7.016,-8.438Z"
        style="fill:#f7f7f7;"
      /><path
        d="M1549.29,2030.85c-0.755,-10.09 -1.842,-24.36 -3.499,-44.577c-2.651,-32.959 -5.524,-66.029 -5.524,-66.287l-10.937,0.921c2.909,34.764 6.758,81.937 8.875,110.017l11.085,-0.074Z"
        style="fill:#f7f7f7;fill-rule:nonzero;"
      /><path
        d="M2045.13,2030.85c9.206,-30.841 23.016,-76.855 33.53,-111.766l-10.514,-3.167c-0.111,0.368 -11.048,36.568 -21.764,72.473c-5.524,18.413 -9.612,32.094 -12.705,42.46l11.453,0Z"
        style="fill:#f7f7f7;fill-rule:nonzero;"
      /><path
        d="M2167.04,2030.85c6.868,-18.689 16.572,-44.448 23.624,-63.082l-10.256,-3.904c0,0.221 -8.175,21.562 -16.166,42.994c-3.683,10.054 -6.647,17.879 -8.894,23.937l11.692,0.055Z"
        style="fill:#f7f7f7;fill-rule:nonzero;"
      /><path
        d="M1794.79,1809.32c58.922,26.441 179.121,78.089 180.318,78.605l0.349,0.147l0.369,-0c0.202,-0 22.095,6.223 111.305,40.508c60.763,23.403 160.192,72.713 218.156,102.228l24.103,0c-52.716,-27.066 -169.693,-86.061 -238.318,-112.447c-84.699,-32.591 -108.636,-39.809 -111.95,-40.766c-7.034,-3.02 -122.428,-52.661 -179.839,-78.402c-24.672,-11.344 -46.962,-27.278 -65.679,-46.953c-8.32,-8.523 -15.817,-17.814 -22.39,-27.748l-9.335,5.653c6.889,10.561 14.788,20.428 23.587,29.46c19.697,20.873 43.236,37.754 69.324,49.715Z"
        style="fill:#f7f7f7;fill-rule:nonzero;"
      /><path
        d="M1830.86,1974.51l-2.78,-10.514c0.607,-0.166 38.667,-10.532 50.838,-35.408c13.368,-27.14 33.438,-72.546 33.622,-73.007l10.035,4.438c-0.203,0.46 -20.347,46.032 -33.825,73.412c-6.15,12.502 -17.823,23.255 -34.671,31.928c-7.421,3.804 -15.198,6.869 -23.219,9.151Zm-1.381,-5.303l-1.399,-5.303l1.399,5.303Z"
        style="fill:#f7f7f7;fill-rule:nonzero;"
      /><path
        d="M1472.69,1608.18c0,-1.013 -7.917,-101.271 -55.423,-129.056c-21.616,-12.65 -45.664,-36.586 -71.313,-71.202c-11.497,-15.459 -22.208,-31.486 -32.093,-48.021l9.482,-5.524c0.497,0.865 50.709,86.706 99.43,115.228c22.261,13.036 39.274,40.305 50.543,81.016c5.113,18.534 8.552,37.489 10.275,56.638l-10.901,0.921Z"
        style="fill:#f7f7f7;fill-rule:nonzero;"
      /><path
        d="M1253.76,1672.31l-1.142,-10.901l0.571,5.524l-0.571,-5.524c17.718,-2.438 35.124,-6.759 51.925,-12.889c26.109,-9.39 62.327,-27.343 86.54,-59.639c46.806,-62.198 52.624,-85.215 52.679,-85.491l10.698,2.412c-0.202,0.976 -5.818,24.729 -54.52,89.708c-12.207,15.969 -27.174,29.626 -44.191,40.324c-14.989,9.499 -31.006,17.27 -47.745,23.163c-17.542,6.399 -35.732,10.863 -54.244,13.313Z"
        style="fill:#f7f7f7;fill-rule:nonzero;"
      /><path
        d="M1126.9,1293.26l-8.414,7.045l129.248,154.36l8.414,-7.045l-129.248,-154.36Z"
        style="fill:#f7f7f7;"
      /><path
        d="M1001.46,1467.2l-166.169,157.413l7.547,7.967l166.169,-157.413l-7.547,-7.967Z"
        style="fill:#f7f7f7;"
      /><path
        d="M702.481,1408.78l-9.054,6.2l83.918,122.559l9.055,-6.2l-83.919,-122.559Z"
        style="fill:#f7f7f7;"
      /><path
        d="M1252.12,1602.11l-4.75,-9.888c0.663,-0.313 60.762,-29.461 90.481,-70.448c24.121,-33.272 40.361,-63.487 45.59,-74.811l9.961,4.585c-0.626,1.362 -15.853,34.155 -46.658,76.652c-31.32,43.197 -92.064,72.676 -94.624,73.91Z"
        style="fill:#f7f7f7;fill-rule:nonzero;"
      /><path
        d="M1173.08,1358.49l-168.214,121.766l6.435,8.889l168.214,-121.766l-6.435,-8.889Z"
        style="fill:#f7f7f7;"
      /><path
        d="M3026.13,2021.7c-26.57,-14.141 -66.416,-36.2 -89.947,-53.268c-13.442,-9.759 -21.912,-22.869 -30.897,-36.734c-15.449,-23.937 -31.431,-48.573 -73.375,-54.336c-35.648,-4.88 -70.559,-2.412 -101.382,-0.221c-24.213,1.73 -45.13,3.222 -61.48,0.847c-39.993,-5.8 -116.406,-6.795 -146.567,-6.04c-41.263,1.068 -79.414,17.179 -81.016,17.879l4.327,10.072c0.368,-0.147 37.857,-15.982 76.966,-16.977c31.706,-0.81 107.181,0.479 144.725,5.911c17.51,2.559 38.98,1.031 63.837,-0.737c30.271,-2.154 64.574,-4.603 99.098,0.129c36.955,5.082 50.893,26.625 65.66,49.42c9.207,14.123 18.561,28.706 33.659,39.662c23.937,17.418 63.451,39.293 90.223,53.544l6.169,0l-0,-9.151Z"
        style="fill:#f7f7f7;fill-rule:nonzero;"
      /><path
        d="M3026.13,1592.59c-5.248,4.99 -11.453,10.422 -17.916,16.093c-15.688,13.773 -31.91,28.024 -40.877,40.877c-14.914,21.377 -29.276,67.685 -40.821,104.953c-3.112,10.072 -6.058,19.573 -8.617,27.269c-4.511,13.515 -21.414,34.451 -48.886,60.542c-21.12,20.052 -41.08,36.071 -41.282,36.236l6.849,8.562c3.333,-2.669 81.625,-65.586 93.722,-101.878c2.596,-7.807 5.524,-17.363 8.709,-27.49c10.698,-34.561 25.392,-81.901 39.33,-101.879c8.212,-11.766 24.618,-26.183 39.109,-38.906c3.867,-3.388 7.365,-6.518 10.68,-9.446l-0,-14.933Z"
        style="fill:#f7f7f7;fill-rule:nonzero;"
      /><path
        d="M3026.13,1843.59c-9.87,2.284 -21.544,5.266 -34.009,8.931c-31.725,9.335 -77.334,25.778 -114.307,50.635l6.131,9.096c46.566,-31.302 106.795,-49.033 142.185,-57.374l-0,-11.288Z"
        style="fill:#f7f7f7;fill-rule:nonzero;"
      /><path
        d="M3026.13,1895.87l-4.014,1.841c-11.048,4.934 -26.46,11.802 -45.628,20.42c-32.627,14.73 -65.439,29.571 -65.77,29.718l4.529,9.98c35.298,-16.001 83.447,-37.728 110.883,-49.917l-0,-12.042Z"
        style="fill:#f7f7f7;fill-rule:nonzero;"
      /><path
        d="M2594.35,1962.94c0.063,-0.107 0.118,-0.218 0.165,-0.332l-10.035,-4.419c0.811,-1.841 19.739,-29.46 56.252,-82.213l9.004,6.242c-21.23,30.639 -53.508,77.444 -55.386,80.722Z"
        style="fill:#f7f7f7;fill-rule:nonzero;"
      /><path
        d="M2559.86,2030.85l21.47,0c-37.618,-22.316 -112.687,-66.507 -137.379,-78.549c-32.627,-15.89 -293.666,-130.492 -296.299,-131.652l-4.401,10.053c2.633,1.142 263.451,115.652 295.895,131.468c21.027,10.219 80.887,45.167 120.714,68.68Z"
        style="fill:#f7f7f7;fill-rule:nonzero;"
      /><path
        d="M1641.26,1077.06l-0.479,-10.956c1.013,0 101.271,-4.493 129.351,-21.451c27.619,-16.682 56.545,-50.598 69.269,-69.324c11.931,-17.585 59.216,-61.886 61.223,-63.764l7.494,8.009c-0.479,0.461 -48.408,45.333 -59.64,61.905c-13.257,19.536 -43.546,54.98 -72.675,72.565c-30.418,18.394 -130.308,22.85 -134.543,23.016Z"
        style="fill:#f7f7f7;fill-rule:nonzero;"
      /><path
        d="M2273.28,1466.29c-0.185,-0.405 -17.419,-40.379 -35.777,-81.164c-33.051,-73.356 -41.005,-85.546 -42.846,-87.534c-2.983,-1.731 -9.704,-6.426 -21.838,-14.933c-13.718,-9.649 -30.823,-21.654 -46.032,-31.615c-23.44,-15.283 -29.903,-17.363 -31.597,-17.548l-3.406,-0.386c-88.511,-10.238 -150.065,-10.809 -173.302,-1.602c-38.667,15.301 -232.702,123.2 -234.654,124.287l-5.321,-9.575c7.991,-4.456 196.557,-109.336 235.924,-124.913c31.928,-12.631 114.749,-6.481 178.605,0.902l3.351,0.387c10.054,1.123 36.826,18.818 82.858,51.077c10.127,7.126 18.892,13.276 21.212,14.546c2.891,1.566 7.273,3.959 46.032,89.947c18.818,41.724 36.826,83.374 36.954,83.779l-10.163,4.345Z"
        style="fill:#f7f7f7;fill-rule:nonzero;"
      /><path
        d="M1996.24,1218.54l-10.077,4.346l149.712,347.126l10.076,-4.346l-149.711,-347.126Z"
        style="fill:#f7f7f7;"
      /><path
        d="M2102.36,1228.42l-10.074,4.353l115.166,266.516l10.074,-4.353l-115.166,-266.516Z"
        style="fill:#f7f7f7;"
      /><path
        d="M1812.41,1583.03l-6.057,-9.207c1.104,-0.718 110.145,-72.822 160.726,-101.767c50.58,-28.945 106.794,-54.668 107.402,-54.926l4.548,9.98c-0.553,0.239 -56.307,25.778 -106.5,54.465c-50.194,28.687 -159.014,100.737 -160.119,101.455Z"
        style="fill:#f7f7f7;fill-rule:nonzero;"
      /><path
        d="M1726.97,1476.82l-5.156,-9.685c2.173,-1.141 217.143,-115.246 310.147,-152.421l4.069,10.2c-92.47,36.973 -306.924,150.765 -309.06,151.906Z"
        style="fill:#f7f7f7;fill-rule:nonzero;"
      /><path
        d="M1911.86,1666.38l-7.88,-7.623c3.24,-3.351 79.783,-82.195 110.164,-106.003c30.381,-23.808 89.578,-55.92 92.064,-57.264l5.229,9.648c-0.607,0.314 -60.762,32.941 -90.554,56.233c-29.792,23.293 -108.231,104.199 -109.023,105.009Z"
        style="fill:#f7f7f7;fill-rule:nonzero;"
      /><path
        d="M1992.8,1463.58l-9.147,6.063l100.869,152.167l9.147,-6.064l-100.869,-152.166Z"
        style="fill:#f7f7f7;"
      /><path
        d="M1817.54,1422.43l-8.919,6.393l73.475,102.516l8.92,-6.393l-73.476,-102.516Z"
        style="fill:#f7f7f7;"
      /><path
        d="M1853.59,1249.99l-9.409,5.647l71.489,119.12l9.41,-5.648l-71.49,-119.119Z"
        style="fill:#f7f7f7;"
      /><path
        d="M1815.12,1663.2c-26.275,-29.314 -105.745,-143.492 -106.537,-144.634c-56.895,-81.918 -94.55,-190.923 -111.913,-324.066c-13.902,-106.574 -10.68,-197.239 -9.299,-235.961c0.258,-6.997 0.442,-12.042 0.442,-15.172c0,-31.449 21.175,-191.199 26.091,-227.841l-11.047,0c-5.322,39.735 -25.981,195.674 -25.981,227.841c0,2.928 -0.184,7.899 -0.423,14.73c-1.4,38.999 -4.659,130.29 9.372,237.766c17.602,134.819 55.883,245.443 113.791,328.835c0.792,1.142 80.649,115.891 107.366,145.701c24.986,27.877 187.903,120.954 194.826,124.913l5.524,-9.538c-1.804,-0.829 -168.404,-96.005 -192.212,-122.574Z"
        style="fill:#f7f7f7;fill-rule:nonzero;"
      /><path
        d="M2174.41,715.6l-11.047,-0c0.092,18.413 0.35,42.184 0.939,67.17c1.841,74.093 5.689,123.605 11.582,147.192c13.846,55.368 36.328,136.256 36.567,137.084l10.551,-2.928c-0.221,-0.81 -22.666,-81.587 -36.476,-136.807c-9.924,-39.809 -11.839,-152.698 -12.116,-211.711Z"
        style="fill:#f7f7f7;fill-rule:nonzero;"
      /><path
        d="M1982.4,715.6l-82.434,194.661l10.108,4.271l84.239,-198.932l-11.913,-0Z"
        style="fill:#f7f7f7;fill-rule:nonzero;"
      /><path
        d="M1835,715.6c-1.381,13.883 -3.885,39.753 -8.507,88.381c-4.824,50.691 -9.63,101.824 -9.685,102.321l10.937,1.031c4.309,-45.903 14.455,-153.361 18.266,-191.752l-11.011,0.019Z"
        style="fill:#f7f7f7;fill-rule:nonzero;"
      /><path
        d="M1840.63,749.839l-3.403,10.434l115.381,37.623l3.402,-10.434l-115.38,-37.623Z"
        style="fill:#f7f7f7;"
      /><path
        d="M2768.3,748.743c-14.159,-1.841 -30.51,0.35 -44.946,2.228c-4.787,0.626 -9.317,1.215 -13.22,1.565c-4.382,0.405 -6.334,-1.197 -7.365,-2.449c-5.524,-6.242 -4.788,-22.832 -2.817,-34.45l-11.048,-0c-1.694,10.937 -3.333,31.412 5.671,41.668c4.142,4.691 10.37,7.01 16.572,6.168c4.106,-0.368 8.727,-0.976 13.607,-1.62c13.791,-1.841 29.46,-3.812 42.165,-2.21c17.327,2.191 20.751,10.311 21.819,16.222c5.69,31.21 39.533,256.252 39.883,258.517l10.845,-1.621c-0.332,-2.283 -34.211,-227.472 -39.919,-258.866c-2.633,-14.436 -13.129,-22.906 -31.247,-25.152Z"
        style="fill:#f7f7f7;fill-rule:nonzero;"
      /><path
        d="M2868.66,871.299c2.522,-15.927 47.873,-104.125 75.014,-155.699l-12.411,-0c-24.433,46.363 -70.539,135.592 -73.449,153.987c-3.682,23.807 23.514,144.559 26.625,158.35l10.698,-2.449c-8.359,-36.715 -29.387,-135.813 -26.477,-154.189Z"
        style="fill:#f7f7f7;fill-rule:nonzero;"
      /><path
        d="M3026.13,807.664c-17.419,-9.851 -43.031,-24.25 -80.686,-45.406l-83.152,-46.658l-22.445,-0c51.371,28.779 139.68,78.31 186.283,104.677l-0,-12.613Z"
        style="fill:#f7f7f7;fill-rule:nonzero;"
      /><path
        d="M2958.33,1016.76c0,-4.051 -1.841,-99.614 3.683,-141.485c5.524,-42.46 25.98,-80.575 26.846,-82.177l9.648,5.211c-0.202,0.369 -20.254,38.004 -25.63,78.402c-5.524,41.061 -3.683,138.852 -3.683,139.846l-10.864,0.203Z"
        style="fill:#f7f7f7;fill-rule:nonzero;"
      /><path
        d="M2798.77,797.924l-3.254,10.481l81.452,25.291l3.255,-10.48l-81.453,-25.292Z"
        style="fill:#f7f7f7;"
      /><path
        d="M2332.26,896.893l-0.534,-10.956c0.516,0 51.703,-2.486 69.067,-5.524c6.665,-1.16 7.825,-3.848 10.495,-12.189c2.194,-8.204 6.139,-15.837 11.563,-22.372c4.125,-4.824 12.889,-7.844 27.491,-9.538c13.936,-1.378 27.945,-1.889 41.944,-1.528c29.921,0.424 61.149,3.057 71.424,3.922l3.093,0.258l231.8,-37.397l1.841,10.827l-232.923,37.618l-0.442,-0c-0.442,-0 -0.902,-0 -4.29,-0.313c-114.27,-9.667 -129.682,1.086 -131.615,3.332c-4.447,5.447 -7.663,11.791 -9.427,18.597c-2.726,8.507 -5.524,17.308 -19.095,19.647c-18.026,3.093 -68.275,5.524 -70.392,5.616Z"
        style="fill:#f7f7f7;fill-rule:nonzero;"
      /><path
        d="M2550.73,767.452l-233.001,2.522l0.119,10.973l233.001,-2.521l-0.119,-10.974Z"
        style="fill:#f7f7f7;"
      /><path
        d="M2585.68,966.103l-243.647,20.46l0.918,10.935l243.647,-20.459l-0.918,-10.936Z"
        style="fill:#f7f7f7;"
      /><path
        d="M2450.8,982.431l-10.864,1.552l15.663,109.64l10.864,-1.552l-15.663,-109.64Z"
        style="fill:#f7f7f7;"
      /><path
        d="M2363.58,1106.63l0,-0.092l-49.236,-390.942l-11.047,-0l49.309,392.194c0.258,2.927 6.095,65.918 16.572,115.688c10.716,50.948 55.643,148.794 57.485,152.937l9.98,-4.585c-0.479,-0.994 -46.272,-100.865 -56.712,-150.672c-10.44,-49.807 -16.295,-113.884 -16.351,-114.528Z"
        style="fill:#f7f7f7;fill-rule:nonzero;"
      /><path
        d="M2293.18,1115.09l-97.044,175.216l9.6,5.317l97.044,-175.216l-9.6,-5.317Z"
        style="fill:#f7f7f7;"
      /><path
        d="M2194.14,1050.5l-99.926,173.567l9.51,5.475l99.927,-173.567l-9.511,-5.475Z"
        style="fill:#f7f7f7;"
      /><path
        d="M2357.17,1421.79c-0.129,-0.313 -13,-31.541 -27.859,-63.616c-27.27,-58.921 -36.715,-67.741 -38.943,-69.048c-7.089,-4.106 -31.302,-20.346 -59.4,-39.164c-42.81,-28.669 -96.079,-64.445 -108.507,-70.448c-8.746,-4.29 -46.327,-10.33 -91.383,-14.73c-45.057,-4.401 -82.858,-5.616 -91.862,-3.057c-16.94,4.787 -185.97,80.483 -272.971,119.831l-4.529,-9.888c10.311,-4.658 252.569,-114.159 274.499,-120.401c12.889,-3.683 57.927,-0.976 95.912,2.688c37.986,3.664 82.858,9.74 95.158,15.761c13.092,6.408 64.445,40.822 109.777,71.184c27.914,18.708 52.035,34.856 58.811,38.815c5.395,3.13 15.743,14.196 43.418,73.946c14.933,32.278 27.895,63.69 28.024,64.003l-10.145,4.124Z"
        style="fill:#f7f7f7;fill-rule:nonzero;"
      /><path
        d="M1648.83,1193.12l-4.714,-9.832c1.97,-0.94 198.141,-93.409 240.325,-110.478l6.26,-2.559c20.512,-8.378 41.705,-17.05 66.065,-21.248c27.62,-4.788 55.442,-2.91 84.884,5.744c28.374,8.323 74.682,32.389 137.636,71.553c46.695,29.037 85.675,56.012 86.08,56.288l-6.26,9.004c-1.547,-1.068 -154.908,-107.053 -220.55,-126.331c-62.106,-18.229 -103.59,-1.252 -143.62,15.154l-6.279,2.559c-42,16.848 -237.857,109.207 -239.827,110.146Z"
        style="fill:#f7f7f7;fill-rule:nonzero;"
      /><path
        d="M2013.34,951.983l-42.732,201.729l10.736,2.274l42.732,-201.729l-10.736,-2.274Z"
        style="fill:#f7f7f7;"
      /><path
        d="M2153.77,1720.94c-8.301,0.01 -16.587,-0.698 -24.766,-2.117c-15.329,-2.677 -30.115,-7.853 -43.767,-15.32c-23.495,-12.889 -36.052,-27.95 -36.586,-28.595l8.488,-6.96c9.642,10.614 21.064,19.463 33.751,26.146c12.584,6.818 26.2,11.533 40.305,13.957c18.14,2.999 36.692,2.43 54.613,-1.675c32.977,-7.365 55.128,-24.195 78.568,-42.074c35.886,-27.343 76.542,-58.35 164.335,-60.873c83.778,-2.412 140.729,27.877 190.959,54.613c36.495,19.407 70.964,37.746 110.717,40.803c94.513,7.365 220.549,-12.042 221.801,-12.245l1.694,10.845c-1.27,0.203 -128.558,19.702 -224.324,12.337c-42.036,-3.222 -77.499,-22.095 -115.025,-42.055c-25.244,-13.441 -51.353,-27.325 -81.403,-37.617c-33.451,-11.554 -68.736,-16.883 -104.106,-15.725c-84.258,2.394 -121.746,31.063 -158.001,58.682c-24.434,18.634 -47.524,36.236 -82.858,44.043c-11.291,2.527 -22.825,3.811 -34.395,3.83Z"
        style="fill:#f7f7f7;fill-rule:nonzero;"
      /><path
        d="M3026.13,1435.54c-33.825,4.088 -79.562,9.206 -128.228,13.349c-90.223,7.752 -209.115,13.902 -263.58,-0.755c-105.561,-28.411 -214.952,-65.347 -216.038,-65.715l-3.517,10.403c1.086,0.368 110.809,37.397 216.701,65.9c23.182,6.242 58.332,9.353 105.101,9.353c43.933,0 98.14,-2.743 162.309,-8.267c48.168,-4.143 93.464,-9.206 127.252,-13.22l-0,-11.048Z"
        style="fill:#f7f7f7;fill-rule:nonzero;"
      /><path
        d="M2833.88,1459.46l-23.839,241.822l10.921,1.077l23.839,-241.823l-10.921,-1.076Z"
        style="fill:#f7f7f7;"
      /><path
        d="M2752.33,1879.88l-80.591,135.73l9.437,5.603l80.591,-135.731l-9.437,-5.602Z"
        style="fill:#f7f7f7;"
      /><path
        d="M2359.17,1620.39l-10.35,3.649l95.383,270.551l10.35,-3.649l-95.383,-270.551Z"
        style="fill:#f7f7f7;"
      /><path
        d="M3026.13,1783.07c-29.461,2.91 -69.343,6.96 -108.36,11.195c-47.229,5.138 -131.947,-10.698 -213.866,-26.017c-47.984,-8.986 -93.298,-17.455 -130.455,-21.69c-99.429,-11.306 -172.252,-1.713 -174.812,-1.363c-27.011,3.259 -77.113,13.497 -130.16,24.323c-75.162,15.338 -160.358,32.739 -186.486,31.302l-0.607,11.048l3.682,0c30.713,0 109.373,-16.056 185.528,-31.615c52.845,-10.771 102.763,-20.972 129.332,-24.176l0.092,0c0.718,-0.11 72.878,-9.888 172.124,1.399c36.826,4.18 81.882,12.632 129.663,21.562c82.711,15.467 168.239,31.467 217.07,26.146c38.501,-4.18 77.904,-8.175 107.181,-11.048l0.074,-11.066Z"
        style="fill:#f7f7f7;fill-rule:nonzero;"
      /><path
        d="M2270.47,1669.04l-10.563,2.975l27.145,96.379l10.563,-2.975l-27.145,-96.379Z"
        style="fill:#f7f7f7;"
      /><path
        d="M2730.29,1779.2l-28.786,103.377l10.572,2.944l28.786,-103.377l-10.572,-2.944Z"
        style="fill:#f7f7f7;"
      /><path
        d="M2321.52,1446.28l-9.905,4.723l77.758,163.098l9.906,-4.723l-77.759,-163.098Z"
        style="fill:#f7f7f7;"
      /><path
        d="M2157.84,1718.49c-2.509,-15.683 -2.733,-31.647 -0.663,-47.394c4.53,-34.506 20.125,-61.021 45.093,-76.727c8.746,-5.524 17.824,-11.618 27.435,-18.081c53.398,-36.071 120.034,-80.925 210.459,-72.4c56.454,5.34 104.493,22.906 146.88,38.391c36.236,13.239 70.466,25.778 103.112,27.822c70.816,4.474 136.789,10.311 137.452,10.367l-0.976,10.918c-0.663,0 -66.489,-5.873 -137.176,-10.348c-34.174,-2.154 -69.122,-14.933 -106.132,-28.466c-41.76,-15.264 -89.081,-32.554 -144.135,-37.765c-86.541,-8.175 -151.262,35.482 -203.297,70.558c-9.685,6.537 -18.836,12.705 -27.73,18.284c-22.353,14.068 -35.813,37.121 -40.011,68.57c-1.922,14.681 -1.742,29.561 0.534,44.191l-10.845,2.08Z"
        style="fill:#f7f7f7;fill-rule:nonzero;"
      /><path
        d="M3026.13,1519.87l-195.471,18.063l1.012,10.919l194.459,-17.971l-0,-11.011Z"
        style="fill:#f7f7f7;fill-rule:nonzero;"
      /><path
        d="M2912.23,1213.87l-10.961,237.715l10.962,0.506l10.961,-237.716l-10.962,-0.505Z"
        style="fill:#f7f7f7;"
      /><path
        d="M2697.22,1257.46l-8.218,206.392l10.966,0.437l8.217,-206.392l-10.965,-0.437Z"
        style="fill:#f7f7f7;"
      /><path
        d="M2742,1048.96l-10.882,1.423l25.493,194.953l10.882,-1.423l-25.493,-194.953Z"
        style="fill:#f7f7f7;"
      /><path
        d="M2871.94,1033.91l-10.812,1.879l31.947,183.804l10.812,-1.88l-31.947,-183.803Z"
        style="fill:#f7f7f7;"
      /><path
        d="M3026.13,1087.85l-144.744,30.362l2.246,10.735l142.498,-29.884l-0,-11.213Z"
        style="fill:#f7f7f7;fill-rule:nonzero;"
      /><path
        d="M2699.98,822.918l-10.749,2.211l46.058,223.983l10.749,-2.211l-46.058,-223.983Z"
        style="fill:#f7f7f7;"
      /><path
        d="M2814.41,900.716l-229.398,46.964l2.201,10.751l229.398,-46.964l-2.201,-10.751Z"
        style="fill:#f7f7f7;"
      /><path
        d="M2600.46,1159.22l-225.934,99.312l4.39,9.986l225.934,-99.312l-4.39,-9.986Z"
        style="fill:#f7f7f7;"
      /><path
        d="M2804.83,1039.75l-10.841,1.705l30.116,191.441l10.84,-1.705l-30.115,-191.441Z"
        style="fill:#f7f7f7;"
      /><path
        d="M2078.79,715.6l-40.968,244.633l10.827,1.805l41.263,-246.438l-11.122,-0Z"
        style="fill:#f7f7f7;fill-rule:nonzero;"
      /><path
        d="M2187.06,934.713l-3.83,-10.275c0.81,-0.313 81.017,-29.92 148.077,-38.538l1.38,10.882c-65.862,8.47 -144.835,37.71 -145.627,37.931Z"
        style="fill:#f7f7f7;fill-rule:nonzero;"
      /><path
        d="M2317.14,770.034l-147.695,17.899l1.32,10.894l147.695,-17.899l-1.32,-10.894Z"
        style="fill:#f7f7f7;"
      /><path
        d="M2066.04,847.385l-5.972,9.207l118.251,76.705l5.972,-9.206l-118.251,-76.706Z"
        style="fill:#f7f7f7;"
      /><path
        d="M1661.87,798.342l-0.84,10.941l169.416,13.006l0.84,-10.941l-169.416,-13.006Z"
        style="fill:#f7f7f7;"
      /><path
        d="M1828.25,1203.67l-58.019,-153.49c-2.431,-4.53 -25.539,-47.671 -33.917,-69.84c-8.985,-23.734 -3.775,-80.262 -3.535,-82.655l10.919,1.031c-0,0.57 -5.211,56.38 2.872,77.739c8.415,22.243 33.254,68.385 33.493,68.846l0.184,0.313l0.129,0.349l58.203,153.895l-10.329,3.812Z"
        style="fill:#f7f7f7;fill-rule:nonzero;"
      /><path
        d="M2577.5,1875.61l-10.974,-0.202l4.088,-233.936l25.686,-197.349l10.863,1.418l-25.594,196.742l-4.069,233.327Z"
        style="fill:#f7f7f7;fill-rule:nonzero;"
      /><path
        d="M1459.34,1212.89c-8.82,-40.508 -3.462,-90.02 0.847,-129.81c1.583,-14.731 3.075,-28.448 3.59,-39.662c1.842,-39.882 12.797,-160.192 13.018,-161.499l0.111,-0.607l4.4,-165.716l-11.047,-0l-4.42,164.942c-1.841,10.33 -11.287,122.796 -13.073,162.383c-0.497,10.864 -1.97,24.526 -3.535,38.98c-4.401,40.509 -9.851,91.07 -0.663,133.328c7.052,32.462 20.254,84.699 30.86,126.607c7.936,31.394 14.73,58.479 16.572,67.63l10.753,-2.154c-1.841,-9.409 -8.433,-35.334 -16.737,-68.128c-10.477,-41.889 -23.661,-93.997 -30.676,-126.294Z"
        style="fill:#f7f7f7;fill-rule:nonzero;"
      /><path
        d="M2844.52,2030.85c-1.031,-26.956 -0.239,-81.974 18.155,-136.494l-10.384,-3.517c-13.81,40.968 -17.842,81.79 -18.8,108.82c-0.442,12.392 -0.295,22.998 0,31.191l11.029,0Z"
        style="fill:#f7f7f7;fill-rule:nonzero;"
      /><path
        d="M1661.72,1226.08l99.576,-44.67l1.363,3.83l-100.019,46.861l-0.92,-6.021Z"
        style="fill:#f7f7f7;fill-rule:nonzero;"
      /><path
        d="M1163.54,1127.02l6.979,53.986l4.934,-0.828l-5.947,-54.668l-5.966,1.51Z"
        style="fill:#f7f7f7;fill-rule:nonzero;"
      /><path
        d="M1333.9,1534.97c-0,0 -31.431,-2.043 -29.995,-30.197c1.437,-28.153 -11.471,-40.177 -11.471,-40.177l2.873,-3.277c5.548,6.133 9.128,13.794 10.274,21.985c3.296,21.58 1.712,28.043 5.137,33.29c8.636,13.147 24.673,14.731 24.673,14.731l-1.491,3.645Z"
        style="fill:#f7f7f7;fill-rule:nonzero;"
      /><path
        d="M1728.13,1998.09c-0,-0 -45.351,-42.644 -50.617,-49.365l2.762,-2.504c-0,-0 44.854,44.577 50.248,49.07l-2.393,2.799Z"
        style="fill:#f7f7f7;fill-rule:nonzero;"
      /><path
        d="M2528.08,715.6l63.874,359.143l24.287,-4.309l-63.101,-354.834l-25.06,-0Z"
        style="fill:#fbd58e;fill-rule:nonzero;"
      /><path
        d="M1690.37,1744.11c-1.964,0.008 -3.925,-0.171 -5.855,-0.534c-9.078,-1.713 -25.263,-9.207 -60.763,-53.655c-21.203,-27.066 -40.987,-55.214 -59.271,-84.331c-19.315,-30.639 -36.826,-84.184 -52.292,-131.413c-10.422,-31.817 -20.254,-61.886 -28.485,-78.089l-0.718,-1.418c-10.422,-20.53 -26.165,-51.556 -50.12,-75.29c-27.803,-27.619 -58.921,-37.838 -95.213,-31.468c-7.034,1.234 -29.166,3.241 -67.704,6.721c-66.876,6.003 -167.907,15.08 -199.301,22.722c-46.934,11.434 -88.142,25.778 -88.547,25.962l-8.213,-23.274c1.731,-0.608 42.718,-14.933 90.886,-26.662c33.144,-8.083 131.284,-16.903 202.929,-23.329c31.817,-2.872 59.307,-5.34 65.642,-6.445c44.19,-7.733 83.428,5.119 116.848,38.226c26.79,26.533 43.62,59.731 54.759,81.679l0.719,1.418c9.077,17.879 18.744,47.395 29.939,81.569c15.006,45.885 32.038,97.883 49.715,125.944c17.805,28.341 37.06,55.745 57.687,82.103c32.941,41.3 44.799,44.541 46.032,44.78c8.967,1.676 31.891,-14.012 67.005,-63.819c16.629,-23.898 32.03,-48.628 46.142,-74.093l21.709,11.765c-14.522,26.271 -30.397,51.77 -47.56,76.395c-35.611,50.581 -63.175,74.536 -85.97,74.536Z"
        style="fill:#fbd58e;fill-rule:nonzero;"
      /><path
        d="M1071.81,1633.59c-5.653,1.841 -138.851,45.811 -183.447,74.075c-14.473,9.206 -32.333,21.101 -51.243,33.732c-37.765,25.262 -80.575,53.876 -104.328,65.55c-7.199,3.535 -26.753,8.47 -76.634,1.583c-16.074,-2.228 -30.989,-5.1 -41.318,-7.365l-0,25.281c10.2,2.081 23.439,4.511 37.709,6.5c15.63,2.292 31.396,3.522 47.192,3.682c19.094,0 33.622,-2.541 43.952,-7.604c25.207,-12.41 68.753,-41.503 107.163,-67.189c18.762,-12.539 36.494,-24.397 50.709,-33.401c42.018,-26.625 176.598,-71.018 177.96,-71.46l-7.715,-23.384Z"
        style="fill:#fbd58e;fill-rule:nonzero;"
      /><path
        d="M1105.01,1742.12c3.829,8.507 10.274,22.74 21.819,35.997c13.682,16.214 32.896,26.799 53.913,29.7c23.145,3.315 40.508,15.412 51.04,24.986c12.282,11.177 22.427,25.613 27.141,38.667c5.837,16.057 5.837,36.661 5.837,54.834c-0.191,8.787 0.117,17.578 0.92,26.33c1.639,13.736 2.541,54.668 2.946,78.31l24.692,0c-0.405,-23.936 -1.344,-66.286 -3.13,-81.256c-0.66,-7.776 -0.906,-15.582 -0.737,-23.384c0,-19.205 0,-43.123 -7.365,-63.267c-6.113,-16.792 -18.413,-34.432 -33.732,-48.389c-17.763,-16.596 -40.124,-27.456 -64.151,-31.154c-35.794,-5.119 -49.954,-36.402 -56.748,-51.446c-0.608,-1.344 -1.197,-2.633 -1.731,-3.682c-46.032,-96.907 -149.144,-363.654 -150.102,-366.416l-23.034,8.875c1.049,2.688 104.401,270.319 150.856,368.054l1.566,3.241Z"
        style="fill:#fbd58e;fill-rule:nonzero;"
      /><path
        d="M990.809,1346.2c-2.228,-96.3 -19.849,-207.955 -31.505,-281.846c-5.873,-37.194 -10.513,-66.581 -11.305,-81.275c-2.394,-44.945 1.62,-148.334 1.657,-149.365l-24.655,-0.976c-0.165,4.291 -4.106,105.561 -1.638,151.667c0.847,15.964 5.523,45.903 11.563,83.797c11.563,73.228 29.019,183.908 31.21,278.568c-0,2.689 0.11,5.248 -7.807,8.618c-9.023,3.848 -23.937,6.573 -42.81,10.035l-0.976,0.184c-17.474,3.222 -45.83,4.032 -73.265,4.806c-36.016,1.049 -69.969,2.025 -90.72,7.788c-13.196,3.94 -25.998,9.093 -38.244,15.393c-15.706,7.605 -29.258,14.16 -48.389,14.583c-16.505,0.686 -32.924,2.743 -49.088,6.15l-0,25.207c15.282,-3.222 33.769,-6.315 49.714,-6.683c24.508,-0.553 41.834,-8.931 58.59,-17.032c10.921,-5.661 22.343,-10.296 34.119,-13.847c17.769,-4.953 51.851,-5.947 84.81,-6.886c29.644,-0.847 57.669,-1.657 77.002,-5.211l0.976,-0.166c20.383,-3.682 36.495,-6.702 48.021,-11.618c15.393,-6.592 23.071,-17.327 22.74,-31.891Z"
        style="fill:#fbd58e;fill-rule:nonzero;"
      /><path
        d="M1646.47,715.6l5.137,177.039l24.655,-0.718l-5.101,-176.321l-24.691,-0Z"
        style="fill:#fbd58e;fill-rule:nonzero;"
      /><path
        d="M1623.11,1139.1c8.562,42.036 31.302,153.747 35.481,170.54c0.682,2.743 1.842,7.365 3.131,13.331c7.162,30.823 22.095,94.992 36.42,127.472c17.64,39.827 90.813,131.007 116.296,151.98c6.757,5.524 15.909,12.889 26.514,21.432c27.067,21.783 64.151,51.556 80.888,67.447c9.593,9.096 24.692,19.978 39.275,30.528c9.998,7.2 20.254,14.73 28.3,21.138c8.397,6.794 11.545,10.422 12.687,11.968c-3.443,21.102 -45.498,156.952 -54.465,183.135c-5.248,15.319 -17.106,61.241 -25.097,92.819l25.391,0c7.807,-30.749 18.413,-71.313 22.998,-84.828c3.94,-11.526 17.566,-54.52 30.805,-98.362c25.17,-83.41 25.17,-90.904 25.17,-94.089c-0,-14.049 -16.682,-26.717 -51.409,-51.796c-13.938,-10.053 -28.356,-20.456 -36.825,-28.429c-17.456,-16.572 -53.398,-45.498 -82.38,-68.754c-10.55,-8.47 -19.646,-15.798 -26.293,-21.267c-11.232,-9.206 -34.377,-35.481 -57.559,-65.292c-25.41,-32.664 -44.798,-61.683 -51.85,-77.628c-13.442,-30.326 -27.97,-92.967 -34.985,-123.054c-1.399,-6.021 -2.504,-10.789 -3.241,-13.736c-4.069,-16.258 -26.698,-127.582 -35.223,-169.398l-1.068,-5.211c-5.377,-26.459 4.198,-48.941 15.282,-74.995c2.302,-5.414 4.677,-11.048 6.942,-16.701c6.003,-15.172 9.206,-44.191 9.722,-88.842c0.387,-31.965 -0.847,-60.32 -0.847,-60.597l-24.655,1.087c1.326,30.326 2.652,114.472 -7.181,139.256c-2.136,5.414 -4.456,10.864 -6.702,16.148c-11.619,27.325 -23.661,55.589 -16.737,89.56l1.215,5.138Z"
        style="fill:#fbd58e;fill-rule:nonzero;"
      /><path
        d="M3026.13,992.087c-263.949,41.669 -700.316,109.98 -725.67,111.785c-13.57,0.976 -24.673,-7.549 -50.727,-28.632c-31.291,-25.928 -64.402,-49.576 -99.08,-70.761c-58.001,-35.426 -119.408,-60.633 -160.726,-75.493c-50.562,-18.21 -91.715,-28.576 -110.017,-30.694c-18.726,-2.246 -88.492,-8.157 -149.439,-13.11c-20.549,-1.657 -123.734,-10.016 -135.813,-10.016c-9.796,-0 -80.906,-5.69 -143.62,-10.717c-40.417,-3.24 -78.587,-6.315 -103.904,-8.157c-34.451,-2.596 -134.156,-12.244 -230.566,-21.672c-94.182,-9.206 -183.135,-17.86 -215.431,-20.254c-60.762,-4.566 -105.432,-26.956 -141.337,-44.964l-4.529,-2.246c-17.806,-8.986 -35.224,-31.781 -47.524,-51.556l-28.651,-0c12.3,22.095 36.329,59.142 65.145,73.541l4.585,2.301c37.857,18.984 84.957,42.589 150.562,47.524c31.928,2.394 120.752,11.048 214.786,20.254c96.557,9.427 196.392,19.168 231.137,21.709c25.225,1.841 63.359,4.916 103.738,8.138c81.44,6.537 135.574,10.827 145.609,10.827c15.098,0 247.358,18.873 282.398,22.943c32.554,3.682 157.872,39.9 260.726,102.743c33.748,20.627 65.974,43.646 96.428,68.883c25.981,21.046 42.258,34.211 64.022,34.211c1.307,-0 2.633,-0 3.996,-0.147c29.736,-2.118 555.479,-84.865 723.902,-111.417l-0,-25.023Z"
        style="fill:#fbd58e;fill-rule:nonzero;"
      /><path
        d="M2624.1,1278.3c-3.314,-15.78 -31.026,-196.171 -32.204,-203.83l24.397,-3.683c9.943,64.758 29.46,190.407 31.965,202.541l-24.158,4.972Z"
        style="fill:#fbd58e;fill-rule:nonzero;"
      /><path
        d="M3026.13,1158.06c-43.473,18.965 -123.201,51.151 -184.608,61.094c-94.679,15.356 -221.728,39.956 -289.34,69.969c-44.614,19.83 -123.937,72.197 -181.864,110.477c-27.914,18.413 -52.016,34.34 -59.142,37.82c-4.216,2.044 -10.293,4.824 -17.326,8.065c-30.915,14.178 -82.674,37.93 -107.458,59.013c-15.098,12.889 -51.095,48.536 -88.382,94.127c-58.018,70.908 -83.796,122.574 -95.249,153.434l23.145,8.58c19.536,-52.716 60.375,-108.635 91.199,-146.4c35.997,-44.025 71.423,-79.176 85.288,-90.96c22.095,-18.873 71.994,-41.742 101.75,-55.386c7.162,-3.296 13.349,-6.131 17.823,-8.304c8.194,-3.996 27.877,-16.903 61.941,-39.403c53.987,-35.629 135.556,-89.487 178.31,-108.489c68.625,-30.492 206.924,-55.81 283.264,-68.128c38.667,-6.279 88.087,-21.267 146.64,-44.504c12.392,-4.916 23.937,-9.703 34.009,-14.049l-0,-26.956Z"
        style="fill:#fbd58e;fill-rule:nonzero;"
      /><path
        d="M2083.76,1822.21c42.791,13.441 100.663,26.183 133.512,24.416c28.671,-1.325 57.162,5.262 82.342,19.038c31.302,17.088 81.293,37.655 118.892,39.33c23.16,1.412 46.153,4.843 68.717,10.256c37.102,8.931 48.794,17.898 52.09,21.322c13.791,14.362 82.563,62.291 129.332,94.274l43.878,0c-48.04,-32.517 -141.356,-96.723 -155.405,-111.361c-10.606,-11.047 -32.186,-20.53 -64.114,-28.227c-24.099,-5.805 -48.666,-9.459 -73.412,-10.919c-31.302,-1.399 -76.837,-19.259 -108.157,-36.347c-29.186,-15.96 -62.203,-23.604 -95.434,-22.095c-28.282,1.528 -84.183,-10.551 -124.802,-23.292c-36.826,-11.582 -63.561,-54.815 -63.819,-55.239l-21.12,12.797c1.215,2.118 31.615,51.63 77.5,66.047Z"
        style="fill:#fbd58e;fill-rule:nonzero;"
      /><path
        d="M865.252,2030.85c28.668,-39.956 75.492,-104.953 86.135,-118.063c6.078,-7.756 11.744,-15.826 16.977,-24.176c2.651,-4.088 5.929,-9.207 8.58,-12.705c2.567,3.089 5.795,5.562 9.446,7.236c4.032,1.676 12.06,3.351 20.714,-4.216c4.84,-4.765 9.309,-9.893 13.368,-15.338c11.84,-14.731 29.737,-37.084 47.542,-44.707c28.172,-12.078 78.107,-30.639 78.605,-30.823l-8.581,-23.126c-2.062,0.773 -51.003,18.946 -79.746,31.302c-23.495,10.053 -43.694,35.279 -57.08,51.961c-2.725,3.406 -5.524,6.868 -7.641,9.335c-3.31,-4.174 -7.803,-7.255 -12.889,-8.838c-10.882,-2.873 -18.634,6.444 -21.193,9.501c-4.262,5.449 -8.221,11.129 -11.858,17.013c-4.772,7.623 -9.928,14.997 -15.449,22.096c-12.686,15.614 -71.239,97.146 -97.367,133.622l30.437,-0.074Z"
        style="fill:#fbd58e;fill-rule:nonzero;"
      /><path
        d="M674.255,2030.85l82.269,-210.183l-22.98,-8.985l-85.785,219.168l26.496,0Z"
        style="fill:#fbd58e;fill-rule:nonzero;"
      /><path
        d="M730.009,2030.85l88.971,-250.231l-23.255,-8.249l-91.899,258.48l26.183,0Z"
        style="fill:#fbd58e;fill-rule:nonzero;"
      /><path
        d="M1271,1851.88l-22.298,-10.569c1.233,-2.633 30.804,-64.905 48.112,-95.378c7.531,-13.276 20.255,-20.881 37.71,-22.593c13.386,-1.307 27.619,0.847 41.429,2.928c9.924,1.509 19.315,2.927 26.68,2.725c23.679,-0.663 39.404,-59.069 46.677,-93.906c13.239,-63.377 104.953,-71.957 108.93,-72.289l2.118,24.581c-14.29,1.616 -28.327,4.98 -41.797,10.017c-10.606,3.847 -20.457,9.518 -29.111,16.756c-8.096,6.654 -13.726,15.839 -15.983,26.072c-6.831,32.665 -14.509,57.264 -23.458,75.18c-12.447,24.876 -28.153,37.746 -46.695,38.262c-9.556,0.276 -19.996,-1.307 -31.062,-2.983c-27.619,-4.18 -46.401,-5.91 -53.987,7.365c-16.847,29.755 -46.971,93.188 -47.265,93.832Z"
        style="fill:#fbd58e;fill-rule:nonzero;"
      /><path
        d="M1354,1276.84c-1.529,-5.892 -37.268,-144.835 -44.688,-195.894c-7.494,-51.556 1.123,-208.287 1.491,-214.934l24.637,1.381c-0.092,1.602 -8.839,160.8 -1.713,209.999c7.236,49.715 43.804,191.862 44.191,193.335l-23.918,6.113Z"
        style="fill:#fbd58e;fill-rule:nonzero;"
      /><path
        d="M1317.69,1045.41l-367.283,28.003l1.876,24.601l367.283,-28.003l-1.876,-24.601Z"
        style="fill:#fbd58e;"
      /></g></g><rect
    x="770.239"
    y="715.452"
    width="1346.26"
    height="1315.41"
    style="fill:none;stroke:#fff;stroke-width:12.5px;"
  /><path
    d="M2712.52,757.799c-0,-23.377 -18.979,-42.356 -42.356,-42.356l-460.713,0c-23.377,0 -42.356,18.979 -42.356,42.356l-0,338.845c-0,23.377 18.979,42.356 42.356,42.356l460.713,0c23.377,0 42.356,-18.979 42.356,-42.356l-0,-338.845Z"
    style="fill:#fff;"
  /><path
    d="M2712.52,1202.6c-0,-10.572 -8.583,-19.156 -19.156,-19.156l-507.114,0c-10.572,0 -19.155,8.584 -19.155,19.156l-0,153.245c-0,10.573 8.583,19.156 19.155,19.156l507.114,0c10.573,0 19.156,-8.583 19.156,-19.156l-0,-153.245Z"
    style="fill:#fff;"
  /><path
    d="M2712.52,1419.16c-0,-10.573 -8.583,-19.156 -19.156,-19.156l-507.114,0c-10.572,0 -19.155,8.583 -19.155,19.156l-0,153.245c-0,10.573 8.583,19.156 19.155,19.156l507.114,-0c10.573,-0 19.156,-8.583 19.156,-19.156l-0,-153.245Z"
    style="fill:#fff;"
  /><path
    d="M3298.88,757.894c-0,-23.371 -18.974,-42.345 -42.345,-42.345l-460.735,0c-23.371,0 -42.345,18.974 -42.345,42.345l-0,338.761c-0,23.371 18.974,42.345 42.345,42.345l460.735,0c23.371,0 42.345,-18.974 42.345,-42.345l-0,-338.761Z"
    style="fill:#fff;"
  /><path
    d="M2654.27,785.354c0,-11.745 -9.536,-21.281 -21.281,-21.281l-386.367,-0c-11.746,-0 -21.281,9.536 -21.281,21.281c-0,11.745 9.535,21.281 21.281,21.281l386.367,-0c11.745,-0 21.281,-9.536 21.281,-21.281Z"
    style="fill:#d9d9d9;"
  /><rect
    x="2225.34"
    y="841.3"
    width="168.723"
    height="63.844"
    style="fill:none;stroke:#404040;stroke-width:1.9px;"
  /><path
    d="M2394.07,959.858c0,-11.745 -9.535,-21.281 -21.281,-21.281l-126.16,-0c-11.746,-0 -21.281,9.536 -21.281,21.281c-0,11.745 9.535,21.281 21.281,21.281l126.16,-0c11.746,-0 21.281,-9.536 21.281,-21.281Z"
    style="fill:#d9d9d9;"
  /><path
    d="M2326.73,873.542c-0,-8.102 -6.578,-14.68 -14.68,-14.68l-46.03,0c-8.102,0 -14.679,6.578 -14.679,14.68c-0,8.102 6.577,14.68 14.679,14.68l46.03,-0c8.102,-0 14.68,-6.578 14.68,-14.68Z"
    style="fill:#d9d9d9;"
  /><path
    d="M2278.73,1236.21c0,-8.102 -6.578,-14.68 -14.679,-14.68l-46.031,0c-8.102,0 -14.679,6.578 -14.679,14.68c-0,8.102 6.577,14.679 14.679,14.679l46.031,0c8.101,0 14.679,-6.577 14.679,-14.679Z"
    style="fill:#d9d9d9;"
  /><path
    d="M2278.73,1451c0,-8.102 -6.578,-14.679 -14.679,-14.679l-46.031,-0c-8.102,-0 -14.679,6.577 -14.679,14.679c-0,8.102 6.577,14.68 14.679,14.68l46.031,-0c8.101,-0 14.679,-6.578 14.679,-14.68Z"
    style="fill:#d9d9d9;"
  /><path
    d="M2671.04,959.858c-0,-11.745 -9.536,-21.281 -21.281,-21.281l-126.161,-0c-11.745,-0 -21.281,9.536 -21.281,21.281c0,11.745 9.536,21.281 21.281,21.281l126.161,-0c11.745,-0 21.281,-9.536 21.281,-21.281Z"
    style="fill:#d9d9d9;"
  /><path
    d="M2586.68,1021.86c-0,-11.745 -9.536,-21.281 -21.281,-21.281l-318.774,-0c-11.746,-0 -21.281,9.536 -21.281,21.281c-0,11.745 9.535,21.281 21.281,21.281l318.774,-0c11.745,-0 21.281,-9.536 21.281,-21.281Z"
    style="fill:#d9d9d9;"
  /><path
    d="M2586.68,1083.86c-0,-11.745 -9.536,-21.281 -21.281,-21.281l-318.774,-0c-11.746,-0 -21.281,9.536 -21.281,21.281c-0,11.745 9.535,21.281 21.281,21.281l318.774,-0c11.745,-0 21.281,-9.536 21.281,-21.281Z"
    style="fill:#d9d9d9;"
  /><path
    d="M2671.04,853.143c-0,-11.038 -8.962,-20 -20,-20l-40,0c-11.038,0 -20,8.962 -20,20l-0,40c-0,11.039 8.962,20 20,20l40,0c11.038,0 20,-8.961 20,-20l-0,-40Z"
    style="fill:#e55353;"
  /><path
    d="M3232.25,784.346c0,-11.745 -9.536,-21.281 -21.281,-21.281l-386.367,0c-11.746,0 -21.281,9.536 -21.281,21.281c-0,11.745 9.535,21.281 21.281,21.281l386.367,0c11.745,0 21.281,-9.536 21.281,-21.281Z"
    style="fill:#d9d9d9;"
  /><rect
    x="2803.32"
    y="840.292"
    width="168.723"
    height="63.844"
    style="fill:none;stroke:#404040;stroke-width:1.9px;"
  /><path
    d="M2972.04,958.85c0,-11.745 -9.535,-21.281 -21.281,-21.281l-126.16,0c-11.746,0 -21.281,9.536 -21.281,21.281c-0,11.745 9.535,21.281 21.281,21.281l126.16,0c11.746,0 21.281,-9.536 21.281,-21.281Z"
    style="fill:#d9d9d9;"
  /><path
    d="M2904.71,872.534c-0,-8.101 -6.578,-14.679 -14.68,-14.679l-46.03,-0c-8.102,-0 -14.679,6.578 -14.679,14.679c-0,8.102 6.577,14.68 14.679,14.68l46.03,-0c8.102,-0 14.68,-6.578 14.68,-14.68Z"
    style="fill:#d9d9d9;"
  /><path
    d="M3249.02,958.85c0,-11.745 -9.536,-21.281 -21.281,-21.281l-126.161,0c-11.745,0 -21.281,9.536 -21.281,21.281c0,11.745 9.536,21.281 21.281,21.281l126.161,0c11.745,0 21.281,-9.536 21.281,-21.281Z"
    style="fill:#d9d9d9;"
  /><path
    d="M3164.66,1020.85c-0,-11.745 -9.536,-21.281 -21.281,-21.281l-318.774,0c-11.746,0 -21.281,9.536 -21.281,21.281c-0,11.745 9.535,21.281 21.281,21.281l318.774,0c11.745,0 21.281,-9.536 21.281,-21.281Z"
    style="fill:#d9d9d9;"
  /><path
    d="M3164.66,1082.85c-0,-11.745 -9.536,-21.281 -21.281,-21.281l-318.774,0c-11.746,0 -21.281,9.536 -21.281,21.281c-0,11.745 9.535,21.281 21.281,21.281l318.774,0c11.745,0 21.281,-9.536 21.281,-21.281Z"
    style="fill:#d9d9d9;"
  /><path
    d="M3249.02,852.136c0,-11.039 -8.962,-20 -20,-20l-40,-0c-11.038,-0 -20,8.961 -20,20l0,40c0,11.038 8.962,20 20,20l40,-0c11.038,-0 20,-8.962 20,-20l0,-40Z"
    style="fill:#e55353;"
  /><rect
    x="2203.34"
    y="1279.22"
    width="133.914"
    height="65.177"
    style="fill:#d9d9d9;"
  /><rect
    x="2203.34"
    y="1495.78"
    width="133.914"
    height="65.177"
    style="fill:#d9d9d9;"
  /><rect
    x="2278.73"
    y="1291.81"
    width="40"
    height="40"
    style="fill:#fff;"
  /><path
    d="M3298.88,1203.55c-0,-10.572 -8.583,-19.155 -19.156,-19.155l-507.114,-0c-10.572,-0 -19.155,8.583 -19.155,19.155l-0,153.246c-0,10.572 8.583,19.155 19.155,19.155l507.114,0c10.573,0 19.156,-8.583 19.156,-19.155l-0,-153.246Z"
    style="fill:#fff;"
  /><path
    d="M2865.09,1237.16c0,-8.102 -6.578,-14.68 -14.68,-14.68l-46.03,0c-8.102,0 -14.679,6.578 -14.679,14.68c-0,8.102 6.577,14.68 14.679,14.68l46.03,-0c8.102,-0 14.68,-6.578 14.68,-14.68Z"
    style="fill:#d9d9d9;"
  /><rect
    x="2789.7"
    y="1280.18"
    width="133.914"
    height="65.177"
    style="fill:#d9d9d9;"
  /><rect
    x="2865.09"
    y="1292.77"
    width="40"
    height="40"
    style="fill:#fff;"
  /><rect
    x="2278.73"
    y="1508.37"
    width="40"
    height="40"
    style="fill:#fff;"
  /><rect
    x="817.091"
    y="771.873"
    width="588.32"
    height="80"
    style="fill:#fff;"
  /><rect
    x="1276.59"
    y="771.873"
    width="128.821"
    height="80"
    style="fill:#2eb85c;"
  /><path
    d="M1036.61,811.873c0,-11.746 -9.535,-21.281 -21.281,-21.281l-126.774,-0c-11.745,-0 -21.281,9.535 -21.281,21.281c0,11.745 9.536,21.281 21.281,21.281l126.774,-0c11.746,-0 21.281,-9.536 21.281,-21.281Z"
    style="fill:#d9d9d9;"
  /></svg>
