<svg xmlns:xlink="http://www.w3.org/1999/xlink" xmlns:svg="http://www.w3.org/2000/svg" xmlns="http://www.w3.org/2000/svg" version="1.1" id="svg4558" viewBox="0 0 703.84452 436.47057" height="123.18169" width="198.64056" foxified="">
  <defs id="defs4560"></defs>
  <g transform="translate(9.0651391,-291.26977)" id="layer1">
    <path id="path436" style="fill:#005192;fill-opacity:1;fill-rule:nonzero;stroke:none" d="m 677.06292,710.02381 -668.4115521,0 0,-36.34863 668.4115521,0 0,36.34863 z"></path>
    <path id="path438" style="fill:#ffed00;fill-opacity:1;fill-rule:nonzero;stroke:none" d="m 677.06292,652.64768 -668.4115521,0 0,-343.66137 668.4115521,0 0,343.66138 z"></path>
    <path id="path450" d="m 208.16965,454.86089 -148.000007,155.5293 148.960937,0 38.4004,-45.53321 -85.09571,0 44.76758,-47.08984 82.58985,92.62305 0.002,0 54.22071,0 -0.38867,-116.35547 c 0,0 36.85644,-0.5777 42.83398,0 6.17797,0.57771 19.4879,2.31106 19.87696,21.61133 0.38317,19.30026 -19.48828,20.06054 -19.48828,20.06054 l -41.87305,0.20117 59.62304,74.67188 111.91601,0 0,-116.34961 44.96095,0 c 0,0 19.48983,-1.35016 19.8789,20.06641 0.38907,21.41067 -20.26172,21.61132 -20.26172,21.61132 l -43.22266,0 34.53906,36.07813 c 0,0 11.38426,-0.37769 20.83985,-0.57813 4.43895,-0.18863 8.49428,-0.3836 10.41015,-0.57812 21.04519,-2.89445 39.17228,-21.60543 41.68946,-47.46094 1.3499,-67.73366 -62.33404,-68.11718 -62.33404,-68.11718 l -98.40429,0 0,153.01171 -39.16797,-43.22265 c 30.87217,-10.9942 34.34522,-61.5495 17.94531,-85.67187 -16.60034,-24.11649 -47.27147,-24.31055 -47.27147,-24.31055 l -105.16797,0.19336 -0.66407,89.36523 -82.11523,-89.75586 z" style="fill:#00888b;fill-opacity:1;fill-rule:nonzero;stroke:none"></path>
  </g>
<script xmlns="" type="text/javascript" src="chrome-extension://hejbmebodbijjdhflfknehhcgaklhano/../window/testing-library.js"></script></svg>