<svg width="1198" height="1076" viewBox="0 0 1198 1076" fill="none" xmlns="http://www.w3.org/2000/svg">
<path d="M2510.83 1086.2L2716.13 1318.56C2718.1 1320.79 2720.87 1322.14 2723.84 1322.33C2726.81 1322.51 2729.74 1321.5 2731.97 1319.53L2770.63 1285.29C2772.86 1283.32 2774.22 1280.54 2774.41 1277.56C2774.59 1274.59 2773.59 1271.66 2771.62 1269.42L2030.79 430.682L2005.1 400.292L2004.44 400.879L1517.86 -150.032C1515.89 -152.265 1513.1 -153.622 1510.13 -153.806C1507.16 -153.99 1504.23 -152.986 1501.99 -151.014L1463.33 -116.774C1461.09 -114.798 1459.74 -112.018 1459.55 -109.042C1459.37 -106.067 1460.37 -103.14 1462.34 -100.904L1696.3 163.966C1697.32 165.112 1698.09 166.452 1698.57 167.906C1699.04 169.359 1699.22 170.895 1699.09 172.42C1698.95 173.945 1698.51 175.426 1697.78 176.773C1697.06 178.12 1696.06 179.305 1694.86 180.255L1088.15 658.959C1086.45 660.294 1084.41 661.113 1082.27 661.319C1080.12 661.524 1077.96 661.107 1076.05 660.118C1074.13 659.128 1072.54 657.607 1071.47 655.737C1070.39 653.868 1069.88 651.728 1069.99 649.575L1111.9 -158.311C1112.05 -161.287 1111.01 -164.201 1109.01 -166.414C1107.02 -168.627 1104.23 -169.958 1101.25 -170.115L1038.55 -173.349L1038.07 -164.616C1037.96 -162.808 1037.43 -161.051 1036.51 -159.488L674.488 453.723C673.432 455.5 671.907 456.951 670.08 457.919C668.254 458.886 666.196 459.331 664.134 459.205C662.071 459.08 660.083 458.389 658.387 457.207C656.691 456.026 655.354 454.4 654.521 452.509L159.404 -680.918C158.819 -682.272 157.972 -683.497 156.912 -684.523C155.852 -685.548 154.6 -686.354 153.228 -686.894C151.856 -687.434 150.39 -687.698 148.915 -687.67C147.441 -687.641 145.986 -687.322 144.635 -686.729L97.3428 -666.05C94.6174 -664.856 92.4772 -662.629 91.3928 -659.857C90.3085 -657.086 90.3686 -653.998 91.5599 -651.271L614.596 545.948C615.31 547.576 615.627 549.351 615.519 551.125C615.412 552.9 614.884 554.624 613.978 556.153L2.39805 1592.06C0.88339 1594.62 0.448545 1597.69 1.18883 1600.57C1.92912 1603.46 3.78416 1605.94 6.34688 1607.46L50.7604 1633.67C53.3264 1635.18 56.3888 1635.62 59.275 1634.88C62.1613 1634.13 64.6358 1632.28 66.1561 1629.71L341.455 1163.39C342.366 1161.85 343.635 1160.54 345.154 1159.59C346.673 1158.63 348.4 1158.05 350.187 1157.9C351.975 1157.75 353.773 1158.04 355.43 1158.72C357.087 1159.41 358.554 1160.49 359.71 1161.86L931.116 1837.95C932.969 1840.12 933.92 1842.92 933.774 1845.77L931.57 1891.02C931.413 1893.99 932.443 1896.91 934.434 1899.12C936.424 1901.33 939.212 1902.66 942.184 1902.82L1003.32 1905.98L1004.11 1906.8L1004.86 1906.08L1004.9 1905.82L1703.45 1223.16C1707.62 1219.07 1712.95 1216.36 1718.7 1215.39L2500.52 1082.56C2502.4 1082.24 2504.34 1082.41 2506.14 1083.04C2507.95 1083.68 2509.56 1084.76 2510.83 1086.2V1086.2ZM1157.19 1214.4L1988.47 511.38C1990.71 509.492 1993.61 508.556 1996.53 508.771C1999.46 508.986 2002.18 510.335 2004.13 512.531L2435.63 1001.03C2436.95 1002.53 2437.85 1004.36 2438.23 1006.33C2438.61 1008.29 2438.46 1010.32 2437.79 1012.21C2437.13 1014.1 2435.97 1015.77 2434.44 1017.06C2432.91 1018.35 2431.07 1019.21 2429.09 1019.55L1166.35 1234.05C1163.92 1234.47 1161.41 1234.08 1159.22 1232.94C1157.03 1231.8 1155.28 1229.97 1154.24 1227.73C1153.2 1225.49 1152.92 1222.97 1153.46 1220.56C1153.99 1218.15 1155.3 1215.99 1157.19 1214.4V1214.4ZM1760.25 236.426L1940.22 440.166C1941.21 441.289 1941.96 442.598 1942.44 444.015C1942.91 445.432 1943.1 446.929 1942.99 448.42C1942.88 449.91 1942.47 451.364 1941.79 452.696C1941.11 454.028 1940.18 455.211 1939.04 456.177L1060.42 1199.26C1058.74 1200.67 1056.69 1201.57 1054.51 1201.83C1052.33 1202.09 1050.13 1201.71 1048.16 1200.74C1046.2 1199.76 1044.56 1198.23 1043.45 1196.34C1042.35 1194.45 1041.82 1192.27 1041.93 1190.08L1063.32 777.753C1063.43 776.15 1063.87 774.589 1064.63 773.173C1065.39 771.758 1066.45 770.521 1067.72 769.547L1744.89 235.094C1747.14 233.317 1749.98 232.465 1752.83 232.713C1755.69 232.961 1758.34 234.289 1760.25 236.426ZM948.629 1221.44L536.954 910.819C535.267 909.538 533.976 907.805 533.232 905.821C532.489 903.836 532.321 901.682 532.75 899.607C533.179 897.531 534.187 895.62 535.657 894.093C537.126 892.566 538.998 891.487 541.055 890.979L974.385 785.501C976.085 785.085 977.86 785.073 979.566 785.465C981.272 785.858 982.863 786.645 984.21 787.762C985.558 788.879 986.626 790.297 987.329 791.901C988.031 793.505 988.348 795.251 988.255 797L966.658 1213.11C966.552 1215.15 965.89 1217.13 964.744 1218.82C963.598 1220.51 962.012 1221.86 960.156 1222.72C958.301 1223.58 956.246 1223.91 954.215 1223.69C952.184 1223.46 950.252 1222.69 948.629 1221.44V1221.44ZM984.729 706.675L574.078 806.741C571.932 807.257 569.682 807.131 567.608 806.378C565.533 805.625 563.726 804.278 562.411 802.505C561.096 800.732 560.332 798.612 560.213 796.407C560.094 794.203 560.625 792.012 561.741 790.107L1006.43 36.9545C1007.7 34.7848 1009.67 33.1057 1012.01 32.1869C1014.35 31.2681 1016.93 31.1626 1019.34 31.8876C1021.75 32.6125 1023.84 34.1259 1025.29 36.1847C1026.73 38.2434 1027.45 40.7282 1027.31 43.2405L993.438 696.24C993.329 698.678 992.432 701.015 990.882 702.9C989.332 704.785 987.214 706.117 984.843 706.696L984.729 706.675ZM393.44 1075.31L460.537 961.653C461.343 960.291 462.428 959.114 463.719 958.199C465.011 957.284 466.48 956.652 468.033 956.344C469.585 956.036 471.185 956.058 472.727 956.411C474.27 956.763 475.721 957.438 476.986 958.389L956.113 1319.88C957.589 1320.99 958.767 1322.45 959.544 1324.13C960.321 1325.8 960.672 1327.65 960.566 1329.49L941.068 1704.89C940.945 1707.14 940.152 1709.3 938.792 1711.09C937.431 1712.88 935.566 1714.22 933.436 1714.94C931.305 1715.66 929.008 1715.73 926.841 1715.13C924.673 1714.53 922.735 1713.3 921.275 1711.59L394.535 1088.26C393.028 1086.48 392.113 1084.28 391.916 1081.96C391.72 1079.64 392.253 1077.31 393.44 1075.31V1075.31ZM1011.94 1768.04L1034.13 1340.54C1034.26 1337.99 1035.25 1335.56 1036.95 1333.65C1038.65 1331.74 1040.95 1330.47 1043.47 1330.04L1546.07 1244.66C1548.43 1244.26 1550.86 1244.62 1553 1245.69C1555.14 1246.77 1556.88 1248.5 1557.96 1250.63C1559.05 1252.77 1559.42 1255.19 1559.03 1257.56C1558.64 1259.92 1557.51 1262.1 1555.79 1263.77L1031.03 1776.65C1029.41 1778.23 1027.35 1779.28 1025.13 1779.67C1022.9 1780.06 1020.61 1779.78 1018.55 1778.85C1016.49 1777.92 1014.76 1776.39 1013.58 1774.46C1012.4 1772.53 1011.83 1770.3 1011.94 1768.04V1768.04Z" fill="#966FC6"/>
</svg>
