<svg xmlns="http://www.w3.org/2000/svg" xmlns:xlink="http://www.w3.org/1999/xlink" version="1.1" id="Layer_1" x="0px" y="0px" viewBox="0 0 130 33.54" style="enable-background:new 0 0 130 33.54;" xml:space="preserve" width="130" height="33.54">
<style type="text/css">
	.Arched_x0020_Green{fill:url(#SVGID_1_);stroke:#FFFFFF;stroke-width:0.25;stroke-miterlimit:1;}
	.st0{fill:#DD052B;}
	.st1{fill:#009CDE;}
	.st2{fill:#FFFFFF;}
</style>
<linearGradient id="SVGID_1_" gradientUnits="userSpaceOnUse" x1="0" y1="138.6608" x2="0.7071" y2="137.9537">
	<stop offset="0" style="stop-color:#1DA238"></stop>
	<stop offset="0.9831" style="stop-color:#24391D"></stop>
</linearGradient>
<g>
	<g>
		<polygon class="st0" points="23.46,0 14.73,0 0,16.36 14.73,33.54 23.46,33.54 8.72,16.36   "></polygon>
		<path class="st1" d="M42.91,16.14c1.22-1.64,1.95-3.98,1.95-6.17c0-5.37-4.35-9.75-9.79-9.96V0H23.32L8.59,16.36l14.73,17.18    h11.74v-0.01c5.44-0.21,9.79-4.59,9.79-9.96c0-2.12-0.8-4.83-1.83-6.33C42.55,16.55,42.76,16.39,42.91,16.14"></path>
		<path class="st2" d="M36.91,13.2h-9.34l5.77-8.1h-7.01l-8.98,11.27l8.98,11.27h7.01l-5.77-8.1h9.34c0,0,2.58-0.12,4.92-3.16    C39.48,13.31,36.91,13.2,36.91,13.2"></path>
	</g>
	<g>
		<path class="st1" d="M52.76,4.04c1.1-0.19,3.48-0.37,5.7-0.37c2.57,0,4.09,0.16,5.51,0.88c1.39,0.64,2.43,1.95,2.43,3.69    c0,1.53-0.83,3-2.94,3.8v0.05c2.22,0.62,3.53,2.25,3.53,4.39c0,1.69-0.8,3.02-2.01,3.93c-1.36,1.02-3.61,1.63-7.46,1.63    c-2.19,0-3.77-0.16-4.76-0.32V4.04z M57.55,10.73h0.96c2.06,0,3.05-0.72,3.05-1.87c0-1.07-0.8-1.74-2.43-1.74    c-0.8,0-1.26,0.05-1.58,0.11V10.73z M57.55,18.43c0.35,0.05,0.78,0.05,1.39,0.05c1.61,0,2.97-0.64,2.97-2.22    c0-1.52-1.39-2.11-3.21-2.11h-1.15V18.43z"></path>
		<path class="st1" d="M86.6,12.63c0,5.81-3.48,9.5-9.04,9.5c-5.59,0-8.67-4.2-8.67-9.2c0-5.24,3.45-9.42,8.96-9.42    C83.66,3.5,86.6,7.81,86.6,12.63z M74,12.84c0,3.37,1.47,5.46,3.8,5.46c2.33,0,3.69-2.27,3.69-5.51c0-3.1-1.39-5.46-3.72-5.46    C75.47,7.33,74,9.52,74,12.84z"></path>
		<path class="st1" d="M93.99,3.8v10.22c0,2.73,0.94,4.28,2.84,4.28c1.93,0,2.86-1.42,2.86-4.28V3.8h4.84v9.95    c0,5.56-2.78,8.37-7.84,8.37c-4.95,0-7.54-2.7-7.54-8.51V3.8H93.99z"></path>
		<path class="st1" d="M110.71,21.83L106.56,3.8h5.19l1.04,6.69c0.32,2.09,0.64,4.49,0.94,6.34h0.05c0.27-2.03,0.64-4.2,1.04-6.39    l1.15-6.64h5.16l1.12,6.96c0.32,2.06,0.56,3.91,0.8,5.94h0.05c0.27-2.01,0.59-4.15,0.91-6.26l1.07-6.64h4.9l-4.44,18.03h-5.27    l-1.2-7.06c-0.27-1.58-0.51-3.26-0.75-5.4h-0.05c-0.29,2.14-0.53,3.83-0.86,5.43l-1.36,7.04H110.71z"></path>
	</g>
	<g>
		<path class="st0" d="M52.83,28.32h1.14v4.1h2.01v0.96h-3.15V28.32z"></path>
		<path class="st0" d="M61.73,30.8c0,1.67-1,2.67-2.49,2.67c-1.49,0-2.38-1.13-2.38-2.58c0-1.52,0.98-2.65,2.46-2.65    C60.88,28.23,61.73,29.4,61.73,30.8z M58.07,30.86c0,1,0.47,1.7,1.23,1.7c0.77,0,1.22-0.74,1.22-1.72c0-0.92-0.43-1.7-1.22-1.7    C58.52,29.14,58.07,29.88,58.07,30.86z"></path>
		<path class="st0" d="M67.42,33.15c-0.35,0.12-1.02,0.29-1.69,0.29c-0.92,0-1.59-0.23-2.06-0.68c-0.46-0.44-0.71-1.1-0.71-1.85    c0.01-1.68,1.23-2.64,2.89-2.64c0.65,0,1.16,0.13,1.4,0.24l-0.24,0.92c-0.28-0.13-0.62-0.22-1.17-0.22    c-0.95,0-1.68,0.53-1.68,1.64c0,1.05,0.66,1.66,1.6,1.66c0.26,0,0.47-0.03,0.56-0.07v-1.07h-0.78v-0.89h1.89V33.15z"></path>
		<path class="st0" d="M70.19,28.32v5.06h-1.14v-5.06H70.19z"></path>
		<path class="st0" d="M71.93,32.21c0.3,0.16,0.78,0.32,1.27,0.32c0.53,0,0.8-0.22,0.8-0.55c0-0.32-0.24-0.5-0.85-0.71    c-0.84-0.3-1.4-0.77-1.4-1.5c0-0.86,0.73-1.52,1.92-1.52c0.58,0,0.99,0.11,1.29,0.26l-0.26,0.92c-0.2-0.1-0.56-0.24-1.05-0.24    c-0.5,0-0.74,0.23-0.74,0.49c0,0.32,0.28,0.47,0.94,0.71c0.89,0.33,1.31,0.8,1.31,1.51c0,0.85-0.65,1.57-2.04,1.57    c-0.58,0-1.15-0.16-1.43-0.32L71.93,32.21z"></path>
		<path class="st0" d="M77.66,29.28h-1.37v-0.96h3.89v0.96H78.8v4.1h-1.14V29.28z"></path>
		<path class="st0" d="M82.66,28.32v5.06h-1.14v-5.06H82.66z"></path>
		<path class="st0" d="M88.08,33.25c-0.2,0.1-0.68,0.22-1.29,0.22c-1.75,0-2.65-1.1-2.65-2.54c0-1.73,1.23-2.68,2.76-2.68    c0.59,0,1.04,0.11,1.25,0.23l-0.24,0.9c-0.23-0.1-0.55-0.19-0.96-0.19c-0.9,0-1.61,0.55-1.61,1.67c0,1.01,0.6,1.65,1.61,1.65    c0.35,0,0.73-0.07,0.96-0.17L88.08,33.25z"></path>
		<path class="st0" d="M91.84,32.21c0.3,0.16,0.78,0.32,1.27,0.32c0.53,0,0.8-0.22,0.8-0.55c0-0.32-0.24-0.5-0.85-0.71    c-0.84-0.3-1.4-0.77-1.4-1.5c0-0.86,0.73-1.52,1.92-1.52c0.58,0,0.99,0.11,1.29,0.26l-0.26,0.92c-0.2-0.1-0.56-0.24-1.05-0.24    c-0.5,0-0.74,0.23-0.74,0.49c0,0.32,0.28,0.47,0.94,0.71c0.89,0.33,1.31,0.8,1.31,1.51c0,0.85-0.65,1.57-2.04,1.57    c-0.58,0-1.15-0.16-1.43-0.32L91.84,32.21z"></path>
		<path class="st0" d="M99.59,31.24h-1.86v1.2h2.08v0.94h-3.22v-5.06h3.12v0.94h-1.98v1.05h1.86V31.24z"></path>
		<path class="st0" d="M101.31,28.39c0.37-0.06,0.91-0.1,1.52-0.1c0.75,0,1.28,0.11,1.64,0.4c0.31,0.24,0.47,0.6,0.47,1.07    c0,0.64-0.46,1.08-0.89,1.24v0.02c0.35,0.14,0.55,0.47,0.68,0.94c0.16,0.58,0.31,1.24,0.41,1.43h-1.17    c-0.07-0.15-0.2-0.56-0.35-1.18c-0.14-0.64-0.36-0.8-0.83-0.81h-0.34v1.99h-1.13V28.39z M102.44,30.57h0.45    c0.57,0,0.91-0.29,0.91-0.73c0-0.46-0.32-0.7-0.84-0.7c-0.28,0-0.44,0.01-0.52,0.04V30.57z"></path>
		<path class="st0" d="M107.63,33.38l-1.62-5.06h1.25l0.62,2.14c0.17,0.61,0.33,1.18,0.45,1.81h0.02c0.13-0.61,0.29-1.21,0.46-1.79    l0.65-2.16h1.22l-1.7,5.06H107.63z"></path>
		<path class="st0" d="M113.08,28.32v5.06h-1.14v-5.06H113.08z"></path>
		<path class="st0" d="M118.5,33.25c-0.2,0.1-0.68,0.22-1.29,0.22c-1.75,0-2.65-1.1-2.65-2.54c0-1.73,1.23-2.68,2.76-2.68    c0.59,0,1.04,0.11,1.25,0.23l-0.24,0.9c-0.23-0.1-0.55-0.19-0.96-0.19c-0.9,0-1.61,0.55-1.61,1.67c0,1.01,0.6,1.65,1.61,1.65    c0.35,0,0.73-0.07,0.96-0.17L118.5,33.25z"></path>
		<path class="st0" d="M123,31.24h-1.86v1.2h2.08v0.94h-3.22v-5.06h3.12v0.94h-1.98v1.05H123V31.24z"></path>
		<path class="st0" d="M124.75,32.21c0.3,0.16,0.78,0.32,1.27,0.32c0.53,0,0.8-0.22,0.8-0.55c0-0.32-0.24-0.5-0.85-0.71    c-0.84-0.3-1.4-0.77-1.4-1.5c0-0.86,0.73-1.52,1.92-1.52c0.58,0,0.99,0.11,1.29,0.26l-0.26,0.92c-0.2-0.1-0.56-0.24-1.05-0.24    c-0.5,0-0.74,0.23-0.74,0.49c0,0.32,0.28,0.47,0.94,0.71c0.89,0.33,1.31,0.8,1.31,1.51c0,0.85-0.65,1.57-2.04,1.57    c-0.58,0-1.15-0.16-1.43-0.32L124.75,32.21z"></path>
	</g>
</g>
</svg>