<svg width="82" height="71" viewBox="0 0 82 71" fill="none" xmlns="http://www.w3.org/2000/svg">
<g clip-path="url(#clip0_13_243)">
<path d="M53.2456 59.9763V11.0033C53.2456 4.6133 50.7515 0 44.3548 0H34.7598C37.4818 0 39.0334 1.80727 39.8636 4.2566C40.5679 6.29488 40.7856 8.74761 40.7856 11.0033V59.9763C40.7856 67.4262 44.3378 70.9796 51.8063 70.9796H61.0543C55.0285 68.8462 53.2456 63.8796 53.2456 59.9763Z" fill="url(#paint0_linear_13_243)"/>
<path d="M66.3928 20.943H53.2455V31.9398H63.5517C64.3013 31.9303 65.0452 32.0706 65.7396 32.3527C66.4339 32.6348 67.0647 33.0529 67.5946 33.5823C68.1245 34.1117 68.5429 34.7417 68.825 35.4352C69.1071 36.1286 69.2473 36.8714 69.2372 37.6198V54.2964C69.2478 55.045 69.1079 55.7882 68.826 56.4821C68.5441 57.1759 68.1258 57.8063 67.5958 58.3361C67.0659 58.8659 66.435 59.2843 65.7404 59.5666C65.0458 59.8489 64.3016 59.9894 63.5517 59.9798H53.2455C53.2455 63.8797 55.0319 68.8497 61.0713 70.9834H66.3962C68.4081 70.9992 70.403 70.6154 72.2649 69.8541C74.1268 69.0929 75.8185 67.9696 77.2414 66.5494C78.6644 65.1293 79.7902 63.4408 80.5534 61.5822C81.3166 59.7235 81.702 57.7319 81.687 55.7231V36.1998C81.7015 34.1911 81.3157 32.1996 80.5521 30.3411C79.7885 28.4826 78.6623 26.7944 77.239 25.3745C75.8157 23.9547 74.1238 22.8318 72.2617 22.071C70.3997 21.3102 68.4046 20.9267 66.3928 20.943Z" fill="url(#paint1_linear_13_243)"/>
<path d="M34.7598 0C28.717 0 27.4683 5.14665 26.5938 7.8134C26.5938 7.88813 23.5792 17.305 22.419 20.9501H26.5904C30.4965 20.9501 33.6982 21.2898 35.8282 17.7466L39.8771 4.2566C39.0333 1.80388 37.4852 0 34.7598 0Z" fill="url(#paint2_linear_13_243)"/>
<path d="M26.5904 20.9434H15.2874C13.276 20.9275 11.2815 21.3113 9.42002 22.0723C7.55856 22.8334 5.86729 23.9564 4.44465 25.3762C3.02201 26.796 1.8964 28.4841 1.13335 30.3423C0.370299 32.2005 -0.0149626 34.1916 -1.03617e-05 36.1999V55.7198C-0.0154614 57.7283 0.369431 59.7199 1.13226 61.5785C1.89509 63.4371 3.02061 65.1257 4.44331 66.5459C5.866 67.966 7.55744 69.0894 9.41915 69.8507C11.2809 70.612 13.2756 70.9958 15.2874 70.98H27.652C30.4999 70.98 32.9837 69.5563 32.9837 66.7231V59.9764H18.1319C17.3817 59.9864 16.6371 59.8463 15.9421 59.5642C15.2471 59.2821 14.6158 58.8638 14.0855 58.334C13.5552 57.8041 13.1366 57.1736 12.8544 56.4795C12.5723 55.7854 12.4324 55.042 12.4429 54.293V37.6199C12.4328 36.8712 12.5731 36.1281 12.8554 35.4344C13.1378 34.7407 13.5564 34.1106 14.0867 33.5811C14.617 33.0517 15.2482 32.6336 15.9429 32.3518C16.6377 32.0699 17.382 31.9298 18.1319 31.9399H24.4469C30.8436 31.9399 32.7149 28.0332 33.6982 24.8399L35.8282 17.7399C33.6846 21.2933 30.4965 20.9434 26.5904 20.9434Z" fill="url(#paint3_linear_13_243)"/>
</g>
<defs>
<linearGradient id="paint0_linear_13_243" x1="47.9139" y1="67.8948" x2="47.9139" y2="-41.2683" gradientUnits="userSpaceOnUse">
<stop stop-color="#283666"/>
<stop offset="0.39" stop-color="#07AADA"/>
<stop offset="0.52" stop-color="#07AADA"/>
<stop offset="1" stop-color="#283666"/>
</linearGradient>
<linearGradient id="paint1_linear_13_243" x1="67.4645" y1="59.9833" x2="67.4645" y2="31.9056" gradientUnits="userSpaceOnUse">
<stop offset="0.1" stop-color="#07AADA"/>
<stop offset="1" stop-color="#283666"/>
</linearGradient>
<linearGradient id="paint2_linear_13_243" x1="25.6636" y1="21.5887" x2="40.1733" y2="3.57841" gradientUnits="userSpaceOnUse">
<stop stop-color="#EFEEEA"/>
<stop offset="1" stop-color="#5EC5EC"/>
</linearGradient>
<linearGradient id="paint3_linear_13_243" x1="17.9142" y1="60.0379" x2="17.9142" y2="31.8992" gradientUnits="userSpaceOnUse">
<stop offset="0.1" stop-color="#07AADA"/>
<stop offset="1" stop-color="#283666"/>
</linearGradient>
<clipPath id="clip0_13_243">
<rect width="82" height="71" fill="white"/>
</clipPath>
</defs>
</svg>
