<?xml version="1.0" standalone="no"?>
<!DOCTYPE svg PUBLIC "-//W3C//DTD SVG 20010904//EN"
 "http://www.w3.org/TR/2001/REC-SVG-20010904/DTD/svg10.dtd">
<svg version="1.0" xmlns="http://www.w3.org/2000/svg"
 width="200.000000pt" height="200.000000pt" viewBox="0 0 200.000000 200.000000"
 preserveAspectRatio="xMidYMid meet">

<g transform="translate(0.000000,200.000000) scale(0.100000,-0.100000)"
fill="#000000" stroke="none">
<path d="M167 1703 c-4 -3 -7 -28 -7 -55 l0 -48 830 0 830 0 0 55 0 55 -823 0
c-453 0 -827 -3 -830 -7z"/>
<path d="M160 1525 l0 -55 198 -2 197 -3 3 -23 c2 -13 -4 -34 -12 -48 l-16
-24 -185 0 -185 0 0 -50 0 -50 160 0 c176 0 184 -3 158 -57 l-13 -28 -153 -3
-153 -3 3 -52 3 -52 123 -3 c113 -2 122 -4 122 -22 0 -10 -5 -31 -12 -45 -11
-25 -13 -25 -126 -25 l-115 0 6 -47 c3 -29 12 -52 23 -60 28 -21 1360 -19
1431 2 60 18 132 79 171 143 l27 47 3 258 3 257 -830 0 -831 0 0 -55z"/>
<path d="M1673 735 c-19 -14 -52 -109 -41 -121 6 -6 88 23 105 37 21 18 16 66
-9 83 -27 20 -29 20 -55 1z m47 -30 c10 -12 10 -18 0 -30 -16 -20 -36 -19 -44
1 -6 16 9 44 24 44 4 0 13 -7 20 -15z"/>
<path d="M167 562 c-9 -10 -21 -47 -26 -83 -6 -35 -13 -81 -17 -101 -10 -57 5
-68 90 -68 74 0 96 9 96 42 0 15 -9 18 -59 18 -62 0 -75 7 -65 34 4 10 22 16
57 18 48 3 52 5 55 31 3 26 2 27 -47 27 -37 0 -51 4 -51 14 0 25 26 36 71 30
48 -7 77 11 65 41 -9 24 -147 21 -169 -3z"/>
<path d="M591 563 c-23 -20 -51 -127 -51 -200 0 -39 2 -42 36 -53 62 -21 150
7 172 55 17 37 15 63 -7 76 -18 12 -18 12 0 30 26 26 24 74 -3 93 -31 22 -120
21 -147 -1z m105 -48 c9 -23 -15 -45 -47 -45 -24 0 -29 4 -29 23 0 13 3 27 7
30 13 13 64 7 69 -8z m-9 -112 c9 -23 -18 -44 -51 -41 -23 2 -32 9 -34 26 -6
37 71 52 85 15z"/>
<path d="M892 564 c-23 -16 -122 -202 -122 -229 0 -31 31 -29 62 4 25 27 36
32 66 29 29 -2 40 -9 50 -30 8 -16 21 -28 32 -28 34 0 40 30 25 131 -8 52 -15
97 -15 101 0 15 -33 38 -53 38 -13 0 -33 -7 -45 -16z m49 -90 c7 -39 -6 -64
-36 -64 -35 0 -38 14 -15 60 24 46 42 48 51 4z"/>
<path d="M1092 567 c-12 -14 -45 -177 -46 -227 -1 -20 4 -25 23 -25 26 0 35
12 48 64 l8 34 29 -42 c34 -48 59 -65 85 -56 38 12 34 37 -14 85 l-46 46 46
33 c54 39 71 66 54 87 -18 22 -26 18 -90 -43 -57 -54 -60 -56 -53 -28 14 55
11 80 -12 83 -11 2 -26 -3 -32 -11z"/>
<path d="M1336 558 c-9 -12 -16 -35 -16 -51 0 -15 -7 -60 -16 -98 -17 -76 -14
-99 14 -99 27 0 42 20 42 56 0 47 15 50 40 9 28 -45 63 -69 89 -60 34 10 34
35 -1 69 -63 60 -63 59 -12 96 49 35 68 67 52 88 -17 20 -26 15 -89 -45 -62
-59 -65 -59 -50 -5 6 18 7 40 4 48 -8 21 -40 17 -57 -8z"/>
<path d="M1590 565 c-6 -8 -16 -45 -21 -82 -5 -37 -13 -85 -18 -107 -12 -50
-5 -68 27 -64 29 3 29 2 57 155 9 51 14 97 10 102 -9 16 -41 13 -55 -4z"/>
<path d="M1705 557 c-8 -13 -17 -36 -19 -53 -3 -16 -10 -59 -17 -97 -15 -90
-9 -97 85 -97 74 0 96 9 96 42 0 15 -9 18 -58 18 -66 0 -72 3 -65 31 4 15 14
19 54 19 36 0 51 4 57 18 16 30 3 42 -49 42 -35 0 -49 4 -49 14 0 26 27 38 72
31 48 -7 76 10 64 40 -4 12 -23 15 -80 15 -68 0 -77 -2 -91 -23z"/>
<path d="M400 471 c-26 -4 -35 -11 -35 -26 0 -17 8 -20 61 -23 64 -3 92 12 80
43 -6 16 -41 18 -106 6z"/>
</g>
</svg>
