<?xml version="1.0" encoding="UTF-8" standalone="no" ?>
<!-- Generator: Adobe Illustrator 19.2.1, SVG Export Plug-In . SVG Version: 6.00 Build 0)  -->
<svg
  version="1.1"
  id="layer"
  x="0px"
  y="0px"
  viewBox="0 0 600 209.8"
  xmlSpace="preserve"
  sodipodiDocname="havi.svg"
  width="600"
  height="209.8"
  inkscapeVersion="1.1.2 (0a00cf5339, 2022-02-04)"
  xmlnsInkscape="http://www.inkscape.org/namespaces/inkscape"
  xmlnsSodipodi="http://sodipodi.sourceforge.net/DTD/sodipodi-0.dtd"
  xmlns="http://www.w3.org/2000/svg"
  xmlnsSvg="http://www.w3.org/2000/svg"
><defs id="defs133" /><sodipodi:namedview
    id="namedview131"
    pagecolor="#ffffff"
    bordercolor="#666666"
    borderopacity="1.0"
    inkscapePageshadow="2"
    inkscapePageopacity="0.0"
    inkscapePagecheckerboard="0"
    showgrid="false"
    inkscapeZoom="1"
    inkscapeCx="697"
    inkscapeCy="218"
    inkscapeWindow-width="1920"
    inkscapeWindow-height="1012"
    inkscapeWindow-x="0"
    inkscapeWindow-y="0"
    inkscapeWindow-maximized="1"
    inkscapeCurrent-layer="layer"
  />
<style type="text/css" id="style114">
	.st0{fill:#3B5274;}
	.st1{fill:#086FB8;}
	.st2{fill:#6DBF5B;}
	.st3{fill:#27A570;}
</style>
<path
    class="st0"
    d="M 558.2,34.7 H 529.5 L 503.2,120.2 477,34.7 h -28.4 l 44.4,134.9 -0.3,-0.5 0.3,0.5 h 20.5 L 557.9,35.8 Z m -144.9,0 H 392 l -48.6,133.8 -0.3,0.8 h 28.7 l 8.2,-23.7 h 46.5 l 7.9,23.7 H 463 Z m -82.8,0 H 303.2 V 89.1 H 259.3 V 34.7 H 232 v 134.9 h 27.3 v -56 h 43.9 v 55.7 h 27.3 z m 56.8,87.8 16,-45.7 15.2,45.7 z M 600,34.7 H 572.7 V 169.6 H 600 Z"
    id="path116"
  />
<polygon
    class="st1"
    points="21.8,321.5 117.3,289.9 117.3,288.4 20,255.5 20,321.5 "
    id="polygon118"
    transform="translate(-20,-216.6)"
  />
<polygon
    class="st1"
    points="117.3,360.4 20,327.3 20,393.3 117.3,426.4 "
    id="polygon120"
    transform="translate(-20,-216.6)"
  />
<polygon
    class="st2"
    points="214.6,321.5 214.6,321.5 214.6,321.5 117.3,354.6 214.6,387.5 "
    id="polygon122"
    transform="translate(-20,-216.6)"
  />
<path
    class="st3"
    d="M 97.3,138 194.6,104.9 97.3,72 Z m 0,-66.2 z"
    id="path124"
  />
<polygon
    class="st2"
    points="214.6,315.7 214.6,249.7 117.3,216.6 117.3,282.6 "
    id="polygon126"
    transform="translate(-20,-216.6)"
  />
<path class="st0" d="M 97.3,138 Z M 0,104.9 97.3,137.8 v -66 z" id="path128" />
</svg>
