<?xml version="1.0" encoding="UTF-8" standalone="no" ?>
<!DOCTYPE svg PUBLIC "-//W3C//DTD SVG 1.1//EN"
  "http://www.w3.org/Graphics/SVG/1.1/DTD/svg11.dtd">
<svg
  width="100%"
  height="100%"
  viewBox="0 0 3384 2094"
  version="1.1"
  xmlns="http://www.w3.org/2000/svg"
  xmlnsXlink="http://www.w3.org/1999/xlink"
  xmlSpace="preserve"
  xmlnsSerif="http://www.serif.com/"
  style="fill-rule:evenodd;clip-rule:evenodd;stroke-linejoin:round;stroke-miterlimit:2;"
><rect x="0" y="0" width="3384" height="2094" style="fill:#e6e6e6;" /><rect
    x="0"
    y="0"
    width="684.452"
    height="2094"
    style="fill:#3c4b64;"
  /><rect
    x="0"
    y="285.27"
    width="684.452"
    height="126"
    style="fill:#46546c;"
  /><rect
    x="-0"
    y="1968"
    width="684.452"
    height="126"
    style="fill:#303c54;"
  /><rect
    x="684.452"
    y="0"
    width="2699.55"
    height="285.27"
    style="fill:#fff;"
  /><rect
    x="770.239"
    y="383.9"
    width="2527.97"
    height="741.1"
    style="fill:#fff;"
  /><rect
    x="770.239"
    y="1125"
    width="2527.97"
    height="352.035"
    style="fill:#f2f2f2;"
  /><rect
    x="3103.17"
    y="441.561"
    width="145.67"
    height="89.526"
    style="fill:#f2f2f2;"
  /><rect
    x="2923.5"
    y="441.561"
    width="179.67"
    height="89.526"
    style="fill:#d9d9d9;"
  /><rect
    x="2777.84"
    y="441.561"
    width="145.67"
    height="89.526"
    style="fill:#f2f2f2;"
  /><path
    d="M2741.2,1400.41c0,-5.653 -4.589,-10.242 -10.242,-10.242l-415.935,-0c-5.653,-0 -10.242,4.589 -10.242,10.242l-0,20.485c-0,5.653 4.589,10.242 10.242,10.242l415.935,0c5.653,0 10.242,-4.589 10.242,-10.242l0,-20.485Z"
    style="fill:#e55353;"
  /><path
    d="M3231.85,1400.41c-0,-5.653 -4.59,-10.242 -10.243,-10.242l-415.934,-0c-5.653,-0 -10.243,4.589 -10.243,10.242l0,20.485c0,5.653 4.59,10.242 10.243,10.242l415.934,0c5.653,0 10.243,-4.589 10.243,-10.242l-0,-20.485Z"
    style="fill:#321fdb;"
  /><path
    d="M2252.15,1400.41c0,-5.653 -4.589,-10.242 -10.242,-10.242l-415.935,-0c-5.652,-0 -10.242,4.589 -10.242,10.242l0,20.485c0,5.653 4.59,10.242 10.242,10.242l415.935,0c5.653,0 10.242,-4.589 10.242,-10.242l0,-20.485Z"
    style="fill:#f9b115;"
  /><path
    d="M1761.24,1400.41c-0,-5.653 -4.59,-10.242 -10.243,-10.242l-415.934,-0c-5.653,-0 -10.243,4.589 -10.243,10.242l0,20.485c0,5.653 4.59,10.242 10.243,10.242l415.934,0c5.653,0 10.243,-4.589 10.243,-10.242l-0,-20.485Z"
    style="fill:#39f;"
  /><path
    d="M1273.03,1400.41c-0,-5.653 -4.59,-10.242 -10.243,-10.242l-415.934,-0c-5.653,-0 -10.243,4.589 -10.243,10.242l0,20.485c0,5.653 4.59,10.242 10.243,10.242l415.934,0c5.653,0 10.243,-4.589 10.243,-10.242l-0,-20.485Z"
    style="fill:#2eb85c;"
  /><path
    d="M1178.95,1318.3c-0,-9.537 -7.744,-17.281 -17.281,-17.281l-213.701,0c-9.538,0 -17.281,7.744 -17.281,17.281c-0,9.538 7.743,17.281 17.281,17.281l213.701,0c9.537,0 17.281,-7.743 17.281,-17.281Z"
    style="fill:#999;"
  /><path
    d="M1241.61,1203.96c0,-11.745 -9.535,-21.281 -21.281,-21.281l-336.367,-0c-11.746,-0 -21.281,9.536 -21.281,21.281c-0,11.745 9.535,21.281 21.281,21.281l336.367,-0c11.746,-0 21.281,-9.536 21.281,-21.281Z"
    style="fill:#d9d9d9;"
  /><path
    d="M483.965,348.27c-0,-10.154 -8.243,-18.397 -18.397,-18.397l-210.08,-0c-10.153,-0 -18.397,8.243 -18.397,18.397c0,10.153 8.244,18.396 18.397,18.396l210.08,0c10.154,0 18.397,-8.243 18.397,-18.396Z"
    style="fill:#d9d9d9;fill-opacity:0.67;"
  /><path
    d="M3176.61,143.354c-0,-11.745 -9.536,-21.281 -21.281,-21.281l-278.368,-0c-11.745,-0 -21.281,9.536 -21.281,21.281c-0,11.745 9.536,21.281 21.281,21.281l278.368,-0c11.745,-0 21.281,-9.536 21.281,-21.281Z"
    style="fill:#d9d9d9;"
  /><path
    d="M1726.61,1203.96c-0,-11.745 -9.536,-21.281 -21.281,-21.281l-336.368,-0c-11.745,-0 -21.281,9.536 -21.281,21.281c0,11.745 9.536,21.281 21.281,21.281l336.368,-0c11.745,-0 21.281,-9.536 21.281,-21.281Z"
    style="fill:#d9d9d9;"
  /><path
    d="M2223.69,1203.96c-0,-11.745 -9.536,-21.281 -21.281,-21.281l-336.368,-0c-11.745,-0 -21.281,9.536 -21.281,21.281c0,11.745 9.536,21.281 21.281,21.281l336.368,-0c11.745,-0 21.281,-9.536 21.281,-21.281Z"
    style="fill:#d9d9d9;"
  /><path
    d="M2705.28,1203.96c-0,-11.745 -9.536,-21.281 -21.281,-21.281l-336.368,-0c-11.745,-0 -21.281,9.536 -21.281,21.281c0,11.745 9.536,21.281 21.281,21.281l336.368,-0c11.745,-0 21.281,-9.536 21.281,-21.281Z"
    style="fill:#d9d9d9;"
  /><path
    d="M3189.28,1203.96c0,-11.745 -9.535,-21.281 -21.28,-21.281l-336.368,-0c-11.745,-0 -21.281,9.536 -21.281,21.281c-0,11.745 9.536,21.281 21.281,21.281l336.368,-0c11.745,-0 21.28,-9.536 21.28,-21.281Z"
    style="fill:#d9d9d9;"
  /><path
    d="M1634.16,1318.3c0,-9.537 -7.743,-17.281 -17.281,-17.281l-152.701,0c-9.537,0 -17.281,7.744 -17.281,17.281c0,9.538 7.744,17.281 17.281,17.281l152.701,0c9.538,0 17.281,-7.743 17.281,-17.281Z"
    style="fill:#999;"
  /><path
    d="M2079.86,1318.3c0,-9.537 -7.743,-17.281 -17.28,-17.281l-56.701,0c-9.538,0 -17.281,7.744 -17.281,17.281c-0,9.538 7.743,17.281 17.281,17.281l56.701,0c9.537,0 17.28,-7.743 17.28,-17.281Z"
    style="fill:#999;"
  /><path
    d="M2585.12,1318.3c-0,-9.537 -7.743,-17.281 -17.281,-17.281l-96.701,0c-9.538,0 -17.281,7.744 -17.281,17.281c0,9.538 7.743,17.281 17.281,17.281l96.701,0c9.538,0 17.281,-7.743 17.281,-17.281Z"
    style="fill:#999;"
  /><path
    d="M3056.44,1318.3c0,-9.537 -7.743,-17.281 -17.281,-17.281l-78.701,0c-9.537,0 -17.281,7.744 -17.281,17.281c0,9.538 7.744,17.281 17.281,17.281l78.701,0c9.538,0 17.281,-7.743 17.281,-17.281Z"
    style="fill:#999;"
  /><rect
    x="1495.85"
    y="773"
    width="224"
    height="274"
    style="fill:#00a2d0;"
  /><rect
    x="1211.85"
    y="729"
    width="224"
    height="318"
    style="fill:#00a2d0;"
  /><rect
    x="927.853"
    y="649"
    width="224"
    height="398"
    style="fill:#00a2d0;"
  /><rect
    x="1779.85"
    y="729"
    width="224"
    height="318"
    style="fill:#00a2d0;"
  /><rect
    x="2063.85"
    y="754.45"
    width="224"
    height="292.55"
    style="fill:#00a2d0;"
  /><rect
    x="2347.85"
    y="797"
    width="224"
    height="250"
    style="fill:#00a2d0;"
  /><rect
    x="2632.6"
    y="754.45"
    width="224"
    height="292.55"
    style="fill:#00a2d0;"
  /><rect
    x="2916.6"
    y="679"
    width="224"
    height="368"
    style="fill:#00a2d0;"
  /><path
    d="M857.479,119.135c0,-1.104 -0.896,-2 -2,-2l-83.24,-0c-1.104,-0 -2,0.896 -2,2l0,4c0,1.104 0.896,2 2,2l83.24,-0c1.104,-0 2,-0.896 2,-2l0,-4Z"
    style="fill:#ccc;"
  /><path
    d="M857.479,140.135c0,-1.104 -0.896,-2 -2,-2l-83.24,-0c-1.104,-0 -2,0.896 -2,2l0,4c0,1.104 0.896,2 2,2l83.24,-0c1.104,-0 2,-0.896 2,-2l0,-4Z"
    style="fill:#ccc;"
  /><path
    d="M857.479,162.135c0,-1.104 -0.896,-2 -2,-2l-83.24,-0c-1.104,-0 -2,0.896 -2,2l0,4c0,1.104 0.896,2 2,2l83.24,-0c1.104,-0 2,-0.896 2,-2l0,-4Z"
    style="fill:#ccc;"
  /><rect
    x="2717.48"
    y="107.635"
    width="70"
    height="70"
    style="fill:#d9d9d9;"
  /><path
    d="M3298.21,135.635c0,-15.454 -12.546,-28 -28,-28l-14,-0c-15.453,-0 -28,12.546 -28,28l0,14c0,15.453 12.547,28 28,28l14,-0c15.454,-0 28,-12.547 28,-28l0,-14Z"
    style="fill:#d9d9d9;"
  /><path
    d="M174.487,342.218c0,-13.359 -10.846,-24.205 -24.205,-24.205l-21.589,-0c-13.36,-0 -24.206,10.846 -24.206,24.205l0,12.103c0,13.359 10.846,24.205 24.206,24.205l21.589,0c13.359,0 24.205,-10.846 24.205,-24.205l0,-12.103Z"
    style="fill:#d9d9d9;fill-opacity:0.67;"
  /><path
    d="M483.965,488.974c-0,-10.154 -8.243,-18.397 -18.397,-18.397l-210.08,0c-10.153,0 -18.397,8.243 -18.397,18.397c0,10.153 8.244,18.397 18.397,18.397l210.08,-0c10.154,-0 18.397,-8.244 18.397,-18.397Z"
    style="fill:#d9d9d9;fill-opacity:0.67;"
  /><path
    d="M174.487,482.923c0,-13.36 -10.846,-24.206 -24.205,-24.206l-21.589,0c-13.36,0 -24.206,10.846 -24.206,24.206l0,12.102c0,13.36 10.846,24.206 24.206,24.206l21.589,-0c13.359,-0 24.205,-10.846 24.205,-24.206l0,-12.102Z"
    style="fill:#d9d9d9;fill-opacity:0.67;"
  /><path
    d="M437.965,629.678c-0,-10.153 -8.243,-18.397 -18.397,-18.397l-164.08,0c-10.153,0 -18.397,8.244 -18.397,18.397c0,10.154 8.244,18.397 18.397,18.397l164.08,0c10.154,0 18.397,-8.243 18.397,-18.397Z"
    style="fill:#d9d9d9;fill-opacity:0.67;"
  /><path
    d="M174.487,623.627c0,-13.359 -10.846,-24.205 -24.205,-24.205l-21.589,-0c-13.36,-0 -24.206,10.846 -24.206,24.205l0,12.103c0,13.359 10.846,24.205 24.206,24.205l21.589,-0c13.359,-0 24.205,-10.846 24.205,-24.205l0,-12.103Z"
    style="fill:#d9d9d9;fill-opacity:0.67;"
  /><path
    d="M384.528,770.383c0,-10.154 -8.243,-18.397 -18.397,-18.397l-110.643,-0c-10.153,-0 -18.397,8.243 -18.397,18.397c0,10.153 8.244,18.396 18.397,18.396l110.643,0c10.154,0 18.397,-8.243 18.397,-18.396Z"
    style="fill:#d9d9d9;fill-opacity:0.67;"
  /><path
    d="M174.487,764.331c0,-13.359 -10.846,-24.205 -24.205,-24.205l-21.589,-0c-13.36,-0 -24.206,10.846 -24.206,24.205l0,12.103c0,13.359 10.846,24.205 24.206,24.205l21.589,0c13.359,0 24.205,-10.846 24.205,-24.205l0,-12.103Z"
    style="fill:#d9d9d9;fill-opacity:0.67;"
  /><path
    d="M483.965,911.087c-0,-10.154 -8.243,-18.397 -18.397,-18.397l-210.08,0c-10.153,0 -18.397,8.243 -18.397,18.397c0,10.153 8.244,18.397 18.397,18.397l210.08,-0c10.154,-0 18.397,-8.244 18.397,-18.397Z"
    style="fill:#d9d9d9;fill-opacity:0.67;"
  /><path
    d="M174.487,905.036c0,-13.36 -10.846,-24.206 -24.205,-24.206l-21.589,0c-13.36,0 -24.206,10.846 -24.206,24.206l0,12.102c0,13.36 10.846,24.206 24.206,24.206l21.589,-0c13.359,-0 24.205,-10.846 24.205,-24.206l0,-12.102Z"
    style="fill:#d9d9d9;fill-opacity:0.67;"
  /><path
    d="M531.965,1051.79c-0,-10.153 -8.243,-18.397 -18.397,-18.397l-258.08,0c-10.153,0 -18.397,8.244 -18.397,18.397c0,10.154 8.244,18.397 18.397,18.397l258.08,0c10.154,0 18.397,-8.243 18.397,-18.397Z"
    style="fill:#d9d9d9;fill-opacity:0.67;"
  /><path
    d="M174.487,1045.74c0,-13.359 -10.846,-24.205 -24.205,-24.205l-21.589,-0c-13.36,-0 -24.206,10.846 -24.206,24.205l0,12.103c0,13.359 10.846,24.205 24.206,24.205l21.589,-0c13.359,-0 24.205,-10.846 24.205,-24.205l0,-12.103Z"
    style="fill:#d9d9d9;fill-opacity:0.67;"
  /><rect
    x="0"
    y="0"
    width="684.452"
    height="285.27"
    style="fill:#303c54;"
  /><path
    d="M295.582,186.405l-27.613,-37.299l-11.354,10.438l0,26.861l-15.417,0l-0,-98.537l15.417,-0l0,52.748l34.2,-31.316l20.605,-0l-31.958,29.228l34.762,47.877l-18.642,0Z"
    style="fill:#fff;fill-rule:nonzero;"
  /><path
    d="M367.486,139.224c-0.281,-11.274 -7.99,-19.763 -20.745,-19.763c-11.353,-0 -19.484,7.376 -22.006,19.763l42.751,-0Zm15.978,11.412l-59.43,0c1.121,14.892 10.233,24.217 23.828,24.217c10.373,-0 17.521,-4.871 19.765,-13.36l15.696,-0c-3.223,17.953 -18.081,26.165 -35.881,26.165c-24.668,-0 -38.407,-19.207 -38.407,-39.806c0,-20.598 12.896,-39.804 37.706,-39.804c24.949,0 37.145,18.231 37.145,35.629c-0,3.201 -0.422,6.959 -0.422,6.959"
    style="fill:#fff;fill-rule:nonzero;"
  /><path
    d="M441.071,151.193l0,-1.252l-14.857,1.53c-13.735,1.532 -21.167,4.733 -21.167,13.222c0,6.263 5.467,10.299 14.298,10.299c13.458,0 21.585,-10.021 21.726,-23.799m15.139,-12.944l0,48.156l-15.139,-0l0,-11.829c-4.063,7.932 -13.876,12.942 -25.23,12.942c-14.997,0 -25.51,-9.325 -25.51,-21.712c0,-15.865 12.056,-22.964 36.024,-25.609l14.716,-1.53l0,-2.784c0,-9.742 -7.428,-16.284 -18.081,-16.284c-10.233,-0 -17.521,6.82 -18.08,16.006l-14.438,0c1.262,-17.119 15.837,-27.558 32.518,-27.558c19.343,0 33.22,10.718 33.22,30.202"
    style="fill:#fff;fill-rule:nonzero;"
  /><path
    d="M539.045,135.466l-0,50.939l-15.419,-0l0,-47.32c0,-10.439 -7.008,-17.258 -17.8,-17.258c-12.614,-0 -22.148,13.639 -22.148,31.453l0,33.125l-15.417,-0l-0,-77.104l15.417,-0l0,13.778c5.467,-9.186 15.419,-14.891 25.931,-14.891c18.222,-0 29.436,10.855 29.436,27.278"
    style="fill:#fff;fill-rule:nonzero;"
  /><path
    d="M599.312,151.193l-0,-1.252l-14.857,1.53c-13.735,1.532 -21.167,4.733 -21.167,13.222c0,6.263 5.467,10.299 14.298,10.299c13.457,0 21.585,-10.021 21.726,-23.799m15.139,-12.944l0,48.156l-15.139,-0l-0,-11.829c-4.063,7.932 -13.876,12.942 -25.23,12.942c-14.998,0 -25.51,-9.325 -25.51,-21.712c0,-15.865 12.055,-22.964 36.024,-25.609l14.716,-1.53l-0,-2.784c-0,-9.742 -7.429,-16.284 -18.081,-16.284c-10.233,-0 -17.521,6.82 -18.08,16.006l-14.438,0c1.261,-17.119 15.838,-27.558 32.518,-27.558c19.343,0 33.22,10.718 33.22,30.202"
    style="fill:#fff;fill-rule:nonzero;"
  /><path
    d="M99.017,188.577l0.919,-4.884c0.384,-2.042 1.314,-3.942 2.691,-5.497l26.121,-29.483c0.758,-0.855 2.102,-0.821 2.816,0.069l27.317,34.066c0.422,0.526 0.34,1.306 -0.192,1.719c-9.417,7.317 -21.234,11.683 -34.055,11.683c-8.87,0 -17.257,-2.097 -24.704,-5.808c-0.687,-0.343 -1.055,-1.11 -0.913,-1.865m-29.997,-47.942c-0,-22.594 13.549,-42.078 32.944,-50.773c0.622,-0.277 1.304,0.274 1.18,0.943l-16.631,88.408c-0.124,0.669 -0.961,0.936 -1.44,0.451c-9.915,-10.048 -16.053,-23.831 -16.053,-39.029m87.005,-43.846l-47.152,53.22c-0.926,1.046 -2.641,0.206 -2.382,-1.167l11.732,-62.375c0.121,-0.646 0.654,-1.143 1.309,-1.205c1.68,-0.156 3.381,-0.241 5.102,-0.241c11.528,-0 22.241,3.536 31.13,9.566c0.733,0.496 0.847,1.538 0.261,2.202m24.225,43.846c0,11.745 -3.665,22.644 -9.902,31.631c-0.458,0.66 -1.437,0.68 -1.941,0.052l-27.806,-34.675c-0.561,-0.7 -0.535,-1.702 0.058,-2.374l25.671,-28.974c0.55,-0.62 1.54,-0.606 2.052,0.046c7.429,9.454 11.868,21.366 11.868,34.294m-49.26,-69.35c-43.377,-3.867 -79.568,32.321 -75.706,75.7c2.963,33.254 29.74,60.033 62.993,62.999c43.382,3.869 79.575,-32.322 75.707,-75.703c-2.964,-33.252 -29.741,-60.03 -62.994,-62.996"
    style="fill:#966fc6;fill-rule:nonzero;"
  /><rect
    x="684.452"
    y="1968"
    width="2699.55"
    height="126"
    style="fill:#d9d9d9;"
  /></svg>
