<svg width="1126" height="1076" viewBox="0 0 1126 1076" fill="none" xmlns="http://www.w3.org/2000/svg">
<path d="M1525.38 464.981L1667.18 556.65C1668.54 557.53 1670.19 557.833 1671.78 557.492C1673.36 557.152 1674.75 556.196 1675.63 554.834L1690.87 531.197C1691.75 529.833 1692.05 528.176 1691.71 526.588C1691.37 525.001 1690.42 523.614 1689.05 522.731L1177.32 191.803L1159.39 179.643L1159.13 180.048L823.013 -37.3176C821.65 -38.1978 819.992 -38.5009 818.406 -38.1602C816.819 -37.8196 815.432 -36.863 814.55 -35.5005L799.306 -11.8635C798.426 -10.4994 798.123 -8.84184 798.464 -7.25449C798.805 -5.66715 799.761 -4.27978 801.123 -3.39698L962.73 101.107C963.43 101.558 964.031 102.148 964.496 102.84C964.961 103.531 965.28 104.311 965.433 105.13C965.587 105.949 965.571 106.791 965.388 107.605C965.205 108.418 964.858 109.185 964.369 109.86L716.584 450.043C715.893 450.992 714.943 451.722 713.848 452.145C712.753 452.568 711.559 452.667 710.409 452.429C709.26 452.191 708.203 451.628 707.365 450.805C706.527 449.982 705.944 448.936 705.685 447.791L608.923 18.0059C608.565 16.4231 607.593 15.0472 606.222 14.18C604.85 13.3128 603.191 13.0252 601.608 13.3802L568.251 20.9008L569.287 25.5492C569.494 26.5138 569.471 27.5136 569.221 28.468L469.513 403.22C469.22 404.307 468.634 405.292 467.818 406.068C467.003 406.843 465.989 407.379 464.889 407.616C463.789 407.854 462.645 407.784 461.582 407.413C460.519 407.043 459.579 406.387 458.864 405.518L32.664 -116.044C32.1582 -116.668 31.5341 -117.186 30.8275 -117.568C30.121 -117.95 29.346 -118.188 28.547 -118.27C27.748 -118.351 26.9407 -118.274 26.1716 -118.043C25.4026 -117.811 24.6869 -117.43 24.0657 -116.92L2.30637 -99.1262C1.05275 -98.0997 0.257807 -96.6173 0.0964988 -95.0048C-0.0648095 -93.3922 0.420614 -91.7816 1.44604 -90.5269L451.662 460.382C452.275 461.13 452.702 462.014 452.907 462.961C453.111 463.907 453.088 464.888 452.838 465.824L284.393 1098.9C283.976 1100.47 284.198 1102.14 285.01 1103.54C285.823 1104.95 287.159 1105.97 288.727 1106.39L315.868 1113.61C317.436 1114.03 319.105 1113.8 320.51 1112.99C321.915 1112.18 322.939 1110.84 323.36 1109.27L399.182 824.291C399.432 823.346 399.906 822.475 400.562 821.751C401.218 821.027 402.039 820.471 402.954 820.13C403.87 819.788 404.853 819.671 405.823 819.789C406.793 819.906 407.721 820.255 408.529 820.805L807.518 1091.34C808.809 1092.21 809.719 1093.54 810.061 1095.05L815.556 1119.1C815.911 1120.69 816.879 1122.06 818.248 1122.93C819.617 1123.8 821.274 1124.09 822.856 1123.73L855.377 1116.4L855.913 1116.72L856.198 1116.23L856.185 1116.09L1122.15 655.458C1123.74 652.704 1126.13 650.5 1129 649.143L1519.44 464.591C1520.38 464.145 1521.42 463.947 1522.46 464.015C1523.5 464.084 1524.5 464.416 1525.38 464.981ZM834.422 731.147L1166.99 240.338C1167.89 239.018 1169.27 238.102 1170.84 237.785C1172.4 237.468 1174.03 237.775 1175.37 238.64L1473.43 431.374C1474.35 431.968 1475.08 432.795 1475.57 433.769C1476.06 434.744 1476.28 435.831 1476.21 436.918C1476.13 438.006 1475.77 439.054 1475.16 439.956C1474.55 440.858 1473.71 441.58 1472.72 442.048L842.11 740.105C840.897 740.686 839.527 740.851 838.212 740.574C836.897 740.297 835.709 739.594 834.833 738.573C833.958 737.553 833.443 736.273 833.369 734.93C833.294 733.587 833.664 732.258 834.422 731.147ZM1006.91 129.704L1131.23 210.087C1131.91 210.531 1132.49 211.107 1132.95 211.78C1133.41 212.453 1133.73 213.211 1133.89 214.009C1134.05 214.807 1134.05 215.628 1133.89 216.426C1133.73 217.225 1133.41 217.983 1132.96 218.657L781.45 737.434C780.779 738.421 779.833 739.191 778.73 739.648C777.628 740.106 776.415 740.231 775.242 740.008C774.069 739.785 772.986 739.225 772.127 738.395C771.269 737.565 770.671 736.502 770.408 735.337L721.025 515.983C720.845 515.127 720.85 514.243 721.041 513.389C721.231 512.535 721.602 511.732 722.128 511.033L998.66 131.263C999.578 130.001 1000.94 129.136 1002.48 128.847C1004.01 128.557 1005.6 128.863 1006.91 129.704ZM726.094 765.494L464.574 663.118C463.501 662.694 462.569 661.975 461.888 661.044C461.206 660.113 460.802 659.008 460.722 657.856C460.642 656.705 460.889 655.555 461.435 654.538C461.982 653.521 462.804 652.68 463.808 652.112L675.529 533.117C676.36 532.649 677.288 532.381 678.241 532.337C679.193 532.292 680.142 532.47 681.014 532.858C681.885 533.246 682.653 533.832 683.257 534.57C683.861 535.308 684.284 536.177 684.492 537.108L734.323 758.476C734.567 759.563 734.51 760.695 734.158 761.751C733.806 762.807 733.173 763.747 732.326 764.469C731.479 765.192 730.451 765.669 729.352 765.849C728.254 766.03 727.127 765.907 726.094 765.494ZM669.368 490.263L468.744 603.087C467.695 603.673 466.496 603.938 465.298 603.848C464.099 603.757 462.954 603.317 462.004 602.58C461.054 601.844 460.341 600.844 459.955 599.706C459.568 598.568 459.525 597.341 459.831 596.178L582.317 135.897C582.666 134.572 583.45 133.402 584.543 132.577C585.636 131.751 586.974 131.316 588.343 131.342C589.713 131.368 591.034 131.854 592.094 132.721C593.155 133.588 593.894 134.786 594.192 136.124L672.401 483.511C672.702 484.806 672.575 486.163 672.04 487.379C671.504 488.596 670.589 489.605 669.431 490.257L669.368 490.263ZM413.495 770.463L431.975 701.004C432.197 700.171 432.593 699.395 433.135 698.725C433.678 698.056 434.356 697.508 435.125 697.119C435.893 696.729 436.736 696.506 437.596 696.464C438.457 696.422 439.317 696.562 440.12 696.876L744.485 816.011C745.422 816.377 746.255 816.969 746.909 817.734C747.562 818.499 748.017 819.414 748.233 820.397L793.181 1020.11C793.447 1021.31 793.348 1022.55 792.898 1023.69C792.448 1024.83 791.667 1025.81 790.656 1026.5C789.645 1027.19 788.45 1027.56 787.225 1027.57C786.001 1027.57 784.803 1027.21 783.786 1026.53L415.973 777.093C414.922 776.383 414.118 775.363 413.674 774.174C413.23 772.986 413.167 771.688 413.495 770.463ZM839.624 1042.81L788.431 815.38C788.124 814.023 788.289 812.601 788.898 811.351C789.508 810.1 790.526 809.095 791.784 808.502L1042.78 689.865C1043.96 689.306 1045.29 689.139 1046.57 689.388C1047.85 689.637 1049.01 690.289 1049.9 691.248C1050.78 692.208 1051.33 693.425 1051.47 694.721C1051.62 696.017 1051.34 697.325 1050.69 698.454L850.898 1044.51C850.281 1045.58 849.358 1046.43 848.248 1046.97C847.139 1047.5 845.895 1047.69 844.679 1047.5C843.462 1047.32 842.329 1046.77 841.428 1045.93C840.526 1045.09 839.897 1044 839.624 1042.81Z" fill="#5CAC72"/>
</svg>
