<svg width="1728" height="2299" viewBox="0 0 1728 2299" fill="none" xmlns="http://www.w3.org/2000/svg">
<path d="M2477.78 1079.58L2793.32 1249.19C2796.35 1250.82 2800.03 1251.38 2803.56 1250.75C2807.09 1250.12 2810.17 1248.35 2812.12 1245.83L2846.04 1202.1C2848 1199.57 2848.68 1196.51 2847.92 1193.57C2847.16 1190.63 2845.03 1188.07 2842 1186.43L1703.28 574.142L1663.37 551.642L1662.78 552.392L914.853 150.217C911.818 148.588 908.13 148.027 904.599 148.658C901.068 149.288 897.983 151.058 896.019 153.579L862.098 197.312C860.14 199.836 859.466 202.903 860.224 205.84C860.982 208.777 863.111 211.344 866.142 212.977L1225.76 406.332C1227.31 407.168 1228.65 408.259 1229.69 409.539C1230.72 410.819 1231.43 412.261 1231.77 413.777C1232.11 415.293 1232.08 416.851 1231.67 418.355C1231.26 419.86 1230.49 421.279 1229.4 422.527L678.023 1051.94C676.484 1053.7 674.37 1055.05 671.933 1055.83C669.496 1056.61 666.84 1056.8 664.282 1056.36C661.724 1055.92 659.371 1054.87 657.507 1053.35C655.643 1051.83 654.345 1049.89 653.769 1047.78L438.451 252.578C437.653 249.649 435.491 247.103 432.439 245.499C429.387 243.894 425.695 243.362 422.172 244.019L347.945 257.934L350.25 266.534C350.711 268.319 350.661 270.169 350.105 271.935L128.229 965.31C127.578 967.321 126.273 969.144 124.458 970.579C122.643 972.014 120.388 973.005 117.94 973.444C115.492 973.884 112.946 973.754 110.581 973.069C108.216 972.384 106.124 971.17 104.533 969.561L-843.864 4.55548C-844.99 3.40078 -846.379 2.44256 -847.951 1.73569C-849.523 1.02881 -851.248 0.587314 -853.026 0.436583C-854.804 0.285852 -856.6 0.428768 -858.311 0.857284C-860.023 1.2858 -861.615 1.99149 -862.998 2.93358L-911.417 35.8568C-914.207 37.756 -915.976 40.4988 -916.335 43.4824C-916.694 46.4659 -915.614 49.4459 -913.332 51.7674L88.5059 1071.07C89.8719 1072.46 90.8217 1074.09 91.2767 1075.84C91.7318 1077.59 91.679 1079.41 91.1227 1081.14L-283.708 2252.47C-284.636 2255.37 -284.141 2258.46 -282.333 2261.06C-280.525 2263.66 -277.551 2265.56 -274.064 2266.34L-213.668 2279.69C-210.179 2280.46 -206.463 2280.05 -203.338 2278.55C-200.212 2277.04 -197.932 2274.57 -196.996 2271.67L-28.2741 1744.38C-27.7169 1742.64 -26.6636 1741.03 -25.2031 1739.69C-23.7427 1738.35 -21.9172 1737.32 -19.88 1736.69C-17.8428 1736.05 -15.6535 1735.84 -13.4951 1736.06C-11.3366 1736.27 -9.27206 1736.92 -7.47498 1737.94L880.372 2238.49C883.245 2240.1 885.27 2242.55 886.032 2245.36L898.258 2289.86C899.047 2292.78 901.202 2295.33 904.248 2296.94C907.295 2298.54 910.983 2299.08 914.502 2298.42L986.869 2284.86L988.063 2285.44L988.697 2284.54L988.667 2284.27L1580.5 1432.01C1584.03 1426.91 1589.36 1422.83 1595.76 1420.32L2464.56 1078.86C2466.66 1078.04 2468.97 1077.67 2471.28 1077.8C2473.6 1077.92 2475.83 1078.54 2477.78 1079.58ZM940.239 1572.05L1680.29 663.942C1682.29 661.5 1685.36 659.805 1688.84 659.218C1692.33 658.631 1695.95 659.199 1698.94 660.8L2362.19 1017.4C2364.22 1018.5 2365.87 1020.03 2366.95 1021.83C2368.04 1023.64 2368.52 1025.65 2368.36 1027.66C2368.2 1029.67 2367.4 1031.61 2366.04 1033.28C2364.68 1034.95 2362.81 1036.28 2360.62 1037.15L957.346 1588.62C954.649 1589.7 951.6 1590 948.673 1589.49C945.746 1588.98 943.104 1587.68 941.155 1585.79C939.207 1583.9 938.061 1581.53 937.896 1579.05C937.73 1576.56 938.553 1574.1 940.239 1572.05ZM1324.07 459.243L1600.7 607.971C1602.22 608.793 1603.52 609.857 1604.54 611.103C1605.56 612.349 1606.27 613.751 1606.63 615.227C1606.98 616.703 1606.99 618.224 1606.63 619.7C1606.27 621.177 1605.57 622.579 1604.55 623.827L822.365 1583.68C820.87 1585.51 818.767 1586.93 816.313 1587.78C813.858 1588.62 811.16 1588.86 808.549 1588.44C805.939 1588.03 803.53 1586.99 801.619 1585.46C799.708 1583.92 798.378 1581.96 797.792 1579.8L687.904 1173.95C687.504 1172.36 687.516 1170.73 687.939 1169.15C688.362 1167.57 689.187 1166.08 690.358 1164.79L1305.71 462.128C1307.75 459.793 1310.79 458.194 1314.2 457.658C1317.61 457.122 1321.14 457.689 1324.07 459.243ZM699.183 1635.6L117.239 1446.18C114.851 1445.4 112.779 1444.07 111.262 1442.34C109.745 1440.62 108.845 1438.57 108.667 1436.44C108.489 1434.31 109.039 1432.19 110.255 1430.3C111.47 1428.42 113.301 1426.87 115.536 1425.82L586.664 1205.65C588.513 1204.78 590.579 1204.29 592.698 1204.2C594.818 1204.12 596.931 1204.45 598.869 1205.17C600.807 1205.89 602.517 1206.97 603.861 1208.34C605.205 1209.7 606.146 1211.31 606.609 1213.03L717.495 1622.61C718.039 1624.62 717.912 1626.72 717.129 1628.67C716.345 1630.63 714.936 1632.37 713.051 1633.7C711.166 1635.04 708.878 1635.92 706.434 1636.26C703.99 1636.59 701.483 1636.36 699.183 1635.6ZM572.956 1126.36L126.518 1335.11C124.184 1336.19 121.517 1336.68 118.85 1336.52C116.183 1336.35 113.634 1335.53 111.52 1334.17C109.406 1332.81 107.82 1330.96 106.96 1328.85C106.1 1326.75 106.004 1324.48 106.684 1322.33L379.247 470.702C380.023 468.25 381.767 466.087 384.198 464.559C386.63 463.031 389.609 462.226 392.656 462.275C395.703 462.323 398.642 463.222 401.002 464.826C403.362 466.43 405.006 468.647 405.67 471.122L579.705 1113.87C580.374 1116.26 580.092 1118.77 578.9 1121.02C577.708 1123.27 575.672 1125.14 573.095 1126.35L572.956 1126.36ZM3.57617 1644.79L44.6981 1516.28C45.1927 1514.74 46.0729 1513.3 47.2806 1512.06C48.4884 1510.82 49.9967 1509.81 51.7072 1509.09C53.4177 1508.37 55.2919 1507.95 57.2073 1507.88C59.1227 1507.8 61.0362 1508.06 62.8229 1508.64L740.108 1729.07C742.194 1729.74 744.047 1730.84 745.501 1732.25C746.956 1733.67 747.968 1735.36 748.448 1737.18L848.468 2106.69C849.06 2108.91 848.84 2111.22 847.839 2113.32C846.837 2115.43 845.099 2117.24 842.849 2118.52C840.599 2119.8 837.94 2120.48 835.215 2120.49C832.491 2120.5 829.825 2119.83 827.562 2118.57L9.08954 1657.06C6.75038 1655.74 4.96207 1653.86 3.97375 1651.66C2.98544 1649.46 2.84664 1647.06 3.57617 1644.79ZM951.814 2148.69L837.898 1727.9C837.214 1725.39 837.582 1722.76 838.938 1720.44C840.295 1718.13 842.56 1716.27 845.359 1715.17L1403.89 1495.67C1406.51 1494.63 1409.46 1494.32 1412.31 1494.78C1415.16 1495.25 1417.76 1496.45 1419.72 1498.23C1421.69 1500 1422.92 1502.25 1423.23 1504.65C1423.55 1507.05 1422.94 1509.47 1421.48 1511.56L976.902 2151.85C975.529 2153.82 973.475 2155.4 971.007 2156.39C968.538 2157.37 965.77 2157.72 963.063 2157.37C960.356 2157.03 957.836 2156.02 955.829 2154.47C953.823 2152.92 952.424 2150.91 951.814 2148.69Z" fill="#CCD912"/>
</svg>
