<svg width="1166" height="1076" viewBox="0 0 1166 1076" fill="none" xmlns="http://www.w3.org/2000/svg">
<path d="M-907.817 651.873L-1097.75 514.788C-1099.58 513.473 -1101.85 512.935 -1104.07 513.294C-1106.28 513.653 -1108.27 514.879 -1109.59 516.703L-1132.39 548.366C-1133.7 550.193 -1134.24 552.468 -1133.88 554.691C-1133.52 556.915 -1132.3 558.905 -1130.47 560.225L-445.046 1055.09L-421.063 1073.21L-420.672 1072.67L29.5253 1397.72C31.3521 1399.03 33.6266 1399.57 35.8492 1399.21C38.0719 1398.85 40.0611 1397.63 41.3805 1395.8L64.1805 1364.14C65.4966 1362.31 66.0338 1360.04 65.6748 1357.81C65.3157 1355.59 64.0894 1353.6 62.265 1352.28L-154.195 1196.01C-155.134 1195.33 -155.924 1194.47 -156.519 1193.48C-157.114 1192.49 -157.5 1191.39 -157.654 1190.24C-157.809 1189.09 -157.727 1187.93 -157.416 1186.81C-157.105 1185.7 -156.57 1184.66 -155.843 1183.76L211.635 730.09C212.661 728.825 214.029 727.881 215.576 727.373C217.123 726.865 218.784 726.813 220.36 727.224C221.936 727.635 223.36 728.491 224.462 729.69C225.565 730.889 226.298 732.381 226.575 733.986L330.064 1336.3C330.448 1338.52 331.696 1340.49 333.535 1341.79C335.373 1343.09 337.652 1343.61 339.87 1343.23L386.618 1335.18L385.514 1328.67C385.296 1327.32 385.398 1325.93 385.812 1324.63L550.602 812.532C551.085 811.047 551.967 809.723 553.153 808.707C554.338 807.69 555.78 807.02 557.321 806.769C558.862 806.519 560.442 806.697 561.888 807.286C563.334 807.874 564.59 808.85 565.518 810.105L1118.89 1563C1119.55 1563.9 1120.37 1564.66 1121.33 1565.24C1122.28 1565.82 1123.33 1566.2 1124.44 1566.37C1125.54 1566.54 1126.66 1566.49 1127.74 1566.23C1128.82 1565.96 1129.84 1565.48 1130.74 1564.82L1162.15 1541.72C1163.96 1540.39 1165.17 1538.39 1165.51 1536.17C1165.84 1533.94 1165.29 1531.68 1163.95 1529.87L579.399 734.608C578.602 733.527 578.073 732.272 577.857 730.947C577.641 729.621 577.744 728.263 578.157 726.985L856.548 -138.106C857.237 -140.249 857.048 -142.579 856.022 -144.583C854.997 -146.588 853.218 -148.103 851.076 -148.797L813.988 -160.726C811.845 -161.415 809.516 -161.226 807.512 -160.2C805.509 -159.174 803.994 -157.395 803.3 -155.253L677.987 234.175C677.573 235.466 676.855 236.639 675.894 237.595C674.933 238.552 673.757 239.264 672.465 239.671C671.172 240.079 669.801 240.171 668.465 239.939C667.13 239.708 665.869 239.159 664.789 238.339L131.263 -164.846C129.537 -166.138 128.37 -168.042 128.004 -170.168L122.102 -203.878C121.724 -206.095 120.48 -208.07 118.645 -209.37C116.81 -210.669 114.534 -211.187 112.318 -210.808L66.7421 -202.967L66.0207 -203.438L65.5911 -202.784L65.6 -202.587L-335.628 416.661C-338.026 420.364 -341.498 423.246 -345.578 424.922L-899.616 652.836C-900.952 653.387 -902.406 653.587 -903.841 653.418C-905.276 653.25 -906.645 652.718 -907.817 651.873V651.873ZM68.3738 332.263L-427.28 988.585C-428.621 990.35 -430.598 991.521 -432.789 991.849C-434.98 992.177 -437.213 991.636 -439.012 990.342L-838.241 702.127C-839.465 701.239 -840.429 700.041 -841.036 698.657C-841.642 697.272 -841.869 695.75 -841.691 694.249C-841.514 692.747 -840.94 691.32 -840.028 690.114C-839.116 688.909 -837.899 687.968 -836.503 687.39L58.3598 319.305C60.0808 318.587 61.9904 318.457 63.7931 318.934C65.5958 319.411 67.1909 320.47 68.3314 321.945C69.4719 323.421 70.094 325.232 70.1016 327.097C70.1093 328.962 69.5021 330.778 68.3738 332.263V332.263ZM-213.371 1153.25L-379.882 1033.04C-380.795 1032.38 -381.567 1031.54 -382.153 1030.57C-382.738 1029.61 -383.125 1028.53 -383.292 1027.42C-383.459 1026.3 -383.401 1025.16 -383.123 1024.07C-382.845 1022.97 -382.352 1021.95 -381.672 1021.04L142.208 327.321C143.209 326.001 144.573 325.001 146.134 324.446C147.694 323.891 149.383 323.804 150.993 324.196C152.602 324.588 154.062 325.442 155.193 326.652C156.324 327.863 157.076 329.378 157.358 331.011L210.173 638.419C210.361 639.618 210.291 640.844 209.967 642.013C209.642 643.183 209.072 644.269 208.293 645.199L-201.828 1151.67C-203.19 1153.36 -205.143 1154.46 -207.288 1154.75C-209.433 1155.04 -211.609 1154.5 -213.371 1153.25ZM220.896 292.383L575.929 452.815C577.385 453.479 578.624 454.541 579.503 455.88C580.381 457.219 580.862 458.778 580.891 460.379C580.92 461.98 580.496 463.556 579.667 464.926C578.838 466.295 577.638 467.402 576.207 468.118L274.422 617.918C273.238 618.508 271.933 618.812 270.61 618.806C269.288 618.801 267.985 618.486 266.806 617.886C265.626 617.287 264.604 616.42 263.819 615.355C263.035 614.289 262.511 613.055 262.289 611.751L208.996 301.52C208.735 299.998 208.894 298.433 209.457 296.995C210.02 295.556 210.964 294.299 212.189 293.359C213.414 292.418 214.872 291.831 216.407 291.658C217.941 291.486 219.493 291.737 220.896 292.383V292.383ZM279.91 677.726L565.882 535.687C567.377 534.95 569.056 534.668 570.71 534.878C572.364 535.088 573.92 535.78 575.184 536.868C576.448 537.956 577.364 539.391 577.818 540.996C578.273 542.601 578.245 544.303 577.739 545.893L375.309 1174.86C374.731 1176.67 373.562 1178.24 371.99 1179.3C370.417 1180.37 368.532 1180.88 366.636 1180.74C364.741 1180.61 362.945 1179.84 361.538 1178.57C360.13 1177.29 359.192 1175.58 358.874 1173.7L275.228 686.865C274.903 685.05 275.175 683.179 276.004 681.532C276.832 679.885 278.172 678.551 279.822 677.73L279.91 677.726ZM654.329 307.731L623.787 402.646C623.419 403.784 622.816 404.831 622.017 405.72C621.217 406.609 620.239 407.32 619.146 407.805C618.054 408.29 616.871 408.539 615.676 408.536C614.48 408.533 613.299 408.277 612.209 407.786L199.009 221.087C197.736 220.513 196.625 219.634 195.774 218.528C194.922 217.422 194.357 216.122 194.129 214.744L146.061 -65.1372C145.777 -66.8126 146.003 -68.5345 146.707 -70.0806C147.412 -71.6267 148.563 -72.9262 150.013 -73.8113C151.463 -74.6964 153.145 -75.1266 154.842 -75.0464C156.539 -74.9662 158.173 -74.3792 159.533 -73.3612L651.368 298.37C652.773 299.428 653.814 300.899 654.345 302.576C654.876 304.254 654.87 306.056 654.329 307.731V307.731ZM83.3322 -99.8829L138.081 218.837C138.41 220.739 138.08 222.696 137.147 224.385C136.213 226.074 134.732 227.395 132.947 228.127L-223.229 374.638C-224.901 375.328 -226.749 375.465 -228.505 375.029C-230.26 374.593 -231.831 373.607 -232.986 372.215C-234.141 370.823 -234.821 369.098 -234.926 367.292C-235.031 365.485 -234.556 363.693 -233.57 362.176L67.8344 -103.053C68.7649 -104.485 70.1046 -105.603 71.6792 -106.261C73.2538 -106.92 74.9905 -107.09 76.6628 -106.748C78.335 -106.406 79.8654 -105.568 81.055 -104.343C82.2446 -103.119 83.0381 -101.565 83.3322 -99.8829V-99.8829Z" fill="#A0E7FF"/>
</svg>
